<svg width="383" height="307" viewBox="0 0 383 307" fill="none" xmlns="http://www.w3.org/2000/svg">
<path d="M278 201C334.885 201 381 156.452 381 101.5C381 46.5477 334.885 2 278 2C221.115 2 175 46.5477 175 101.5C175 156.452 221.115 201 278 201Z" stroke="#EE4023" stroke-width="4" stroke-miterlimit="10" stroke-dasharray="12 12"/>
<path d="M1.08255 106.815C13.7071 110.692 26.3757 114.568 38.5442 119.649C44.5697 122.137 50.4296 124.979 56.0906 128.159C61.971 131.494 67.5323 135.305 73.1131 139.076C83.7567 146.329 94.9893 152.751 106.703 158.28C118.345 163.646 130.286 168.393 142.472 172.5C154.667 176.684 167.022 180.418 179.392 184.091C180.954 184.555 182.517 185.019 184.079 185.481C185.797 185.99 186.532 183.408 184.82 182.901C172.399 179.221 159.976 175.531 147.695 171.435C135.483 167.442 123.496 162.842 111.782 157.654C100.022 152.398 88.7415 146.205 78.0583 139.14C72.4286 135.397 66.9062 131.5 61.12 127.979C55.5457 124.612 49.7448 121.603 43.7555 118.974C31.7403 113.652 19.1819 109.591 6.60133 105.705C5.00931 105.213 3.41668 104.723 1.82349 104.234C0.111088 103.708 -0.622049 106.291 1.08255 106.815Z" fill="#923264"/>
<path d="M48.4176 121.11C38.113 117.728 25.8654 121.293 18.9195 129.271C17.1774 131.272 15.433 133.68 14.8019 136.255C14.5768 136.994 14.5125 137.77 14.6129 138.535C14.7134 139.299 14.9766 140.036 15.386 140.699C16.2986 142.001 17.7878 142.7 19.2385 143.316C22.4046 144.663 25.8236 145.479 29.2565 144.621C32.1828 143.769 34.819 142.182 36.8927 140.025C41.6076 135.456 44.4777 128.688 50.9222 126.002C51.2396 125.821 51.47 125.528 51.5636 125.185C51.6572 124.843 51.6064 124.478 51.4222 124.171C51.2293 123.872 50.9237 123.655 50.5688 123.565C50.2139 123.476 49.8368 123.521 49.5155 123.691C44.267 125.879 41.1561 130.698 37.8261 134.899C34.5837 138.989 30.0265 143.27 24.1937 142.117C22.6667 141.795 21.1866 141.294 19.7866 140.625C18.6996 140.123 17.5111 139.55 17.3731 138.269C17.2376 137.012 17.8525 135.732 18.4548 134.653C19.0223 133.632 19.6756 132.656 20.4081 131.737C23.3716 128.117 27.3608 125.396 31.8963 123.901C36.9838 122.137 42.5403 122.063 47.6766 123.691C49.3775 124.249 50.1079 121.665 48.4176 121.11Z" fill="#923264"/>
<path d="M161.035 174.683C151.329 169.996 139.077 171.762 130.89 178.508C128.688 180.214 126.895 182.356 125.633 184.788C124.88 186.18 124.728 187.8 125.21 189.299C125.776 190.74 127.012 191.671 128.314 192.489C131.124 194.252 134.369 195.666 137.801 195.459C140.952 195.165 143.946 193.996 146.417 192.095C149.256 190.056 151.585 187.529 154.104 185.155C156.524 182.874 159.181 180.73 162.507 179.835C164.232 179.371 163.499 176.789 161.766 177.255C156.174 178.759 152.391 183.097 148.429 186.877C146.463 188.874 144.157 190.535 141.61 191.788C140.339 192.378 138.954 192.71 137.543 192.76C136.131 192.811 134.724 192.58 133.411 192.082C132.026 191.541 130.709 190.852 129.485 190.029C128.469 189.376 127.569 188.609 127.709 187.331C127.961 185.033 130.158 182.848 131.811 181.317C135.254 178.198 139.544 176.078 144.188 175.2C149.399 174.127 154.834 174.759 159.628 176.993C161.227 177.765 162.639 175.457 161.035 174.683Z" fill="#923264"/>
<path d="M75.2824 140.28C72.7135 149.559 63.9649 157.868 54.0371 159.624C51.6986 160.098 49.2761 160.029 46.9712 159.422C45.9315 159.107 44.8781 158.523 44.6717 157.408C44.4201 156.048 44.893 154.411 45.2426 153.097C45.9214 150.546 47.2396 148.268 49.5851 146.813C51.842 145.528 54.365 144.733 56.9765 144.485C63.4008 143.655 70.3083 144.62 76.0396 141.083C77.5437 140.155 76.1478 137.838 74.6329 138.773C69.1682 142.145 62.2423 141.075 56.1057 141.922C53.2169 142.23 50.437 143.157 47.971 144.634C45.339 146.388 43.4558 148.996 42.6681 151.977C41.8614 154.742 40.9624 158.568 43.6108 160.678C45.8058 162.426 49.0196 162.686 51.7625 162.553C57.5113 162.275 62.8828 159.786 67.2981 156.344C72.4351 152.419 76.1663 147.052 77.9701 140.991C78.4313 139.325 75.7435 138.614 75.2824 140.28Z" fill="#923264"/>
<path d="M111.76 161.025C109.24 170.117 100.35 177.192 90.6261 178.167C88.3194 178.398 85.6833 178.472 83.4798 177.669C82.9427 177.532 82.463 177.239 82.1069 176.829C81.7509 176.42 81.536 175.915 81.4919 175.383C81.4953 173.958 81.7252 172.542 82.1739 171.184C82.7795 168.657 84.3855 166.456 86.6519 165.045C88.8823 163.828 91.3545 163.075 93.9079 162.835C100.309 162.026 107.189 162.964 112.896 159.443C114.4 158.515 113.004 156.197 111.489 157.132C106.058 160.484 99.1933 159.438 93.0921 160.264C90.2428 160.563 87.4943 161.449 85.0349 162.862C82.415 164.523 80.5036 167.032 79.6486 169.932C78.7659 172.698 77.7652 176.662 80.2935 178.894C82.3542 180.713 85.5167 180.968 88.1847 180.966C93.7841 180.905 99.229 179.196 103.784 176.069C108.969 172.63 112.741 167.561 114.447 161.736C114.909 160.07 112.221 159.359 111.76 161.025Z" fill="#923264"/>
<path d="M48.516 121.777C40.4247 117.119 36.0569 107.727 37.0405 98.8183C37.2596 96.6161 37.8728 94.4666 38.8534 92.4647C39.3295 91.5351 39.9705 90.4647 40.99 90.0051C42.2196 89.4509 43.6362 90.2222 44.741 90.7404C47.2208 91.9034 49.5255 93.4268 50.8004 95.8486C52.0022 98.1313 52.0895 100.816 51.8542 103.313C51.2223 110.019 47.708 116.509 49.8165 123.303C50.3275 124.949 53.0183 124.248 52.5041 122.592C50.5035 116.146 54.0828 109.59 54.654 103.179C55.0082 100.256 54.5288 97.2947 53.2672 94.6123C51.8958 91.9256 49.375 90.0187 46.6547 88.6737C45.1833 87.9461 43.547 87.1278 41.8521 87.1328C41.1145 87.1561 40.3899 87.326 39.7242 87.6319C39.0585 87.9378 38.4662 88.373 37.9847 88.9099C36.1855 90.8194 35.2707 93.5217 34.7142 95.9983C33.618 101.022 34.0564 106.243 35.9767 111.033C38.0646 116.456 41.9838 121.052 47.1092 124.088C48.6514 124.975 50.0544 122.663 48.516 121.777Z" fill="#923264"/>
<path d="M160.849 175.375C151.925 171.424 146.315 162.05 146.762 152.682C146.869 150.441 147.242 147.909 148.391 145.924C148.949 144.961 149.737 144.148 150.968 144.205C152.489 144.397 153.96 144.853 155.31 145.552C157.835 146.562 159.851 148.477 160.929 150.89C161.839 153.399 162.171 156.068 161.901 158.712C161.715 161.842 161.013 164.899 160.576 167.999C160.132 171.157 159.901 174.533 161.211 177.541C161.319 177.877 161.557 178.16 161.875 178.334C162.194 178.508 162.569 178.558 162.925 178.475C163.28 178.379 163.582 178.153 163.764 177.844C163.946 177.536 163.994 177.172 163.898 176.83C162.659 173.984 162.933 170.815 163.393 167.832C163.861 164.794 164.506 161.786 164.689 158.712C164.863 155.783 164.687 152.695 163.521 149.949C162.318 147.125 160.078 144.823 157.225 143.48C154.541 142.172 150.652 140.484 147.895 142.432C145.568 144.077 144.742 147.125 144.303 149.73C143.457 155.031 144.297 160.454 146.715 165.288C149.324 170.718 153.825 175.102 159.442 177.686C159.763 177.855 160.14 177.899 160.495 177.81C160.849 177.72 161.155 177.504 161.349 177.206C161.532 176.898 161.583 176.534 161.489 176.192C161.396 175.849 161.166 175.556 160.849 175.375Z" fill="#923264"/>
<path d="M79.7808 139.393C86.1171 131.189 86.3559 119.325 81.0065 110.603C79.6421 108.265 77.8112 106.209 75.6183 104.551C74.4079 103.602 72.8852 103.097 71.3226 103.126C69.6089 103.25 68.3017 104.231 67.1612 105.389C65.0185 107.565 63.0382 110.147 62.4509 113.152C61.8419 116.268 62.615 119.341 63.9778 122.176C65.5182 125.381 67.8365 128.115 69.9192 130.995C71.8633 133.684 73.7436 136.633 74.0968 139.961C74.1068 140.313 74.2568 140.647 74.516 140.896C74.7752 141.145 75.1239 141.289 75.4904 141.299C75.8592 141.296 76.2122 141.155 76.4731 140.904C76.7339 140.654 76.8815 140.315 76.884 139.961C76.2774 134.245 72.4253 129.945 69.1621 125.396C67.3811 123.106 66.0676 120.513 65.2908 117.754C64.9762 116.445 64.9464 115.088 65.2032 113.767C65.46 112.446 65.9978 111.191 66.7832 110.079C67.5766 108.923 68.4976 107.853 69.5303 106.886C70.5089 105.958 71.5336 105.496 72.8664 106.063C75.004 106.973 76.7103 109.141 77.963 110.97C80.5428 114.795 81.9427 119.243 82.0011 123.799C82.1358 128.907 80.5092 133.914 77.3741 138.042C77.19 138.349 77.1393 138.713 77.2329 139.056C77.3264 139.398 77.5568 139.692 77.874 139.873C78.1951 140.044 78.5725 140.089 78.9277 140C79.2828 139.91 79.5884 139.693 79.7808 139.393Z" fill="#923264"/>
<path d="M117.168 160.541C123.504 152.337 123.743 140.474 118.394 131.751C117.029 129.413 115.198 127.357 113.005 125.699C111.795 124.75 110.272 124.245 108.71 124.275C106.996 124.399 105.689 125.379 104.548 126.537C102.406 128.713 100.425 131.296 99.8381 134.301C99.2291 137.417 100.002 140.49 101.365 143.325C102.905 146.529 105.224 149.263 107.306 152.143C109.251 154.832 111.131 157.781 111.484 161.109C111.494 161.461 111.644 161.796 111.903 162.045C112.162 162.293 112.511 162.438 112.878 162.447C113.246 162.445 113.599 162.303 113.86 162.053C114.121 161.802 114.269 161.463 114.271 161.109C113.665 155.394 109.812 151.093 106.549 146.545C104.768 144.254 103.455 141.661 102.678 138.902C102.363 137.593 102.334 136.236 102.59 134.915C102.847 133.595 103.385 132.339 104.17 131.228C104.964 130.071 105.885 129.001 106.917 128.035C107.896 127.106 108.921 126.644 110.254 127.212C112.391 128.122 114.097 130.289 115.35 132.119C117.93 135.944 119.33 140.391 119.388 144.948C119.523 150.055 117.896 155.062 114.761 159.19C114.577 159.497 114.526 159.862 114.62 160.204C114.714 160.547 114.944 160.84 115.261 161.021C115.582 161.192 115.96 161.238 116.315 161.148C116.67 161.059 116.976 160.841 117.168 160.541Z" fill="#923264"/>
<path d="M305.142 258.372L317.75 231.395L336.625 255.804L360.699 252.232L339.688 270.058L347.89 293.861L322.141 272.834L301.979 286.742L307.247 270.199L277.348 258.582L305.142 258.372Z" fill="#231F20"/>
<path d="M301.281 256.59L313.89 229.613L332.765 254.023L356.837 250.451L335.827 268.277L344.029 292.08L318.281 271.053L298.118 284.959L303.386 268.416L273.486 256.799L301.281 256.59Z" fill="#FFC424"/>
<path d="M42.1069 292.933C21.5697 275.029 25.8734 242.774 50.0765 229.759C57.4561 225.713 65.7356 223.417 74.226 223.063C140.35 220.574 142.43 316.087 68.4891 306.295C58.1259 304.923 49.3193 299.221 42.1069 292.933Z" fill="#292E78"/>
<path d="M48.7644 287.276C32.59 273.175 35.9795 247.772 55.0412 237.522C60.8531 234.335 67.3738 232.527 74.0605 232.249C126.138 230.288 127.776 305.511 69.5424 297.799C61.3806 296.719 54.4447 292.228 48.7644 287.276Z" fill="white"/>
<path d="M57.272 282.188C46.1858 272.523 48.509 255.111 61.5741 248.086C65.5577 245.901 70.027 244.662 74.6102 244.471C110.304 243.127 111.428 294.686 71.5135 289.401C65.9193 288.66 61.1653 285.582 57.272 282.188Z" fill="#007EC4"/>
<path d="M67.4128 272.49C66.3431 271.535 65.524 270.351 65.0223 269.034C64.5206 267.718 64.3505 266.306 64.5261 264.914C64.7017 263.522 65.2179 262.19 66.0325 261.026C66.8472 259.862 67.937 258.9 69.2131 258.219C70.8801 257.305 72.7505 256.786 74.6684 256.706C89.6056 256.144 90.0757 277.72 73.3725 275.508C71.115 275.1 69.038 274.048 67.4128 272.49Z" fill="#231F20"/>
</svg>
