<svg width="1920" height="329" viewBox="0 0 1920 329" fill="none" xmlns="http://www.w3.org/2000/svg">
  <path
    d="M501.141 189.668L570.018 165.973L569.478 163.245L491.711 201.761C491.46 201.871 491.25 202.113 491.124 202.435C490.998 202.757 490.967 203.135 491.037 203.488C491.106 203.842 491.272 204.144 491.499 204.33C491.725 204.517 491.995 204.574 492.251 204.489L579.74 175.341L604.524 167.084L603.984 164.356L515.61 198.189C515.358 198.299 515.148 198.54 515.022 198.863C514.896 199.185 514.865 199.562 514.935 199.916C515.005 200.27 515.17 200.572 515.397 200.758C515.623 200.945 515.893 201.002 516.149 200.917L623.186 168.733L652.692 159.861C653.987 159.471 653.417 156.847 652.152 157.133C612.207 166.15 576.048 191.427 538.421 210.758C527.722 216.329 516.829 221.145 505.782 225.187L506.322 227.915C545.938 208.415 586.181 191.167 626.753 175.953C638.195 171.663 649.69 167.646 661.255 164.048C662.54 163.649 661.986 160.991 660.715 161.321C657.206 162.23 653.695 163.135 650.202 164.159C649.276 164.431 647.646 164.489 647.223 165.908C647.163 166.208 647.176 166.528 647.26 166.818C647.345 167.107 647.496 167.349 647.69 167.505C648.855 168.193 650.822 167.161 651.986 166.85C655.092 166.023 658.181 165.079 661.255 164.048C662.537 163.618 661.984 160.987 660.715 161.321C638.323 167.211 618.628 183.158 597.98 195.718C576.203 208.963 553.667 219.585 531.06 229.697C522.02 233.74 512.937 237.596 503.866 241.503L504.406 244.231C526.784 231.48 549.518 220.258 572.574 210.138C599.135 198.478 625.905 187.78 652.803 177.734C668.389 171.913 684.009 166.274 699.663 160.817L699.124 158.089C696.01 159.832 692.883 161.555 689.699 163.033C688.908 163.286 688.131 163.615 687.373 164.018C687.22 164.126 686.922 164.236 686.96 164.161C686.847 164.383 687.494 166.482 687.478 166.479C687.716 166.524 688.475 165.8 688.706 165.665C689.549 165.171 690.413 164.74 691.277 164.32C694.032 162.977 696.84 161.847 699.663 160.817L699.124 158.089C661.504 179.868 623.564 200.545 585.757 221.679C575.078 227.648 564.413 233.666 553.761 239.733L554.301 242.461C557.541 240.559 560.784 238.665 564.029 236.779C564.942 236.11 565.899 235.566 566.887 235.155L565.9 232.791C566.271 232.334 565.16 233.153 564.915 233.3C563.992 233.85 563.068 234.394 562.141 234.931C559.355 236.556 556.562 238.157 553.761 239.733L554.301 242.461C576.621 229.371 599.199 217.187 622.035 205.91C645.091 194.512 668.362 184.009 691.847 174.401C705.254 168.906 718.719 163.695 732.241 158.767C732.493 158.657 732.704 158.415 732.83 158.093C732.956 157.771 732.987 157.393 732.917 157.039C732.847 156.686 732.681 156.384 732.454 156.197C732.228 156.01 731.958 155.954 731.702 156.039C709.777 164.023 688.835 176.216 668.578 190.254C647.123 205.122 626.382 221.905 604.881 236.648C593.31 244.582 580.119 244.363 568.097 250.371L568.879 252.956C578.225 245.698 588.296 240.788 598.488 236.406C608.913 231.925 619.308 227.574 629.492 222.093C650.643 210.711 672.068 200.34 693.616 190.521C705.887 184.93 718.194 179.495 730.537 174.217L729.755 171.632C726.963 173.536 724.159 175.45 721.274 177.069C720.634 177.321 720.009 177.641 719.404 178.025C719.203 178.196 719.108 178.16 719.111 178.149C718.965 178.646 719.808 180.318 719.829 180.316C720.171 180.288 720.806 179.534 721.117 179.315C721.828 178.814 722.555 178.355 723.286 177.915C725.657 176.514 728.077 175.28 730.537 174.217L729.755 171.632C694.973 195.435 660.333 219.702 625.393 243.053C616.198 249.199 605.586 248.266 596.365 254.401L597.389 256.844C617.108 241.442 639.396 234.357 659.975 221.655C681.817 208.174 704.06 196.067 726.705 185.333C739.577 179.209 752.547 173.51 765.616 168.237L765.077 165.509L709.423 197.413C691.234 207.84 673.11 218.531 654.846 228.699C644.994 234.184 634.025 232.256 624.168 237.732C622.972 238.396 623.483 241.123 624.707 240.46C644.43 229.775 665.819 227.707 685.956 218.988C707.214 209.784 728.599 201.138 749.996 192.589C762.066 187.766 774.143 182.978 786.228 178.225C786.479 178.115 786.69 177.874 786.815 177.552C786.941 177.229 786.973 176.852 786.903 176.498C786.833 176.144 786.667 175.842 786.44 175.656C786.214 175.469 785.944 175.412 785.688 175.497C782.312 176.558 778.934 177.619 775.574 178.778C774.716 179.073 773.188 179.229 772.5 180.144C772.315 180.413 772.211 180.771 772.211 181.144C772.211 181.517 772.315 181.875 772.5 182.145C773.236 183.331 775.917 181.862 776.737 181.599C779.919 180.581 783.081 179.441 786.228 178.225C786.479 178.115 786.69 177.874 786.815 177.552C786.941 177.229 786.973 176.852 786.903 176.498C786.833 176.144 786.667 175.842 786.44 175.656C786.214 175.469 785.944 175.412 785.688 175.497C745.586 188.443 708.91 214.126 671.807 238.14C669.2 239.827 666.588 241.503 663.972 243.167C661.057 245.019 658.309 246.804 655.083 247.267C649.455 248.075 643.914 246.645 638.372 248.861L639.154 251.447C642.276 249.36 645.401 247.278 648.556 245.289C649.3 244.819 650.044 244.342 650.799 243.909C651.021 243.827 651.235 243.709 651.436 243.556C652.035 242.882 651.72 245.407 650.655 242.776L650.655 241.348C650.883 240.743 650.959 241.044 650.578 241.247C650.277 241.442 649.983 241.659 649.699 241.896C648.75 242.576 647.786 243.215 646.819 243.844C644.045 245.649 641.23 247.332 638.372 248.861L639.154 251.447C661.942 236.298 687.209 230.541 710.987 219.234C735.762 207.488 760.964 197.571 786.489 189.525C801.182 184.875 815.963 180.817 830.831 177.35C831.971 177.083 831.686 174.545 830.561 174.571C812.056 175.012 793.86 181.176 776.607 190.262C758.218 199.945 740.348 211.694 722.45 222.985C712.213 229.443 701.967 235.872 691.643 242.054C690.58 242.691 691.34 245.092 692.425 244.64C697.399 242.566 702.38 240.502 707.305 238.213C708.218 237.789 711.312 237.055 711.303 235.122C711.292 232.675 708.636 234.088 707.765 234.408C705.375 235.283 703.008 236.295 700.659 237.362C697.598 238.711 694.589 240.277 691.643 242.054C690.583 242.709 691.339 245.086 692.425 244.64C727.282 230.326 762.071 215.681 796.691 200.286C806.428 195.956 816.15 191.565 825.858 187.113C826.109 187.002 826.319 186.761 826.445 186.439C826.571 186.117 826.602 185.739 826.532 185.386C826.462 185.032 826.297 184.73 826.07 184.544C825.844 184.357 825.574 184.3 825.318 184.384C822.135 185.177 818.879 185.868 815.762 187.098C814.872 187.449 812.989 188.917 814.575 190.231C815.486 190.985 817.33 190.094 818.256 189.845C820.826 189.139 823.364 188.227 825.858 187.113C826.109 187.002 826.319 186.761 826.445 186.439C826.571 186.117 826.602 185.739 826.532 185.386C826.462 185.032 826.297 184.73 826.07 184.544C825.844 184.357 825.574 184.3 825.318 184.384C791.553 192.786 758.392 206.669 727.335 227.066C718.637 232.779 710.134 239.026 701.828 245.807C701.678 245.934 701.553 246.114 701.467 246.328C701.381 246.541 701.335 246.783 701.335 247.028C701.335 247.274 701.381 247.515 701.467 247.729C701.553 247.943 701.678 248.122 701.828 248.25C705.306 251.165 709.568 249.947 713.254 248.543C718.007 246.731 722.68 244.5 727.41 242.569C732.572 240.461 737.748 238.495 742.835 236.052C747.784 233.675 752.723 231.264 757.653 228.816C777.224 219.148 796.758 209.247 816.744 201.336C828.372 196.691 840.161 192.866 852.066 189.875L851.526 187.147C846.965 188.72 842.402 190.291 837.825 191.772C836.786 192.108 835.746 192.445 834.702 192.75C834.399 192.79 834.1 192.874 833.809 192.999C833.338 193.307 834.09 192.352 834.519 193.715L834.36 195.429C834.044 195.948 834.088 195.658 834.622 195.449C835.074 195.272 835.525 195.092 835.978 194.922C837.514 194.346 839.058 193.811 840.604 193.29C844.4 192.01 848.217 190.808 852.066 189.875L851.526 187.147C818.025 198.714 784.309 210.187 752.132 227.845C743.173 232.762 734.356 238.181 725.767 244.253C724.726 244.989 725.456 247.246 726.549 246.838L830.433 208.128L859.288 197.376L858.748 194.648L775.871 228.542L752.964 237.91C751.915 238.339 752.059 240.903 753.233 240.688C778.711 236.073 803.971 229.371 828.883 220.619C836.105 218.067 843.291 215.332 850.443 212.414C850.694 212.305 850.905 212.063 851.031 211.741C851.157 211.419 851.188 211.041 851.118 210.687C851.048 210.333 850.882 210.031 850.656 209.845C850.429 209.658 850.159 209.601 849.903 209.686C824.334 220.067 799.059 231.729 774.078 244.673C773.827 244.783 773.616 245.024 773.491 245.347C773.365 245.669 773.334 246.046 773.404 246.4C773.473 246.753 773.639 247.055 773.865 247.242C774.092 247.428 774.361 247.485 774.617 247.401C788.803 243.433 802.988 239.458 817.109 235.059C818.383 234.662 817.844 231.934 816.569 232.331C802.449 236.73 788.263 240.705 774.078 244.673L774.617 247.401C799.572 234.433 824.847 222.771 850.443 212.414L849.903 209.686C825.46 219.617 800.611 227.49 775.489 233.261C768.09 234.969 760.671 236.501 753.233 237.859L753.503 240.638L835.856 206.958L859.288 197.376C859.539 197.266 859.75 197.025 859.876 196.702C860.002 196.38 860.033 196.002 859.963 195.649C859.893 195.295 859.728 194.993 859.501 194.806C859.274 194.619 859.004 194.563 858.748 194.648L755.44 233.144L726.01 244.111L726.792 246.696C757.272 225.147 790.393 211.817 823.362 199.932C832.913 196.489 842.49 193.181 852.066 189.875C853.353 189.43 852.792 186.84 851.526 187.147C847.508 188.121 843.523 189.385 839.561 190.733C838.051 191.246 836.542 191.771 835.043 192.344C834.467 192.563 833.342 192.741 832.924 193.429C832.774 193.657 832.678 193.944 832.65 194.251C832.622 194.558 832.662 194.869 832.766 195.143C833.281 196.782 836.432 195.117 837.188 194.877C842.162 193.299 847.114 191.583 852.066 189.875C853.352 189.431 852.793 186.833 851.526 187.147C831.255 192.172 811.452 200.05 791.94 209.127C782.412 213.56 772.947 218.247 763.484 222.935C753.596 227.833 743.741 233.108 733.648 237.117C728.016 239.354 722.391 241.628 716.813 244.111C712.682 245.949 706.934 249.228 702.853 245.807L702.853 248.25C732.07 224.358 764.005 207.271 796.815 195.775C806.42 192.409 816.1 189.522 825.858 187.113L825.318 184.384C823.345 185.255 821.348 186.018 819.327 186.647C818.255 186.981 816.545 186.919 815.575 187.591C815.505 187.639 815.233 187.541 815.189 187.613C815.135 187.699 815.83 190.344 815.528 190.16C815.574 190.187 815.688 190.046 815.74 190.055C816.307 189.954 816.862 189.749 817.391 189.444C820.189 188.52 823.028 187.817 825.858 187.113L825.318 184.384C790.943 200.154 756.374 215.092 721.708 229.568C711.774 233.716 701.833 237.831 691.885 241.912L692.668 244.497C697.061 241.89 701.577 239.704 706.184 237.954C707.022 237.618 707.862 237.289 708.707 236.989C709.245 236.93 709.774 236.763 710.277 236.493C709.977 236.854 710.027 234.217 709.662 234.026C709.534 233.959 709.405 234.23 709.247 234.274C708.358 234.625 707.486 235.05 706.634 235.546C701.75 237.808 696.815 239.857 691.885 241.912L692.668 244.497C710.607 233.756 728.298 222.235 746.148 211.211C763.278 200.631 780.518 189.885 798.745 183.498C809.148 179.775 819.823 177.729 830.561 177.4L830.291 174.622C803.863 180.783 777.68 188.832 751.845 198.738C739.26 203.579 726.772 208.884 714.383 214.652C702.214 220.328 689.982 225.329 677.599 230.02C664.144 235.117 650.748 240.615 638.13 249.004C637.105 249.685 637.834 252.166 638.912 251.589C641.847 250.018 644.74 248.295 647.592 246.45C648.935 245.581 651.017 244.744 652.093 243.249C652.761 242.32 652.621 240.72 651.511 240.634C650.925 240.737 650.359 241.005 649.849 241.422C645.885 243.757 642.01 246.41 638.13 249.004C637.083 249.704 637.822 252.025 638.912 251.589C644.065 249.528 649.213 250.741 654.458 250.173C659.505 249.626 663.799 246.386 668.324 243.486C677.728 237.459 687.073 231.258 696.442 225.128C714.785 213.129 733.26 201.432 752.386 192.032C763.474 186.557 774.772 181.948 786.228 178.225L785.688 175.497C782.809 176.61 779.916 177.656 777.007 178.609C776.089 178.91 775.169 179.206 774.245 179.473C773.959 179.51 773.677 179.588 773.403 179.705C773.007 179.967 773.406 179.291 773.935 180.144L773.935 182.144C773.435 182.809 773.876 182.314 774.39 182.118C775.169 181.821 775.955 181.558 776.739 181.292C779.893 180.22 783.06 179.22 786.228 178.225L785.688 175.497C764.292 183.944 742.897 192.398 721.559 201.129C710.88 205.499 700.219 209.949 689.574 214.48C679.333 218.817 668.939 222.423 658.433 225.281C646.834 228.482 635.224 231.742 624.168 237.732L624.707 240.46C633.481 235.586 643.063 236.769 652.028 233.071C656.631 231.172 661.058 228.175 665.493 225.633L679.642 217.522L734.393 186.136L765.616 168.237C766.787 167.566 766.369 164.987 765.077 165.509C741.766 174.941 718.764 185.711 696.071 197.821C685.193 203.653 674.409 209.811 663.719 216.293C652.931 222.838 642.057 228.658 630.949 234.06C619.114 239.816 607.33 245.837 596.365 254.401C595.211 255.302 596.225 257.619 597.389 256.844C605.678 251.33 615.092 251.841 623.574 247.229C627.911 244.87 632.05 241.641 636.226 238.783L649.303 229.834L701.129 194.366L730.779 174.074C731.81 173.368 731.089 171.007 729.997 171.489C727.07 172.753 724.199 174.26 721.402 176.003C720.498 176.576 718.323 177.515 718.021 179.106C717.514 181.78 720.065 180.724 720.89 180.299C724.26 178.458 727.56 176.38 730.779 174.074C731.814 173.368 731.089 171.019 729.997 171.489C707.89 180.994 685.855 190.836 664.011 201.459C653.138 206.747 642.322 212.25 631.561 217.968C621.404 223.388 611.158 228.072 600.754 232.482C589.451 237.273 578.214 242.468 567.854 250.513C566.872 251.276 567.534 253.65 568.636 253.099C579.172 247.834 590.606 247.567 601.071 242.054C606.449 239.221 611.554 235.187 616.654 231.515C621.969 227.689 627.251 223.779 632.525 219.847C653.084 204.516 673.567 188.839 695.125 176.352C707.191 169.304 719.593 163.429 732.241 158.767L731.702 156.039C707.854 164.744 684.182 174.321 660.687 184.769C637.483 195.113 614.498 206.348 591.73 218.475C578.991 225.271 566.335 232.357 553.761 239.733C552.582 240.424 553.081 243.147 554.301 242.461C557.27 240.792 560.23 239.094 563.181 237.367C564.415 236.646 566.308 236.057 567.335 234.792C568.158 233.778 567.261 232.189 566.348 232.427C565.359 232.838 564.402 233.382 563.489 234.051C560.242 235.93 556.999 237.824 553.761 239.733C552.58 240.426 553.086 243.154 554.301 242.461C592.041 220.924 630.038 200.281 667.844 178.975C678.47 172.987 689.076 166.934 699.663 160.817C700.833 160.14 700.428 157.613 699.124 158.089C695.827 159.249 692.576 160.646 689.383 162.273C688.467 162.753 686.069 163.504 685.765 165.133C685.259 167.851 687.991 166.735 688.827 166.389C692.512 164.86 696.1 162.812 699.663 160.817C699.914 160.707 700.124 160.465 700.25 160.143C700.376 159.821 700.407 159.444 700.337 159.09C700.267 158.737 700.102 158.435 699.875 158.249C699.649 158.062 699.379 158.005 699.124 158.089C671.424 167.793 643.795 177.907 616.335 188.859C591.963 198.578 567.646 208.787 543.7 220.399C530.28 226.906 517.017 234.009 503.866 241.503C502.694 242.171 503.124 244.783 504.406 244.231C522.453 236.459 540.499 228.689 558.348 220.056C570.256 214.297 582.074 208.152 593.692 201.333C604.043 195.256 614.096 188.338 624.282 181.757C636.157 174.085 648.35 167.443 661.255 164.048L660.715 161.321C657.869 162.275 655.009 163.147 652.135 163.936C651.199 164.192 650.261 164.442 649.32 164.662C649.023 164.683 648.729 164.748 648.442 164.857C648.345 164.917 648.03 164.658 648.714 165.062L649.181 166.66C649.005 167.25 648.23 167.42 648.752 167.512C648.946 167.483 649.137 167.418 649.32 167.319C650.093 167.063 650.873 166.847 651.651 166.625C654.845 165.714 658.05 164.879 661.255 164.048L660.715 161.321C640.127 167.725 619.773 175.476 599.52 183.67C579.348 191.831 559.221 200.202 539.258 209.31C528.056 214.422 516.897 219.714 505.782 225.187C505.531 225.297 505.32 225.539 505.195 225.861C505.069 226.183 505.037 226.56 505.107 226.914C505.177 227.268 505.343 227.57 505.57 227.756C505.796 227.943 506.066 228 506.322 227.915C545.491 213.834 581.368 186.869 619.995 170.555C630.711 165.979 641.634 162.406 652.692 159.861L652.152 157.133L545.583 189.176L515.61 198.189L516.149 200.917L604.524 167.084C604.775 166.974 604.986 166.732 605.112 166.41C605.238 166.088 605.269 165.71 605.199 165.357C605.129 165.003 604.963 164.701 604.737 164.514C604.51 164.327 604.24 164.271 603.984 164.356L516.607 193.467L491.711 201.761L492.251 204.489L570.018 165.973C570.269 165.863 570.48 165.621 570.606 165.299C570.731 164.977 570.763 164.6 570.693 164.246C570.623 163.892 570.457 163.591 570.231 163.404C570.004 163.217 569.734 163.16 569.478 163.245L500.602 186.94C500.35 187.05 500.14 187.292 500.014 187.614C499.888 187.936 499.856 188.314 499.926 188.667C499.996 189.021 500.162 189.323 500.389 189.51C500.615 189.697 500.885 189.753 501.141 189.668Z"
    fill="#FFC424" />
  <path
    d="M519.068 115.636C519.068 120.998 518.037 125.542 515.975 129.27C513.913 132.997 511.121 135.828 507.6 137.763C504.094 139.699 500.16 140.666 495.798 140.666C491.421 140.666 487.479 139.691 483.974 137.74C480.468 135.789 477.684 132.957 475.622 129.246C473.576 125.518 472.553 120.982 472.553 115.636C472.553 110.275 473.576 105.731 475.622 102.003C477.684 98.2757 480.468 95.4444 483.974 93.5092C487.479 91.5741 491.421 90.6065 495.798 90.6065C500.16 90.6065 504.094 91.5741 507.6 93.5092C511.121 95.4444 513.913 98.2757 515.975 102.003C518.037 105.731 519.068 110.275 519.068 115.636ZM507.029 115.636C507.029 112.464 506.577 109.783 505.672 107.594C504.784 105.406 503.499 103.748 501.818 102.622C500.153 101.496 498.146 100.933 495.798 100.933C493.467 100.933 491.46 101.496 489.779 102.622C488.098 103.748 486.805 105.406 485.901 107.594C485.012 109.783 484.568 112.464 484.568 115.636C484.568 118.809 485.012 121.489 485.901 123.678C486.805 125.867 488.098 127.525 489.779 128.651C491.46 129.777 493.467 130.34 495.798 130.34C498.146 130.34 500.153 129.777 501.818 128.651C503.499 127.525 504.784 125.867 505.672 123.678C506.577 121.489 507.029 118.809 507.029 115.636ZM555.423 91.2727H567.176V122.703C567.176 126.335 566.312 129.5 564.583 132.196C562.854 134.877 560.443 136.955 557.35 138.43C554.257 139.889 550.664 140.619 546.572 140.619C542.432 140.619 538.816 139.889 535.722 138.43C532.629 136.955 530.226 134.877 528.513 132.196C526.8 129.5 525.944 126.335 525.944 122.703V91.2727H537.721V121.68C537.721 123.361 538.086 124.86 538.816 126.176C539.561 127.493 540.6 128.524 541.932 129.27C543.265 130.015 544.811 130.388 546.572 130.388C548.333 130.388 549.871 130.015 551.188 129.27C552.52 128.524 553.559 127.493 554.305 126.176C555.05 124.86 555.423 123.361 555.423 121.68V91.2727ZM574.558 140V91.2727H594.687C598.335 91.2727 601.483 91.931 604.132 93.2475C606.797 94.5482 608.851 96.4199 610.294 98.8626C611.738 101.289 612.46 104.168 612.46 107.499C612.46 110.878 611.722 113.749 610.247 116.112C608.772 118.46 606.678 120.252 603.966 121.489C601.253 122.711 598.041 123.321 594.33 123.321H581.601V114.042H592.141C593.917 114.042 595.4 113.812 596.59 113.352C597.795 112.876 598.707 112.163 599.326 111.211C599.945 110.243 600.254 109.006 600.254 107.499C600.254 105.992 599.945 104.747 599.326 103.764C598.707 102.765 597.795 102.019 596.59 101.527C595.384 101.02 593.901 100.766 592.141 100.766H586.335V140H574.558ZM601.991 117.73L614.125 140H601.277L589.381 117.73H601.991ZM665.291 107.19C665.021 106.191 664.625 105.31 664.101 104.549C663.578 103.772 662.936 103.114 662.174 102.574C661.413 102.035 660.541 101.63 659.557 101.361C658.574 101.075 657.495 100.933 656.321 100.933C653.958 100.933 651.912 101.504 650.183 102.646C648.47 103.788 647.145 105.453 646.209 107.642C645.274 109.815 644.806 112.456 644.806 115.565C644.806 118.69 645.258 121.355 646.162 123.559C647.066 125.764 648.375 127.445 650.088 128.603C651.801 129.761 653.879 130.34 656.321 130.34C658.478 130.34 660.303 129.991 661.794 129.293C663.3 128.58 664.443 127.572 665.22 126.272C665.997 124.971 666.386 123.44 666.386 121.68L668.574 121.941H656.726V113.352H677.735V119.8C677.735 124.162 676.807 127.897 674.951 131.006C673.111 134.115 670.573 136.502 667.337 138.168C664.117 139.833 660.414 140.666 656.226 140.666C651.579 140.666 647.494 139.659 643.973 137.645C640.452 135.63 637.708 132.759 635.741 129.032C633.774 125.288 632.79 120.847 632.79 115.708C632.79 111.711 633.385 108.165 634.575 105.072C635.764 101.964 637.422 99.3305 639.547 97.1733C641.689 95.0161 644.163 93.3823 646.971 92.272C649.794 91.1617 652.832 90.6065 656.083 90.6065C658.907 90.6065 661.532 91.011 663.959 91.82C666.401 92.6289 668.559 93.771 670.43 95.2461C672.318 96.7212 673.849 98.474 675.022 100.504C676.196 102.535 676.926 104.763 677.211 107.19H665.291ZM730.667 115.636C730.667 120.998 729.636 125.542 727.574 129.27C725.512 132.997 722.721 135.828 719.199 137.763C715.694 139.699 711.76 140.666 707.398 140.666C703.02 140.666 699.079 139.691 695.573 137.74C692.068 135.789 689.284 132.957 687.222 129.246C685.176 125.518 684.153 120.982 684.153 115.636C684.153 110.275 685.176 105.731 687.222 102.003C689.284 98.2757 692.068 95.4444 695.573 93.5092C699.079 91.5741 703.02 90.6065 707.398 90.6065C711.76 90.6065 715.694 91.5741 719.199 93.5092C722.721 95.4444 725.512 98.2757 727.574 102.003C729.636 105.731 730.667 110.275 730.667 115.636ZM718.628 115.636C718.628 112.464 718.176 109.783 717.272 107.594C716.384 105.406 715.099 103.748 713.418 102.622C711.752 101.496 709.746 100.933 707.398 100.933C705.066 100.933 703.06 101.496 701.379 102.622C699.697 103.748 698.404 105.406 697.5 107.594C696.612 109.783 696.168 112.464 696.168 115.636C696.168 118.809 696.612 121.489 697.5 123.678C698.404 125.867 699.697 127.525 701.379 128.651C703.06 129.777 705.066 130.34 707.398 130.34C709.746 130.34 711.752 129.777 713.418 128.651C715.099 127.525 716.384 125.867 717.272 123.678C718.176 121.489 718.628 118.809 718.628 115.636ZM737.543 140V91.2727H757.672C761.32 91.2727 764.469 91.931 767.118 93.2475C769.782 94.5482 771.836 96.4199 773.28 98.8626C774.723 101.289 775.445 104.168 775.445 107.499C775.445 110.878 774.707 113.749 773.232 116.112C771.757 118.46 769.663 120.252 766.951 121.489C764.239 122.711 761.027 123.321 757.315 123.321H744.586V114.042H755.126C756.903 114.042 758.386 113.812 759.575 113.352C760.781 112.876 761.693 112.163 762.311 111.211C762.93 110.243 763.239 109.006 763.239 107.499C763.239 105.992 762.93 104.747 762.311 103.764C761.693 102.765 760.781 102.019 759.575 101.527C758.37 101.02 756.887 100.766 755.126 100.766H749.321V140H737.543ZM764.976 117.73L777.11 140H764.262L752.366 117.73H764.976ZM813.882 107.19C813.612 106.191 813.216 105.31 812.692 104.549C812.169 103.772 811.526 103.114 810.765 102.574C810.004 102.035 809.131 101.63 808.148 101.361C807.164 101.075 806.086 100.933 804.912 100.933C802.549 100.933 800.503 101.504 798.774 102.646C797.061 103.788 795.736 105.453 794.8 107.642C793.864 109.815 793.396 112.456 793.396 115.565C793.396 118.69 793.849 121.355 794.753 123.559C795.657 125.764 796.965 127.445 798.678 128.603C800.392 129.761 802.469 130.34 804.912 130.34C807.069 130.34 808.893 129.991 810.384 129.293C811.891 128.58 813.033 127.572 813.811 126.272C814.588 124.971 814.976 123.44 814.976 121.68L817.165 121.941H805.317V113.352H826.325V119.8C826.325 124.162 825.398 127.897 823.542 131.006C821.702 134.115 819.164 136.502 815.928 138.168C812.708 139.833 809.004 140.666 804.817 140.666C800.169 140.666 796.085 139.659 792.564 137.645C789.042 135.63 786.298 132.759 784.331 129.032C782.365 125.288 781.381 120.847 781.381 115.708C781.381 111.711 781.976 108.165 783.166 105.072C784.355 101.964 786.013 99.3305 788.138 97.1733C790.28 95.0161 792.754 93.3823 795.562 92.272C798.385 91.1617 801.423 90.6065 804.674 90.6065C807.498 90.6065 810.123 91.011 812.55 91.82C814.992 92.6289 817.149 93.771 819.021 95.2461C820.909 96.7212 822.439 98.474 823.613 100.504C824.787 102.535 825.517 104.763 825.802 107.19H813.882ZM833.267 140V91.2727H867.243V100.837H845.044V110.83H865.506V120.419H845.044V130.435H867.243V140H833.267ZM920.61 115.636C920.61 120.998 919.579 125.542 917.517 129.27C915.455 132.997 912.663 135.828 909.142 137.763C905.636 139.699 901.702 140.666 897.34 140.666C892.963 140.666 889.021 139.691 885.516 137.74C882.01 135.789 879.226 132.957 877.164 129.246C875.118 125.518 874.095 120.982 874.095 115.636C874.095 110.275 875.118 105.731 877.164 102.003C879.226 98.2757 882.01 95.4444 885.516 93.5092C889.021 91.5741 892.963 90.6065 897.34 90.6065C901.702 90.6065 905.636 91.5741 909.142 93.5092C912.663 95.4444 915.455 98.2757 917.517 102.003C919.579 105.731 920.61 110.275 920.61 115.636ZM908.571 115.636C908.571 112.464 908.119 109.783 907.214 107.594C906.326 105.406 905.041 103.748 903.36 102.622C901.695 101.496 899.688 100.933 897.34 100.933C895.009 100.933 893.002 101.496 891.321 102.622C889.64 103.748 888.347 105.406 887.443 107.594C886.554 109.783 886.11 112.464 886.11 115.636C886.11 118.809 886.554 121.489 887.443 123.678C888.347 125.867 889.64 127.525 891.321 128.651C893.002 129.777 895.009 130.34 897.34 130.34C899.688 130.34 901.695 129.777 903.36 128.651C905.041 127.525 906.326 125.867 907.214 123.678C908.119 121.489 908.571 118.809 908.571 115.636ZM956.965 91.2727H968.718V122.703C968.718 126.335 967.854 129.5 966.125 132.196C964.396 134.877 961.985 136.955 958.892 138.43C955.799 139.889 952.206 140.619 948.114 140.619C943.974 140.619 940.358 139.889 937.264 138.43C934.171 136.955 931.768 134.877 930.055 132.196C928.342 129.5 927.486 126.335 927.486 122.703V91.2727H939.263V121.68C939.263 123.361 939.628 124.86 940.358 126.176C941.103 127.493 942.142 128.524 943.474 129.27C944.807 130.015 946.353 130.388 948.114 130.388C949.875 130.388 951.413 130.015 952.73 129.27C954.062 128.524 955.101 127.493 955.847 126.176C956.592 124.86 956.965 123.361 956.965 121.68V91.2727ZM1002.44 105.881C1002.28 104.137 1001.57 102.78 1000.32 101.813C999.084 100.829 997.315 100.338 995.015 100.338C993.492 100.338 992.223 100.536 991.208 100.933C990.193 101.329 989.432 101.876 988.924 102.574C988.417 103.256 988.155 104.041 988.139 104.93C988.107 105.659 988.25 106.302 988.567 106.857C988.9 107.412 989.376 107.904 989.995 108.332C990.629 108.744 991.391 109.109 992.279 109.426C993.167 109.744 994.166 110.021 995.277 110.259L999.464 111.211C1001.88 111.734 1004 112.432 1005.84 113.305C1007.7 114.177 1009.25 115.216 1010.5 116.422C1011.77 117.627 1012.73 119.015 1013.38 120.585C1014.03 122.156 1014.37 123.916 1014.38 125.867C1014.37 128.944 1013.59 131.585 1012.05 133.79C1010.51 135.995 1008.3 137.684 1005.41 138.858C1002.54 140.032 999.076 140.619 995.015 140.619C990.939 140.619 987.386 140.008 984.356 138.787C981.326 137.565 978.971 135.709 977.29 133.219C975.608 130.729 974.744 127.58 974.696 123.773H985.974C986.069 125.344 986.489 126.652 987.235 127.699C987.98 128.746 989.003 129.539 990.304 130.078C991.621 130.618 993.143 130.887 994.872 130.887C996.459 130.887 997.807 130.673 998.917 130.245C1000.04 129.817 1000.91 129.222 1001.51 128.461C1002.11 127.699 1002.42 126.827 1002.44 125.843C1002.42 124.923 1002.14 124.138 1001.58 123.488C1001.03 122.822 1000.17 122.251 999.012 121.775C997.87 121.283 996.411 120.831 994.634 120.419L989.543 119.229C985.324 118.261 982.001 116.699 979.574 114.542C977.147 112.369 975.941 109.434 975.957 105.739C975.941 102.725 976.75 100.084 978.384 97.8157C980.018 95.5475 982.278 93.7789 985.165 92.5099C988.052 91.241 991.343 90.6065 995.039 90.6065C998.814 90.6065 1002.09 91.2489 1004.87 92.5337C1007.66 93.8027 1009.82 95.5871 1011.36 97.8871C1012.9 100.187 1013.68 102.852 1013.72 105.881H1002.44ZM1078.96 108.927H1067.06C1066.9 107.705 1066.58 106.603 1066.08 105.62C1065.59 104.636 1064.94 103.796 1064.13 103.098C1063.32 102.4 1062.36 101.868 1061.25 101.504C1060.16 101.123 1058.95 100.933 1057.61 100.933C1055.25 100.933 1053.21 101.511 1051.5 102.669C1049.8 103.827 1048.49 105.501 1047.57 107.69C1046.67 109.879 1046.22 112.527 1046.22 115.636C1046.22 118.872 1046.68 121.585 1047.6 123.773C1048.53 125.946 1049.84 127.588 1051.52 128.699C1053.22 129.793 1055.23 130.34 1057.54 130.34C1058.84 130.34 1060.02 130.174 1061.09 129.841C1062.17 129.507 1063.11 129.024 1063.92 128.389C1064.74 127.739 1065.42 126.954 1065.94 126.034C1066.48 125.098 1066.85 124.043 1067.06 122.869L1078.96 122.941C1078.75 125.098 1078.12 127.223 1077.08 129.317C1076.04 131.411 1074.63 133.322 1072.82 135.051C1071.01 136.764 1068.8 138.128 1066.2 139.143C1063.62 140.159 1060.65 140.666 1057.3 140.666C1052.89 140.666 1048.95 139.699 1045.46 137.763C1041.98 135.812 1039.24 132.973 1037.22 129.246C1035.21 125.518 1034.2 120.982 1034.2 115.636C1034.2 110.275 1035.22 105.731 1037.27 102.003C1039.32 98.2757 1042.08 95.4444 1045.57 93.5092C1049.06 91.5741 1052.97 90.6065 1057.3 90.6065C1060.25 90.6065 1062.98 91.0189 1065.49 91.8438C1067.99 92.6527 1070.2 93.8423 1072.1 95.4126C1074.01 96.9671 1075.55 98.8784 1076.74 101.147C1077.93 103.415 1078.67 106.008 1078.96 108.927ZM1115.17 91.2727H1126.93V122.703C1126.93 126.335 1126.06 129.5 1124.33 132.196C1122.6 134.877 1120.19 136.955 1117.1 138.43C1114.01 139.889 1110.42 140.619 1106.32 140.619C1102.18 140.619 1098.57 139.889 1095.47 138.43C1092.38 136.955 1089.98 134.877 1088.26 132.196C1086.55 129.5 1085.69 126.335 1085.69 122.703V91.2727H1097.47V121.68C1097.47 123.361 1097.84 124.86 1098.57 126.176C1099.31 127.493 1100.35 128.524 1101.68 129.27C1103.02 130.015 1104.56 130.388 1106.32 130.388C1108.08 130.388 1109.62 130.015 1110.94 129.27C1112.27 128.524 1113.31 127.493 1114.06 126.176C1114.8 124.86 1115.17 123.361 1115.17 121.68V91.2727ZM1160.65 105.881C1160.49 104.137 1159.78 102.78 1158.53 101.813C1157.29 100.829 1155.52 100.338 1153.22 100.338C1151.7 100.338 1150.43 100.536 1149.42 100.933C1148.4 101.329 1147.64 101.876 1147.13 102.574C1146.63 103.256 1146.36 104.041 1146.35 104.93C1146.32 105.659 1146.46 106.302 1146.78 106.857C1147.11 107.412 1147.59 107.904 1148.2 108.332C1148.84 108.744 1149.6 109.109 1150.49 109.426C1151.38 109.744 1152.38 110.021 1153.49 110.259L1157.67 111.211C1160.08 111.734 1162.21 112.432 1164.05 113.305C1165.91 114.177 1167.46 115.216 1168.71 116.422C1169.98 117.627 1170.94 119.015 1171.59 120.585C1172.24 122.156 1172.58 123.916 1172.59 125.867C1172.58 128.944 1171.8 131.585 1170.26 133.79C1168.72 135.995 1166.51 137.684 1163.62 138.858C1160.75 140.032 1157.28 140.619 1153.22 140.619C1149.15 140.619 1145.59 140.008 1142.56 138.787C1139.54 137.565 1137.18 135.709 1135.5 133.219C1133.82 130.729 1132.95 127.58 1132.91 123.773H1144.18C1144.28 125.344 1144.7 126.652 1145.44 127.699C1146.19 128.746 1147.21 129.539 1148.51 130.078C1149.83 130.618 1151.35 130.887 1153.08 130.887C1154.67 130.887 1156.02 130.673 1157.13 130.245C1158.25 129.817 1159.12 129.222 1159.72 128.461C1160.32 127.699 1160.63 126.827 1160.65 125.843C1160.63 124.923 1160.35 124.138 1159.79 123.488C1159.24 122.822 1158.38 122.251 1157.22 121.775C1156.08 121.283 1154.62 120.831 1152.84 120.419L1147.75 119.229C1143.53 118.261 1140.21 116.699 1137.78 114.542C1135.36 112.369 1134.15 109.434 1134.17 105.739C1134.15 102.725 1134.96 100.084 1136.59 97.8157C1138.23 95.5475 1140.49 93.7789 1143.37 92.5099C1146.26 91.241 1149.55 90.6065 1153.25 90.6065C1157.02 90.6065 1160.3 91.2489 1163.07 92.5337C1165.87 93.8027 1168.03 95.5871 1169.57 97.8871C1171.11 100.187 1171.89 102.852 1171.93 105.881H1160.65ZM1176.95 100.837V91.2727H1218.13V100.837H1203.36V140H1191.74V100.837H1176.95ZM1267.65 115.636C1267.65 120.998 1266.62 125.542 1264.56 129.27C1262.49 132.997 1259.7 135.828 1256.18 137.763C1252.68 139.699 1248.74 140.666 1244.38 140.666C1240 140.666 1236.06 139.691 1232.55 137.74C1229.05 135.789 1226.27 132.957 1224.2 129.246C1222.16 125.518 1221.13 120.982 1221.13 115.636C1221.13 110.275 1222.16 105.731 1224.2 102.003C1226.27 98.2757 1229.05 95.4444 1232.55 93.5092C1236.06 91.5741 1240 90.6065 1244.38 90.6065C1248.74 90.6065 1252.68 91.5741 1256.18 93.5092C1259.7 95.4444 1262.49 98.2757 1264.56 102.003C1266.62 105.731 1267.65 110.275 1267.65 115.636ZM1255.61 115.636C1255.61 112.464 1255.16 109.783 1254.25 107.594C1253.37 105.406 1252.08 103.748 1250.4 102.622C1248.73 101.496 1246.73 100.933 1244.38 100.933C1242.05 100.933 1240.04 101.496 1238.36 102.622C1236.68 103.748 1235.39 105.406 1234.48 107.594C1233.59 109.783 1233.15 112.464 1233.15 115.636C1233.15 118.809 1233.59 121.489 1234.48 123.678C1235.39 125.867 1236.68 127.525 1238.36 128.651C1240.04 129.777 1242.05 130.34 1244.38 130.34C1246.73 130.34 1248.73 129.777 1250.4 128.651C1252.08 127.525 1253.37 125.867 1254.25 123.678C1255.16 121.489 1255.61 118.809 1255.61 115.636ZM1274.52 91.2727H1289.11L1301.48 121.442H1302.05L1314.42 91.2727H1329.01V140H1317.54V110.069H1317.14L1305.43 139.691H1298.1L1286.4 109.902H1285.99V140H1274.52V91.2727ZM1336.36 140V91.2727H1370.33V100.837H1348.13V110.83H1368.59V120.419H1348.13V130.435H1370.33V140H1336.36ZM1377.71 140V91.2727H1397.84C1401.48 91.2727 1404.63 91.931 1407.28 93.2475C1409.95 94.5482 1412 96.4199 1413.44 98.8626C1414.89 101.289 1415.61 104.168 1415.61 107.499C1415.61 110.878 1414.87 113.749 1413.4 116.112C1411.92 118.46 1409.83 120.252 1407.12 121.489C1404.4 122.711 1401.19 123.321 1397.48 123.321H1384.75V114.042H1395.29C1397.07 114.042 1398.55 113.812 1399.74 113.352C1400.94 112.876 1401.86 112.163 1402.48 111.211C1403.09 110.243 1403.4 109.006 1403.4 107.499C1403.4 105.992 1403.09 104.747 1402.48 103.764C1401.86 102.765 1400.94 102.019 1399.74 101.527C1398.53 101.02 1397.05 100.766 1395.29 100.766H1389.48V140H1377.71ZM1405.14 117.73L1417.27 140H1404.43L1392.53 117.73H1405.14ZM1448.41 105.881C1448.25 104.137 1447.54 102.78 1446.29 101.813C1445.05 100.829 1443.28 100.338 1440.98 100.338C1439.46 100.338 1438.19 100.536 1437.18 100.933C1436.16 101.329 1435.4 101.876 1434.89 102.574C1434.39 103.256 1434.12 104.041 1434.11 104.93C1434.08 105.659 1434.22 106.302 1434.54 106.857C1434.87 107.412 1435.34 107.904 1435.96 108.332C1436.6 108.744 1437.36 109.109 1438.25 109.426C1439.14 109.744 1440.14 110.021 1441.25 110.259L1445.43 111.211C1447.84 111.734 1449.97 112.432 1451.81 113.305C1453.67 114.177 1455.22 115.216 1456.47 116.422C1457.74 117.627 1458.7 119.015 1459.35 120.585C1460 122.156 1460.34 123.916 1460.35 125.867C1460.34 128.944 1459.56 131.585 1458.02 133.79C1456.48 135.995 1454.27 137.684 1451.38 138.858C1448.51 140.032 1445.04 140.619 1440.98 140.619C1436.91 140.619 1433.35 140.008 1430.32 138.787C1427.3 137.565 1424.94 135.709 1423.26 133.219C1421.58 130.729 1420.71 127.58 1420.66 123.773H1431.94C1432.04 125.344 1432.46 126.652 1433.2 127.699C1433.95 128.746 1434.97 129.539 1436.27 130.078C1437.59 130.618 1439.11 130.887 1440.84 130.887C1442.43 130.887 1443.78 130.673 1444.89 130.245C1446.01 129.817 1446.88 129.222 1447.48 128.461C1448.08 127.699 1448.39 126.827 1448.41 125.843C1448.39 124.923 1448.11 124.138 1447.55 123.488C1447 122.822 1446.14 122.251 1444.98 121.775C1443.84 121.283 1442.38 120.831 1440.6 120.419L1435.51 119.229C1431.29 118.261 1427.97 116.699 1425.54 114.542C1423.12 112.369 1421.91 109.434 1421.93 105.739C1421.91 102.725 1422.72 100.084 1424.35 97.8157C1425.99 95.5475 1428.25 93.7789 1431.13 92.5099C1434.02 91.241 1437.31 90.6065 1441.01 90.6065C1444.78 90.6065 1448.06 91.2489 1450.83 92.5337C1453.63 93.8027 1455.79 95.5871 1457.33 97.8871C1458.87 100.187 1459.65 102.852 1459.68 105.881H1448.41ZM524.144 230V181.273H544.273C547.921 181.273 551.07 181.931 553.719 183.248C556.383 184.548 558.437 186.42 559.881 188.863C561.324 191.289 562.046 194.168 562.046 197.499C562.046 200.878 561.308 203.749 559.833 206.112C558.358 208.46 556.264 210.252 553.552 211.489C550.84 212.711 547.628 213.321 543.916 213.321H531.187V204.042H541.727C543.504 204.042 544.987 203.812 546.176 203.352C547.382 202.876 548.294 202.163 548.913 201.211C549.531 200.243 549.84 199.006 549.84 197.499C549.84 195.992 549.531 194.747 548.913 193.764C548.294 192.765 547.382 192.019 546.176 191.527C544.971 191.02 543.488 190.766 541.727 190.766H535.922V230H524.144ZM551.577 207.73L563.712 230H550.864L538.967 207.73H551.577ZM614.497 205.636C614.497 210.998 613.466 215.542 611.404 219.27C609.342 222.997 606.55 225.828 603.029 227.763C599.523 229.699 595.59 230.666 591.228 230.666C586.85 230.666 582.908 229.691 579.403 227.74C575.897 225.789 573.114 222.957 571.052 219.246C569.005 215.518 567.982 210.982 567.982 205.636C567.982 200.275 569.005 195.731 571.052 192.003C573.114 188.276 575.897 185.444 579.403 183.509C582.908 181.574 586.85 180.607 591.228 180.607C595.59 180.607 599.523 181.574 603.029 183.509C606.55 185.444 609.342 188.276 611.404 192.003C613.466 195.731 614.497 200.275 614.497 205.636ZM602.458 205.636C602.458 202.464 602.006 199.783 601.102 197.594C600.213 195.406 598.929 193.748 597.247 192.622C595.582 191.496 593.575 190.933 591.228 190.933C588.896 190.933 586.889 191.496 585.208 192.622C583.527 193.748 582.234 195.406 581.33 197.594C580.442 199.783 579.998 202.464 579.998 205.636C579.998 208.809 580.442 211.489 581.33 213.678C582.234 215.867 583.527 217.525 585.208 218.651C586.889 219.777 588.896 220.34 591.228 220.34C593.575 220.34 595.582 219.777 597.247 218.651C598.929 217.525 600.213 215.867 601.102 213.678C602.006 211.489 602.458 208.809 602.458 205.636ZM665.603 198.927H653.707C653.548 197.705 653.223 196.603 652.732 195.62C652.24 194.636 651.59 193.796 650.781 193.098C649.972 192.4 649.012 191.868 647.902 191.504C646.807 191.123 645.594 190.933 644.261 190.933C641.898 190.933 639.86 191.511 638.147 192.669C636.45 193.827 635.141 195.501 634.221 197.69C633.317 199.879 632.865 202.527 632.865 205.636C632.865 208.872 633.325 211.585 634.245 213.773C635.181 215.946 636.489 217.588 638.17 218.699C639.868 219.793 641.874 220.34 644.19 220.34C645.491 220.34 646.672 220.174 647.735 219.841C648.814 219.507 649.758 219.024 650.566 218.389C651.391 217.739 652.065 216.954 652.589 216.034C653.128 215.098 653.501 214.043 653.707 212.869L665.603 212.941C665.397 215.098 664.771 217.223 663.724 219.317C662.693 221.411 661.273 223.322 659.465 225.051C657.657 226.764 655.452 228.128 652.851 229.143C650.265 230.159 647.299 230.666 643.952 230.666C639.543 230.666 635.593 229.699 632.103 227.763C628.63 225.812 625.886 222.973 623.871 219.246C621.857 215.518 620.849 210.982 620.849 205.636C620.849 200.275 621.873 195.731 623.919 192.003C625.965 188.276 628.733 185.444 632.222 183.509C635.712 181.574 639.622 180.607 643.952 180.607C646.902 180.607 649.631 181.019 652.137 181.844C654.643 182.653 656.848 183.842 658.751 185.413C660.655 186.967 662.201 188.878 663.391 191.147C664.58 193.415 665.318 196.008 665.603 198.927ZM672.343 230V181.273H684.12V201.877H684.762L700.87 181.273H714.741L697.468 203.019L715.05 230H700.965L688.831 210.847L684.12 216.795V230H672.343ZM731.164 181.273V230H719.387V181.273H731.164ZM780.028 181.273V230H770.035L750.644 201.877H750.335V230H738.557V181.273H748.693L767.87 209.348H768.274V181.273H780.028ZM819.411 197.19C819.141 196.191 818.745 195.31 818.221 194.549C817.698 193.772 817.055 193.114 816.294 192.574C815.533 192.035 814.66 191.63 813.677 191.361C812.693 191.075 811.615 190.933 810.441 190.933C808.078 190.933 806.031 191.504 804.302 192.646C802.589 193.788 801.265 195.453 800.329 197.642C799.393 199.815 798.925 202.456 798.925 205.565C798.925 208.69 799.377 211.355 800.281 213.559C801.186 215.764 802.494 217.445 804.207 218.603C805.92 219.761 807.998 220.34 810.441 220.34C812.598 220.34 814.422 219.991 815.913 219.293C817.42 218.58 818.562 217.572 819.339 216.272C820.117 214.971 820.505 213.44 820.505 211.68L822.694 211.941H810.845V203.352H831.854V209.8C831.854 214.162 830.926 217.897 829.071 221.006C827.231 224.115 824.693 226.502 821.457 228.168C818.237 229.833 814.533 230.666 810.346 230.666C805.698 230.666 801.614 229.659 798.093 227.645C794.571 225.63 791.827 222.759 789.86 219.032C787.893 215.288 786.91 210.847 786.91 205.708C786.91 201.711 787.505 198.165 788.694 195.072C789.884 191.964 791.542 189.33 793.667 187.173C795.808 185.016 798.283 183.382 801.09 182.272C803.914 181.162 806.951 180.607 810.203 180.607C813.026 180.607 815.652 181.011 818.078 181.82C820.521 182.629 822.678 183.771 824.55 185.246C826.437 186.721 827.968 188.474 829.142 190.504C830.316 192.535 831.045 194.763 831.331 197.19H819.411ZM899.181 205.636C899.181 210.998 898.15 215.542 896.088 219.27C894.026 222.997 891.235 225.828 887.713 227.763C884.208 229.699 880.274 230.666 875.912 230.666C871.534 230.666 867.593 229.691 864.087 227.74C860.582 225.789 857.798 222.957 855.736 219.246C853.69 215.518 852.667 210.982 852.667 205.636C852.667 200.275 853.69 195.731 855.736 192.003C857.798 188.276 860.582 185.444 864.087 183.509C867.593 181.574 871.534 180.607 875.912 180.607C880.274 180.607 884.208 181.574 887.713 183.509C891.235 185.444 894.026 188.276 896.088 192.003C898.15 195.731 899.181 200.275 899.181 205.636ZM887.142 205.636C887.142 202.464 886.69 199.783 885.786 197.594C884.898 195.406 883.613 193.748 881.932 192.622C880.266 191.496 878.26 190.933 875.912 190.933C873.581 190.933 871.574 191.496 869.893 192.622C868.211 193.748 866.919 195.406 866.015 197.594C865.126 199.783 864.682 202.464 864.682 205.636C864.682 208.809 865.126 211.489 866.015 213.678C866.919 215.867 868.211 217.525 869.893 218.651C871.574 219.777 873.581 220.34 875.912 220.34C878.26 220.34 880.266 219.777 881.932 218.651C883.613 217.525 884.898 215.867 885.786 213.678C886.69 211.489 887.142 208.809 887.142 205.636ZM935.537 181.273H947.29V212.703C947.29 216.335 946.426 219.5 944.697 222.196C942.968 224.877 940.557 226.955 937.464 228.43C934.371 229.889 930.778 230.619 926.686 230.619C922.546 230.619 918.929 229.889 915.836 228.43C912.743 226.955 910.34 224.877 908.627 222.196C906.914 219.5 906.057 216.335 906.057 212.703V181.273H917.835V211.68C917.835 213.361 918.2 214.86 918.929 216.176C919.675 217.493 920.714 218.524 922.046 219.27C923.379 220.015 924.925 220.388 926.686 220.388C928.446 220.388 929.985 220.015 931.301 219.27C932.634 218.524 933.673 217.493 934.418 216.176C935.164 214.86 935.537 213.361 935.537 211.68V181.273ZM954.672 230V181.273H974.8C978.448 181.273 981.597 181.931 984.246 183.248C986.911 184.548 988.965 186.42 990.408 188.863C991.852 191.289 992.573 194.168 992.573 197.499C992.573 200.878 991.836 203.749 990.361 206.112C988.886 208.46 986.792 210.252 984.079 211.489C981.367 212.711 978.155 213.321 974.443 213.321H961.714V204.042H972.254C974.031 204.042 975.514 203.812 976.704 203.352C977.909 202.876 978.821 202.163 979.44 201.211C980.058 200.243 980.368 199.006 980.368 197.499C980.368 195.992 980.058 194.747 979.44 193.764C978.821 192.765 977.909 192.019 976.704 191.527C975.498 191.02 974.015 190.766 972.254 190.766H966.449V230H954.672ZM982.105 207.73L994.239 230H981.391L969.495 207.73H982.105ZM1013.43 230V181.273H1033.56C1037.2 181.273 1040.35 181.987 1043 183.414C1045.67 184.826 1047.72 186.801 1049.16 189.338C1050.61 191.86 1051.33 194.795 1051.33 198.142C1051.33 201.504 1050.59 204.447 1049.12 206.969C1047.66 209.475 1045.57 211.418 1042.86 212.798C1040.15 214.178 1036.93 214.868 1033.2 214.868H1020.78V205.589H1031.01C1032.79 205.589 1034.27 205.279 1035.46 204.661C1036.67 204.042 1037.58 203.178 1038.2 202.067C1038.81 200.941 1039.12 199.633 1039.12 198.142C1039.12 196.635 1038.81 195.334 1038.2 194.24C1037.58 193.129 1036.67 192.273 1035.46 191.67C1034.25 191.067 1032.77 190.766 1031.01 190.766H1025.2V230H1013.43ZM1057.13 230V181.273H1077.26C1080.91 181.273 1084.06 181.931 1086.71 183.248C1089.37 184.548 1091.43 186.42 1092.87 188.863C1094.31 191.289 1095.04 194.168 1095.04 197.499C1095.04 200.878 1094.3 203.749 1092.82 206.112C1091.35 208.46 1089.25 210.252 1086.54 211.489C1083.83 212.711 1080.62 213.321 1076.91 213.321H1064.18V204.042H1074.72C1076.49 204.042 1077.98 203.812 1079.17 203.352C1080.37 202.876 1081.28 202.163 1081.9 201.211C1082.52 200.243 1082.83 199.006 1082.83 197.499C1082.83 195.992 1082.52 194.747 1081.9 193.764C1081.28 192.765 1080.37 192.019 1079.17 191.527C1077.96 191.02 1076.48 190.766 1074.72 190.766H1068.91V230H1057.13ZM1084.57 207.73L1096.7 230H1083.85L1071.96 207.73H1084.57ZM1147.49 205.636C1147.49 210.998 1146.46 215.542 1144.39 219.27C1142.33 222.997 1139.54 225.828 1136.02 227.763C1132.51 229.699 1128.58 230.666 1124.22 230.666C1119.84 230.666 1115.9 229.691 1112.39 227.74C1108.89 225.789 1106.1 222.957 1104.04 219.246C1102 215.518 1100.97 210.982 1100.97 205.636C1100.97 200.275 1102 195.731 1104.04 192.003C1106.1 188.276 1108.89 185.444 1112.39 183.509C1115.9 181.574 1119.84 180.607 1124.22 180.607C1128.58 180.607 1132.51 181.574 1136.02 183.509C1139.54 185.444 1142.33 188.276 1144.39 192.003C1146.46 195.731 1147.49 200.275 1147.49 205.636ZM1135.45 205.636C1135.45 202.464 1135 199.783 1134.09 197.594C1133.2 195.406 1131.92 193.748 1130.24 192.622C1128.57 191.496 1126.57 190.933 1124.22 190.933C1121.89 190.933 1119.88 191.496 1118.2 192.622C1116.52 193.748 1115.22 195.406 1114.32 197.594C1113.43 199.783 1112.99 202.464 1112.99 205.636C1112.99 208.809 1113.43 211.489 1114.32 213.678C1115.22 215.867 1116.52 217.525 1118.2 218.651C1119.88 219.777 1121.89 220.34 1124.22 220.34C1126.57 220.34 1128.57 219.777 1130.24 218.651C1131.92 217.525 1133.2 215.867 1134.09 213.678C1135 211.489 1135.45 208.809 1135.45 205.636ZM1172.37 230H1154.36V181.273H1172.35C1177.32 181.273 1181.59 182.248 1185.17 184.199C1188.78 186.134 1191.55 188.926 1193.5 192.574C1195.45 196.207 1196.43 200.553 1196.43 205.613C1196.43 210.688 1195.45 215.05 1193.5 218.699C1191.57 222.347 1188.8 225.146 1185.2 227.097C1181.6 229.032 1177.32 230 1172.37 230ZM1166.14 219.96H1171.92C1174.65 219.96 1176.96 219.5 1178.85 218.58C1180.75 217.644 1182.18 216.129 1183.15 214.035C1184.14 211.926 1184.63 209.118 1184.63 205.613C1184.63 202.107 1184.14 199.315 1183.15 197.238C1182.17 195.144 1180.72 193.637 1178.8 192.717C1176.89 191.781 1174.55 191.313 1171.76 191.313H1166.14V219.96ZM1232.78 181.273H1244.54V212.703C1244.54 216.335 1243.67 219.5 1241.94 222.196C1240.21 224.877 1237.8 226.955 1234.71 228.43C1231.62 229.889 1228.03 230.619 1223.93 230.619C1219.79 230.619 1216.18 229.889 1213.08 228.43C1209.99 226.955 1207.59 224.877 1205.87 222.196C1204.16 219.5 1203.3 216.335 1203.3 212.703V181.273H1215.08V211.68C1215.08 213.361 1215.45 214.86 1216.18 216.176C1216.92 217.493 1217.96 218.524 1219.29 219.27C1220.63 220.015 1222.17 220.388 1223.93 220.388C1225.69 220.388 1227.23 220.015 1228.55 219.27C1229.88 218.524 1230.92 217.493 1231.67 216.176C1232.41 214.86 1232.78 213.361 1232.78 211.68V181.273ZM1296.15 198.927H1284.25C1284.09 197.705 1283.77 196.603 1283.28 195.62C1282.79 194.636 1282.14 193.796 1281.33 193.098C1280.52 192.4 1279.56 191.868 1278.45 191.504C1277.35 191.123 1276.14 190.933 1274.81 190.933C1272.44 190.933 1270.41 191.511 1268.69 192.669C1267 193.827 1265.69 195.501 1264.77 197.69C1263.86 199.879 1263.41 202.527 1263.41 205.636C1263.41 208.872 1263.87 211.585 1264.79 213.773C1265.73 215.946 1267.04 217.588 1268.72 218.699C1270.41 219.793 1272.42 220.34 1274.74 220.34C1276.04 220.34 1277.22 220.174 1278.28 219.841C1279.36 219.507 1280.3 219.024 1281.11 218.389C1281.94 217.739 1282.61 216.954 1283.13 216.034C1283.67 215.098 1284.05 214.043 1284.25 212.869L1296.15 212.941C1295.94 215.098 1295.32 217.223 1294.27 219.317C1293.24 221.411 1291.82 223.322 1290.01 225.051C1288.2 226.764 1286 228.128 1283.4 229.143C1280.81 230.159 1277.84 230.666 1274.5 230.666C1270.09 230.666 1266.14 229.699 1262.65 227.763C1259.18 225.812 1256.43 222.973 1254.42 219.246C1252.4 215.518 1251.4 210.982 1251.4 205.636C1251.4 200.275 1252.42 195.731 1254.46 192.003C1256.51 188.276 1259.28 185.444 1262.77 183.509C1266.26 181.574 1270.17 180.607 1274.5 180.607C1277.45 180.607 1280.18 181.019 1282.68 181.844C1285.19 182.653 1287.39 183.842 1289.3 185.413C1291.2 186.967 1292.75 188.878 1293.94 191.147C1295.13 193.415 1295.86 196.008 1296.15 198.927ZM1301.29 190.837V181.273H1342.48V190.837H1327.7V230H1316.09V190.837H1301.29ZM1374.57 195.881C1374.41 194.137 1373.71 192.78 1372.45 191.813C1371.21 190.829 1369.45 190.338 1367.15 190.338C1365.62 190.338 1364.35 190.536 1363.34 190.933C1362.32 191.329 1361.56 191.876 1361.06 192.574C1360.55 193.256 1360.29 194.041 1360.27 194.93C1360.24 195.659 1360.38 196.302 1360.7 196.857C1361.03 197.412 1361.51 197.904 1362.13 198.332C1362.76 198.744 1363.52 199.109 1364.41 199.426C1365.3 199.744 1366.3 200.021 1367.41 200.259L1371.6 201.211C1374.01 201.734 1376.13 202.432 1377.97 203.305C1379.83 204.177 1381.38 205.216 1382.64 206.422C1383.9 207.627 1384.86 209.015 1385.51 210.585C1386.16 212.156 1386.5 213.916 1386.51 215.867C1386.5 218.944 1385.72 221.585 1384.18 223.79C1382.64 225.995 1380.43 227.684 1377.54 228.858C1374.67 230.032 1371.21 230.619 1367.15 230.619C1363.07 230.619 1359.52 230.008 1356.49 228.787C1353.46 227.565 1351.1 225.709 1349.42 223.219C1347.74 220.729 1346.88 217.58 1346.83 213.773H1358.11C1358.2 215.344 1358.62 216.652 1359.37 217.699C1360.11 218.746 1361.13 219.539 1362.44 220.078C1363.75 220.618 1365.27 220.887 1367 220.887C1368.59 220.887 1369.94 220.673 1371.05 220.245C1372.17 219.817 1373.04 219.222 1373.64 218.461C1374.24 217.699 1374.55 216.827 1374.57 215.843C1374.55 214.923 1374.27 214.138 1373.71 213.488C1373.16 212.822 1372.3 212.251 1371.14 211.775C1370 211.283 1368.54 210.831 1366.77 210.419L1361.67 209.229C1357.45 208.261 1354.13 206.699 1351.71 204.542C1349.28 202.369 1348.07 199.434 1348.09 195.739C1348.07 192.725 1348.88 190.084 1350.52 187.816C1352.15 185.547 1354.41 183.779 1357.3 182.51C1360.18 181.241 1363.47 180.607 1367.17 180.607C1370.95 180.607 1374.22 181.249 1377 182.534C1379.79 183.803 1381.95 185.587 1383.49 187.887C1385.03 190.187 1385.82 192.852 1385.85 195.881H1374.57ZM1406.14 181.273L1405.05 215.082H1395.27L1394.17 181.273H1406.14ZM1400.15 230.69C1398.45 230.69 1396.99 230.087 1395.77 228.882C1394.56 227.676 1393.96 226.217 1393.96 224.504C1393.96 222.823 1394.56 221.387 1395.77 220.197C1396.99 218.992 1398.45 218.389 1400.15 218.389C1401.78 218.389 1403.22 218.992 1404.45 220.197C1405.71 221.387 1406.33 222.823 1406.33 224.504C1406.33 225.646 1406.04 226.685 1405.45 227.621C1404.88 228.557 1404.13 229.302 1403.19 229.857C1402.27 230.412 1401.26 230.69 1400.15 230.69Z"
    fill="black" />
  <path
    d="M1517.29 260.528C1512.55 260.819 1507.8 261.544 1503.1 262.698C1501.82 263.011 1501.4 260.647 1502.35 259.68C1504.23 257.747 1505.77 255.249 1506.83 252.397C1507.89 249.544 1508.45 246.42 1508.45 243.289C1508.44 241.143 1510.89 240.751 1510.9 242.904C1510.92 246.624 1510.27 250.339 1509.01 253.733C1507.75 257.126 1505.93 260.096 1503.69 262.389L1502.94 259.372C1507.65 258.218 1512.39 257.493 1517.14 257.202C1518.71 257.105 1518.87 260.431 1517.29 260.528Z"
    fill="#231F20" />
  <path
    d="M1506.04 256.534C1519.55 249.391 1528.06 229.733 1528.46 210.82C1528.89 190.333 1521.39 171.694 1510.88 158.395C1504.02 149.708 1495.95 142.992 1487.47 137.471C1486.08 136.563 1487.18 133.495 1488.58 134.406C1503.55 144.162 1517.8 158.097 1525.41 178.695C1528.83 187.645 1530.71 197.617 1530.92 207.899C1531.07 217.979 1529.17 228.064 1525.44 237.049C1521.22 247.082 1514.75 255.459 1506.81 259.654C1505.31 260.447 1504.54 257.328 1506.04 256.534Z"
    fill="#231F20" />
</svg>