<svg width="58" height="57" viewBox="0 0 58 57" fill="none" xmlns="http://www.w3.org/2000/svg">
<path d="M28.7004 16.6953C21.7004 16.6953 15.9004 22.3953 15.9004 29.4953C15.9004 36.5953 21.6004 42.2953 28.7004 42.2953C35.8004 42.2953 41.5004 36.4953 41.5004 29.4953C41.5004 22.4953 35.7004 16.6953 28.7004 16.6953ZM28.7004 37.6953C24.2004 37.6953 20.5004 33.9953 20.5004 29.4953C20.5004 24.9953 24.2004 21.2953 28.7004 21.2953C33.2004 21.2953 36.9004 24.9953 36.9004 29.4953C36.9004 33.9953 33.2004 37.6953 28.7004 37.6953Z" fill="black"/>
<path d="M42.0006 19.3C43.6022 19.3 44.9006 18.0016 44.9006 16.4C44.9006 14.7984 43.6022 13.5 42.0006 13.5C40.399 13.5 39.1006 14.7984 39.1006 16.4C39.1006 18.0016 40.399 19.3 42.0006 19.3Z" fill="black"/>
<path d="M49.5004 8.89687C46.9004 6.19687 43.2004 4.79688 39.0004 4.79688H18.4004C9.70039 4.79688 3.90039 10.5969 3.90039 19.2969V39.7969C3.90039 44.0969 5.30039 47.7969 8.10039 50.4969C10.8004 53.0969 14.4004 54.3969 18.5004 54.3969H38.9004C43.2004 54.3969 46.8004 52.9969 49.4004 50.4969C52.1004 47.8969 53.5004 44.1969 53.5004 39.8969V19.2969C53.5004 15.0969 52.1004 11.4969 49.5004 8.89687ZM49.1004 39.8969C49.1004 42.9969 48.0004 45.4969 46.2004 47.1969C44.4004 48.8969 41.9004 49.7969 38.9004 49.7969H18.5004C15.5004 49.7969 13.0004 48.8969 11.2004 47.1969C9.40039 45.3969 8.50039 42.8969 8.50039 39.7969V19.2969C8.50039 16.2969 9.40039 13.7969 11.2004 11.9969C12.9004 10.2969 15.5004 9.39687 18.5004 9.39687H39.1004C42.1004 9.39687 44.6004 10.2969 46.4004 12.0969C48.1004 13.8969 49.1004 16.3969 49.1004 19.2969V39.8969Z" fill="black"/>
</svg>
