<svg width="621" height="207" viewBox="0 0 621 207" fill="none" xmlns="http://www.w3.org/2000/svg">
  <path
    d="M608.523 64.6387L523.78 87.1637L524.444 89.7569L620.125 53.143C620.434 53.0385 620.693 52.809 620.848 52.5027C621.003 52.1965 621.041 51.8376 620.955 51.5015C620.869 51.1654 620.665 50.8783 620.386 50.7008C620.108 50.5233 619.776 50.4692 619.461 50.5499L511.818 78.2587L481.326 86.1079L481.99 88.701L590.722 56.5389C591.031 56.4343 591.29 56.2048 591.445 55.8986C591.6 55.5924 591.638 55.2333 591.552 54.8972C591.466 54.5611 591.262 54.274 590.983 54.0965C590.705 53.919 590.373 53.8649 590.058 53.9456L458.365 84.5402L422.062 92.974C420.468 93.3442 421.17 95.8386 422.726 95.5672C471.873 86.9952 516.362 62.9673 562.655 44.5905C575.818 39.295 589.221 34.7171 602.813 30.8742L602.149 28.2811C553.406 46.8184 503.894 63.2144 453.976 77.6763C439.898 81.7548 425.756 85.5734 411.527 88.9932C409.946 89.3732 410.627 91.8993 412.191 91.5863C416.508 90.7221 420.828 89.8619 425.125 88.888C426.265 88.6297 428.27 88.5741 428.79 87.2259C428.865 86.9401 428.849 86.6357 428.745 86.3608C428.641 86.0859 428.455 85.856 428.216 85.7074C426.783 85.0529 424.363 86.0345 422.93 86.3296C419.11 87.1162 415.309 88.0137 411.527 88.9932C409.949 89.402 410.629 91.9037 412.191 91.5863C439.741 85.9872 463.972 70.8274 489.377 58.8883C516.17 46.2967 543.898 36.1993 571.713 26.5876C582.835 22.7441 594.01 19.0779 605.17 15.3645L604.506 12.7713C576.973 24.8925 549.003 35.5599 520.636 45.1806C487.955 56.2643 455.02 66.4333 421.925 75.9833C402.749 81.517 383.531 86.8775 364.271 92.065L364.935 94.6581C368.765 93.0014 372.612 91.3631 376.53 89.9585C377.503 89.7178 378.46 89.405 379.392 89.0224C379.58 88.9195 379.947 88.8148 379.901 88.8858C380.039 88.6747 379.244 86.6802 379.263 86.6831C378.97 86.64 378.036 87.3282 377.752 87.4563C376.715 87.926 375.651 88.3355 374.589 88.7352C371.199 90.0113 367.745 91.0859 364.271 92.065L364.935 94.6581C411.22 73.9552 457.899 54.2993 504.415 34.2095C517.555 28.5348 530.677 22.814 543.782 17.0473L543.118 14.454C539.131 16.2616 535.141 18.0619 531.149 19.8551C530.026 20.4912 528.848 21.0081 527.632 21.3984L528.847 23.6458C528.39 24.0809 529.757 23.3018 530.059 23.1626C531.194 22.6394 532.331 22.1223 533.471 21.6114C536.899 20.0665 540.336 18.5451 543.782 17.0473L543.118 14.454C515.656 26.8972 487.878 38.479 459.781 49.1991C431.414 60.0344 402.783 70.0185 373.888 79.1517C357.392 84.3753 340.825 89.3295 324.188 94.0142C323.879 94.1185 323.619 94.348 323.464 94.6543C323.309 94.9606 323.271 95.3197 323.357 95.6559C323.443 95.9922 323.647 96.2793 323.926 96.4568C324.205 96.6343 324.537 96.6882 324.852 96.6073C351.827 89.0175 377.594 77.4267 402.517 64.0819C428.914 49.948 454.433 33.994 480.886 19.9799C495.123 12.4377 511.352 12.6454 526.144 6.93474L525.182 4.47699C513.683 11.3766 501.292 16.0437 488.752 20.2091C475.925 24.4697 463.136 28.6052 450.606 33.8155C424.583 44.6357 398.222 54.494 371.711 63.8281C356.613 69.1435 341.472 74.3099 326.286 79.327L327.248 81.7846C330.682 79.9746 334.133 78.1551 337.682 76.6158C338.469 76.3762 339.238 76.0722 339.983 75.7065C340.23 75.5439 340.347 75.5785 340.343 75.5891C340.523 75.1168 339.486 73.5276 339.459 73.5292C339.039 73.5553 338.257 74.2725 337.874 74.481C337 74.9572 336.106 75.3931 335.206 75.8111C332.289 77.1433 329.312 78.3167 326.286 79.327L327.248 81.7846C370.042 59.1568 412.661 36.0886 455.649 13.891C466.962 8.04882 480.019 8.93516 491.364 3.10322L490.104 0.781109C465.842 15.422 438.42 22.1575 413.101 34.2316C386.227 47.047 358.861 58.5563 331 68.7595C315.163 74.5814 299.205 79.9986 283.125 85.0112L283.789 87.6043L352.263 57.2766C374.642 47.3649 396.94 37.202 419.411 27.5363C431.533 22.3222 445.028 24.1544 457.157 18.9489C458.628 18.3175 457.999 15.7253 456.493 16.3557C432.227 26.5135 405.911 28.4791 381.135 36.7669C354.981 45.5163 328.669 53.7357 302.343 61.8627C287.493 66.4471 272.634 70.9984 257.766 75.5167C257.457 75.6212 257.198 75.8508 257.043 76.157C256.888 76.4633 256.849 76.8223 256.935 77.1585C257.022 77.4947 257.225 77.7818 257.504 77.9593C257.783 78.1368 258.115 78.1908 258.43 78.11C262.584 77.1017 266.74 76.0925 270.874 74.9915C271.929 74.7105 273.81 74.5623 274.656 73.6926C274.884 73.4368 275.011 73.0961 275.011 72.7417C275.011 72.3874 274.884 72.0467 274.656 71.7909C273.75 70.6627 270.451 72.0598 269.443 72.3091C265.528 73.2773 261.637 74.3611 257.766 75.5167C257.457 75.6212 257.198 75.8508 257.043 76.157C256.888 76.4633 256.849 76.8223 256.935 77.1585C257.022 77.4947 257.225 77.7818 257.504 77.9593C257.783 78.1368 258.115 78.1908 258.43 78.11C307.77 65.8031 352.894 41.3891 398.543 18.5617C401.752 16.9573 404.965 15.3642 408.183 13.7825C411.77 12.0216 415.151 10.3247 419.12 9.88465C426.045 9.11699 432.862 10.4764 439.68 8.36958L438.718 5.91196C434.877 7.89579 431.032 9.87422 427.151 11.7657C426.235 12.2119 425.32 12.6652 424.391 13.0771C424.118 13.1547 423.855 13.2674 423.607 13.4126C422.871 14.0534 423.258 11.6531 424.568 14.154V15.5113C424.288 16.0865 424.194 15.801 424.663 15.608C425.033 15.4226 425.395 15.2164 425.745 14.9903C426.912 14.3448 428.098 13.737 429.288 13.1392C432.7 11.4233 436.164 9.82368 439.68 8.36958L438.718 5.91196C410.681 20.3121 379.594 25.7848 350.338 36.5333C319.857 47.6997 288.849 57.1266 257.445 64.7748C239.367 69.1952 221.181 73.0532 202.888 76.3487C201.486 76.6026 201.836 79.0154 203.22 78.9899C225.988 78.571 248.376 72.7119 269.603 64.0748C292.227 54.8693 314.214 43.7013 336.235 32.9678C348.83 26.8289 361.436 20.7168 374.138 14.8403C375.447 14.2351 374.511 11.9525 373.176 12.3826C367.057 14.3535 360.928 16.3155 354.868 18.4916C353.745 18.8947 349.939 19.593 349.95 21.4304C349.963 23.7565 353.231 22.4128 354.303 22.1093C357.244 21.277 360.155 20.315 363.046 19.3006C366.811 18.0181 370.514 16.5295 374.138 14.8403C375.443 14.2178 374.512 11.9588 373.176 12.3826C330.29 25.9893 287.487 39.9108 244.892 54.5458C232.913 58.6618 220.951 62.8359 209.007 67.0683C208.698 67.173 208.439 67.4026 208.284 67.7087C208.129 68.0149 208.091 68.3738 208.177 68.7098C208.263 69.0459 208.467 69.3328 208.745 69.5103C209.024 69.6878 209.356 69.7421 209.671 69.6616C213.587 68.9078 217.593 68.2513 221.429 67.0824C222.523 66.7489 224.841 65.3533 222.889 64.1041C221.768 63.3868 219.499 64.2342 218.36 64.4711C215.198 65.1417 212.075 66.0088 209.007 67.0683C208.698 67.173 208.439 67.4026 208.284 67.7087C208.129 68.0149 208.091 68.3738 208.177 68.7098C208.263 69.0459 208.467 69.3328 208.745 69.5103C209.024 69.6878 209.356 69.7421 209.671 69.6616C251.214 61.6752 292.013 48.4781 330.225 29.0883C340.927 23.6575 351.388 17.719 361.607 11.273C361.792 11.1519 361.945 10.9815 362.052 10.7781C362.158 10.5747 362.214 10.3453 362.214 10.1119C362.214 9.87861 362.158 9.6493 362.052 9.44594C361.945 9.24258 361.792 9.07215 361.607 8.95103C357.328 6.17948 352.085 7.3372 347.549 8.67252C341.701 10.3942 335.952 12.515 330.133 14.3511C323.781 16.3552 317.413 18.2241 311.154 20.5465C305.066 22.8053 298.989 25.098 292.923 27.4248C268.843 36.6156 244.81 46.0268 220.221 53.5476C205.913 57.9627 191.409 61.5989 176.762 64.4426L177.426 67.0359C183.038 65.5398 188.652 64.0465 194.284 62.6389C195.562 62.3194 196.841 61.9993 198.125 61.7096C198.498 61.6708 198.867 61.5914 199.225 61.4726C199.803 61.1795 198.878 62.088 198.351 60.7919L198.546 59.1625C198.935 58.6691 198.881 58.9449 198.224 59.1437C197.668 59.3121 197.113 59.4828 196.555 59.6444C194.666 60.1917 192.766 60.7003 190.864 61.1957C186.193 62.4123 181.498 63.5556 176.762 64.4426L177.426 67.0359C218.645 56.0394 260.127 45.1332 299.716 28.3474C310.739 23.6736 321.587 18.522 332.153 12.7501C333.435 12.0503 332.536 9.90526 331.191 10.2925L203.378 47.0909L167.876 57.312L168.54 59.9053L270.508 27.6856L298.692 18.7801C299.982 18.3725 299.806 15.9345 298.36 16.1389C267.015 20.5263 235.936 26.8967 205.285 35.2172C196.4 37.6428 187.557 40.2425 178.759 43.0163C178.45 43.1206 178.19 43.3502 178.035 43.6564C177.88 43.9627 177.842 44.3219 177.928 44.6582C178.014 44.9945 178.218 45.2816 178.497 45.4591C178.776 45.6366 179.108 45.6905 179.423 45.6096C210.882 35.7414 241.979 24.6553 272.715 12.3511C273.023 12.2464 273.282 12.0168 273.437 11.7107C273.592 11.4045 273.63 11.0457 273.544 10.7097C273.458 10.3737 273.254 10.0867 272.976 9.90921C272.697 9.73168 272.366 9.67736 272.051 9.7578C254.598 13.5296 237.144 17.3087 219.771 21.4902C218.203 21.8676 218.867 24.4609 220.435 24.0835C237.808 19.902 255.261 16.1228 272.715 12.3511L272.051 9.7578C241.348 22.085 210.251 33.1712 178.759 43.0163L179.423 45.6096C209.496 36.1689 240.07 28.6853 270.978 23.1993C280.082 21.576 289.209 20.119 298.36 18.8281L298.028 16.1868L196.705 48.2027L167.876 57.312C167.567 57.4163 167.307 57.6459 167.152 57.9522C166.997 58.2585 166.959 58.6176 167.045 58.9539C167.131 59.2902 167.335 59.5773 167.614 59.7548C167.893 59.9323 168.225 59.9863 168.54 59.9053L295.646 23.3104L331.855 12.8856L330.893 10.428C293.391 30.9128 252.641 43.5843 212.078 54.8817C200.326 58.1548 188.544 61.2993 176.762 64.4426C175.178 64.8651 175.869 67.3275 177.426 67.0359C182.37 66.1098 187.272 64.9078 192.147 63.627C194.005 63.1388 195.861 62.6397 197.706 62.0956C198.414 61.8867 199.798 61.7177 200.312 61.0641C200.497 60.8474 200.615 60.5744 200.65 60.2827C200.685 59.9909 200.635 59.6948 200.508 59.4347C199.874 57.8764 195.997 59.4592 195.067 59.6872C188.947 61.187 182.854 62.8185 176.762 64.4426C175.18 64.8643 175.867 67.3344 177.426 67.0359C202.366 62.2587 226.731 54.7697 250.738 46.1409C262.46 41.9274 274.105 37.4715 285.749 33.0152C297.914 28.3596 310.039 23.3447 322.458 19.5334C329.386 17.407 336.307 15.2455 343.171 12.8855C348.252 11.1383 355.325 8.02062 360.346 11.273V8.95103C324.399 31.6628 285.107 47.9051 244.739 58.834C232.923 62.0332 221.012 64.7778 209.007 67.0683L209.671 69.6616C212.099 68.8339 214.556 68.1084 217.042 67.5107C218.361 67.1937 220.465 67.252 221.658 66.6138C221.744 66.5678 222.079 66.6605 222.133 66.5928C222.199 66.5108 221.345 63.996 221.716 64.1716C221.66 64.1452 221.52 64.2794 221.456 64.2707C220.758 64.3669 220.075 64.5622 219.424 64.8515C215.981 65.7299 212.489 66.3981 209.007 67.0683L209.671 69.6616C251.965 54.6711 294.496 40.4704 337.148 26.7094C349.37 22.7663 361.601 18.855 373.84 14.9758L372.878 12.5182C367.472 14.9962 361.916 17.0743 356.248 18.7379C355.217 19.0576 354.183 19.3699 353.143 19.6551C352.482 19.7116 351.831 19.8704 351.212 20.1267C351.581 19.784 351.519 22.2909 351.968 22.4717C352.127 22.5356 352.285 22.2777 352.48 22.2362C353.573 21.9022 354.646 21.4984 355.695 21.0267C361.703 18.8768 367.775 16.9292 373.84 14.9758L372.878 12.5182C350.806 22.7292 329.04 33.6802 307.078 44.1599C286.002 54.2171 264.791 64.4331 242.366 70.5041C229.566 74.0429 216.432 75.9879 203.22 76.3008L203.552 78.942C236.068 73.0854 268.283 65.4337 300.069 56.0172C315.553 51.4153 330.917 46.3725 346.16 40.8887C361.132 35.4932 376.182 30.7394 391.417 26.28C407.971 21.4345 424.453 16.2082 439.978 8.23407C441.24 7.58624 440.343 5.22778 439.016 5.77645C435.406 7.26952 431.845 8.90771 428.337 10.6616C426.684 11.488 424.122 12.2831 422.799 13.705C421.977 14.5873 422.149 16.1085 423.515 16.1909C424.236 16.0928 424.932 15.8379 425.559 15.4417C430.437 13.2215 435.205 10.6994 439.978 8.23407C441.267 7.56848 440.357 5.36212 439.016 5.77645C432.677 7.73548 426.343 6.58245 419.889 7.12278C413.68 7.64255 408.396 10.7221 402.828 13.4794C391.259 19.2086 379.761 25.1038 368.234 30.9302C345.665 42.337 322.934 53.4565 299.403 62.3917C285.761 67.5959 271.861 71.9777 257.766 75.5167L258.43 78.11C261.972 77.0524 265.532 76.058 269.11 75.1521C270.24 74.866 271.372 74.5838 272.509 74.3306C272.861 74.2955 273.208 74.2215 273.545 74.1099C274.032 73.8608 273.541 74.5032 272.89 73.6926V71.791C273.505 71.1593 272.963 71.6301 272.33 71.8164C271.372 72.0982 270.406 72.3482 269.441 72.6014C265.56 73.6201 261.663 74.5709 257.766 75.5167L258.43 78.11C284.755 70.0801 311.078 62.0436 337.331 53.7439C350.47 49.5901 363.587 45.3597 376.684 41.0527C389.285 36.9294 402.073 33.5024 414.998 30.7848C429.269 27.7419 443.554 24.6434 457.157 18.9489L456.493 16.3557C445.698 20.9889 433.909 19.8644 422.879 23.3802C417.216 25.1853 411.769 28.0339 406.312 30.4506L388.904 38.1611L321.541 67.9965L283.125 85.0112C281.685 85.649 282.199 88.1013 283.789 87.6043C312.47 78.6389 340.77 68.4006 368.691 56.8892C382.074 51.3445 395.342 45.491 408.495 39.329C421.768 33.1071 435.146 27.5753 448.813 22.4398C463.374 16.9683 477.874 11.2442 491.364 3.10322C492.784 2.24647 491.536 0.0446517 490.104 0.781109C479.905 6.02317 468.323 5.53715 457.887 9.92155C452.551 12.1633 447.459 15.2327 442.321 17.9495L426.232 26.4569L362.468 60.173L325.987 79.4625C324.718 80.1335 325.606 82.3786 326.95 81.9201C330.551 80.7188 334.083 79.2858 337.525 77.6287C338.636 77.0844 341.313 76.1921 341.684 74.6794C342.308 72.1371 339.169 73.1411 338.154 73.5448C334.008 75.2952 329.948 77.2703 325.987 79.4625C324.714 80.1335 325.606 82.3666 326.95 81.9201C354.148 72.8846 381.26 63.5291 408.136 53.4301C421.513 48.4037 434.821 43.1728 448.061 37.7373C460.557 32.5845 473.163 28.1319 485.963 23.9399C499.87 19.3854 513.696 14.447 526.442 6.7991C527.65 6.07421 526.837 3.81767 525.48 4.34148C512.517 9.34612 498.45 9.59962 485.574 14.8405C478.957 17.5339 472.676 21.3683 466.401 24.859C459.862 28.4961 453.363 32.2126 446.874 35.9511C421.58 50.5245 396.379 65.4268 369.855 77.2971C355.009 83.9967 339.75 89.5824 324.188 94.0142L324.852 96.6073C354.193 88.332 383.318 79.2283 412.225 69.2959C440.774 59.4628 469.054 48.7826 497.067 37.255C512.74 30.7944 528.311 24.0584 543.782 17.0473C545.233 16.3897 544.619 13.8018 543.118 14.454C539.465 16.0405 535.823 17.6545 532.192 19.2959C530.673 19.9818 528.344 20.5413 527.081 21.7443C526.069 22.7075 527.172 24.2187 528.296 23.9917C529.512 23.6013 530.69 23.0844 531.813 22.4484C535.808 20.662 539.797 18.8616 543.782 17.0473C545.235 16.3882 544.612 13.7949 543.118 14.454C496.684 34.927 449.934 54.5503 403.419 74.804C390.346 80.4961 377.297 86.2497 364.271 92.065C362.832 92.7086 363.33 95.1104 364.935 94.6581C368.99 93.5554 372.991 92.2279 376.919 90.6807C378.046 90.2247 380.996 89.5104 381.37 87.962C381.994 85.3786 378.631 86.439 377.604 86.7684C373.07 88.2216 368.655 90.1686 364.271 92.065C363.962 92.1698 363.703 92.3994 363.549 92.7055C363.394 93.0116 363.356 93.3703 363.442 93.7062C363.528 94.0421 363.731 94.329 364.01 94.5066C364.288 94.6841 364.62 94.7383 364.935 94.6581C399.015 85.4334 433.008 75.8188 466.794 65.4081C496.78 56.1687 526.699 46.4642 556.161 35.4261C572.672 29.2403 588.99 22.4878 605.17 15.3645C606.613 14.7294 606.084 12.2463 604.506 12.7713C582.301 20.1596 560.098 27.5456 538.139 35.7518C523.487 41.227 508.947 47.0676 494.653 53.5506C481.917 59.3267 469.548 65.9036 457.016 72.1592C442.406 79.4522 427.405 85.7663 411.527 88.9932L412.191 91.5863C415.693 90.6792 419.212 89.8503 422.747 89.0996C423.899 88.8567 425.052 88.6189 426.21 88.4098C426.576 88.3901 426.938 88.3279 427.291 88.2245C427.41 88.1673 427.797 88.4139 426.956 88.0295L426.382 86.511C426.598 85.95 427.552 85.7885 426.91 85.7011C426.67 85.7283 426.435 85.79 426.211 85.8844C425.26 86.1274 424.3 86.3333 423.342 86.5443C419.413 87.4101 415.47 88.2038 411.527 88.9932L412.191 91.5863C437.521 85.4984 462.563 78.1297 487.482 70.3405C512.301 62.5826 537.064 54.6253 561.626 45.9669C575.409 41.1082 589.138 36.0773 602.813 30.8742C603.122 30.7697 603.381 30.5401 603.536 30.2339C603.691 29.9277 603.729 29.5688 603.643 29.2327C603.557 28.8966 603.353 28.6095 603.074 28.432C602.796 28.2545 602.464 28.2004 602.149 28.2811C553.957 41.6668 509.816 67.2997 462.29 82.8078C449.106 87.1581 435.667 90.5545 422.062 92.974L422.726 95.5672L553.844 65.1063L590.722 56.5389L590.058 53.9456L481.326 86.1079C481.017 86.2123 480.757 86.4418 480.602 86.748C480.447 87.0543 480.409 87.4135 480.495 87.7497C480.581 88.0859 480.785 88.3731 481.064 88.5506C481.343 88.728 481.675 88.7819 481.99 88.701L589.495 61.0276L620.125 53.143L619.461 50.5499L523.78 87.1637C523.471 87.2682 523.212 87.4979 523.057 87.8041C522.902 88.1102 522.864 88.4692 522.95 88.8053C523.036 89.1414 523.24 89.4284 523.518 89.6059C523.797 89.7834 524.129 89.8375 524.444 89.7569L609.187 67.2319C609.496 67.1275 609.755 66.898 609.91 66.5918C610.065 66.2855 610.104 65.9264 610.017 65.5901C609.931 65.2539 609.727 64.9668 609.449 64.7893C609.17 64.6118 608.838 64.5578 608.523 64.6387Z"
    fill="#FFC424" />
  <path
    d="M44.4844 27.1953V75.1953H34.6406L15.5391 47.4922H15.2344V75.1953H3.63281V27.1953H13.6172L32.5078 54.8516H32.9063V27.1953H44.4844ZM51.7793 75.1953V27.1953H85.248V36.6172H63.3809V46.4609H83.5371V55.9062H63.3809V65.7734H85.248V75.1953H51.7793ZM104.021 75.1953L90.0527 27.1953H102.873L110.115 58.6484H110.514L118.787 27.1953H129.24L137.514 58.7187H137.912L145.178 27.1953H157.975L144.029 75.1953H132.85L124.201 46.0859H123.826L115.178 75.1953H104.021ZM220.518 44.5859H208.799C208.643 43.3828 208.322 42.2969 207.838 41.3281C207.354 40.3594 206.713 39.5312 205.916 38.8438C205.119 38.1562 204.174 37.6328 203.08 37.2734C202.002 36.8984 200.807 36.7109 199.494 36.7109C197.166 36.7109 195.158 37.2812 193.471 38.4219C191.799 39.5625 190.51 41.2109 189.604 43.3672C188.713 45.5234 188.268 48.1328 188.268 51.1953C188.268 54.3828 188.721 57.0547 189.627 59.2109C190.549 61.3516 191.838 62.9687 193.494 64.0625C195.166 65.1406 197.143 65.6797 199.424 65.6797C200.705 65.6797 201.869 65.5156 202.916 65.1875C203.979 64.8594 204.908 64.3828 205.705 63.7578C206.518 63.1172 207.182 62.3437 207.697 61.4375C208.229 60.5156 208.596 59.4766 208.799 58.3203L220.518 58.3906C220.314 60.5156 219.697 62.6094 218.666 64.6719C217.65 66.7344 216.252 68.6172 214.471 70.3203C212.689 72.0078 210.518 73.3516 207.955 74.3516C205.408 75.3516 202.486 75.8516 199.189 75.8516C194.846 75.8516 190.955 74.8984 187.518 72.9922C184.096 71.0703 181.393 68.2734 179.408 64.6016C177.424 60.9297 176.432 56.4609 176.432 51.1953C176.432 45.9141 177.439 41.4375 179.455 37.7656C181.471 34.0937 184.197 31.3047 187.635 29.3984C191.072 27.4922 194.924 26.5391 199.189 26.5391C202.096 26.5391 204.783 26.9453 207.252 27.7578C209.721 28.5547 211.893 29.7266 213.768 31.2734C215.643 32.8047 217.166 34.6875 218.338 36.9219C219.51 39.1563 220.236 41.7109 220.518 44.5859ZM272.461 51.1953C272.461 56.4766 271.445 60.9531 269.414 64.625C267.383 68.2969 264.633 71.0859 261.164 72.9922C257.711 74.8984 253.836 75.8516 249.539 75.8516C245.227 75.8516 241.344 74.8906 237.891 72.9687C234.438 71.0469 231.695 68.2578 229.664 64.6016C227.648 60.9297 226.641 56.4609 226.641 51.1953C226.641 45.9141 227.648 41.4375 229.664 37.7656C231.695 34.0937 234.438 31.3047 237.891 29.3984C241.344 27.4922 245.227 26.5391 249.539 26.5391C253.836 26.5391 257.711 27.4922 261.164 29.3984C264.633 31.3047 267.383 34.0937 269.414 37.7656C271.445 41.4375 272.461 45.9141 272.461 51.1953ZM260.602 51.1953C260.602 48.0703 260.156 45.4297 259.266 43.2734C258.391 41.1172 257.125 39.4844 255.469 38.375C253.828 37.2656 251.852 36.7109 249.539 36.7109C247.242 36.7109 245.266 37.2656 243.609 38.375C241.953 39.4844 240.68 41.1172 239.789 43.2734C238.914 45.4297 238.477 48.0703 238.477 51.1953C238.477 54.3203 238.914 56.9609 239.789 59.1172C240.68 61.2734 241.953 62.9062 243.609 64.0156C245.266 65.125 247.242 65.6797 249.539 65.6797C251.852 65.6797 253.828 65.125 255.469 64.0156C257.125 62.9062 258.391 61.2734 259.266 59.1172C260.156 56.9609 260.602 54.3203 260.602 51.1953ZM279.234 75.1953V27.1953H290.836V65.7734H310.805V75.1953H279.234ZM316.811 75.1953V27.1953H328.412V65.7734H348.381V75.1953H316.811ZM354.387 75.1953V27.1953H387.855V36.6172H365.988V46.4609H386.145V55.9062H365.988V65.7734H387.855V75.1953H354.387ZM438.691 44.5859H426.973C426.816 43.3828 426.496 42.2969 426.012 41.3281C425.527 40.3594 424.887 39.5312 424.09 38.8438C423.293 38.1562 422.348 37.6328 421.254 37.2734C420.176 36.8984 418.98 36.7109 417.668 36.7109C415.34 36.7109 413.332 37.2812 411.645 38.4219C409.973 39.5625 408.684 41.2109 407.777 43.3672C406.887 45.5234 406.441 48.1328 406.441 51.1953C406.441 54.3828 406.895 57.0547 407.801 59.2109C408.723 61.3516 410.012 62.9687 411.668 64.0625C413.34 65.1406 415.316 65.6797 417.598 65.6797C418.879 65.6797 420.043 65.5156 421.09 65.1875C422.152 64.8594 423.082 64.3828 423.879 63.7578C424.691 63.1172 425.355 62.3437 425.871 61.4375C426.402 60.5156 426.77 59.4766 426.973 58.3203L438.691 58.3906C438.488 60.5156 437.871 62.6094 436.84 64.6719C435.824 66.7344 434.426 68.6172 432.645 70.3203C430.863 72.0078 428.691 73.3516 426.129 74.3516C423.582 75.3516 420.66 75.8516 417.363 75.8516C413.02 75.8516 409.129 74.8984 405.691 72.9922C402.27 71.0703 399.566 68.2734 397.582 64.6016C395.598 60.9297 394.605 56.4609 394.605 51.1953C394.605 45.9141 395.613 41.4375 397.629 37.7656C399.645 34.0937 402.371 31.3047 405.809 29.3984C409.246 27.4922 413.098 26.5391 417.363 26.5391C420.27 26.5391 422.957 26.9453 425.426 27.7578C427.895 28.5547 430.066 29.7266 431.941 31.2734C433.816 32.8047 435.34 34.6875 436.512 36.9219C437.684 39.1563 438.41 41.7109 438.691 44.5859ZM443.76 36.6172V27.1953H484.33V36.6172H469.775V75.1953H458.338V36.6172H443.76ZM501.598 27.1953V75.1953H489.996V27.1953H501.598ZM554.186 51.1953C554.186 56.4766 553.17 60.9531 551.139 64.625C549.107 68.2969 546.357 71.0859 542.889 72.9922C539.436 74.8984 535.561 75.8516 531.264 75.8516C526.951 75.8516 523.068 74.8906 519.615 72.9687C516.162 71.0469 513.42 68.2578 511.389 64.6016C509.373 60.9297 508.365 56.4609 508.365 51.1953C508.365 45.9141 509.373 41.4375 511.389 37.7656C513.42 34.0937 516.162 31.3047 519.615 29.3984C523.068 27.4922 526.951 26.5391 531.264 26.5391C535.561 26.5391 539.436 27.4922 542.889 29.3984C546.357 31.3047 549.107 34.0937 551.139 37.7656C553.17 41.4375 554.186 45.9141 554.186 51.1953ZM542.326 51.1953C542.326 48.0703 541.881 45.4297 540.99 43.2734C540.115 41.1172 538.85 39.4844 537.193 38.375C535.553 37.2656 533.576 36.7109 531.264 36.7109C528.967 36.7109 526.99 37.2656 525.334 38.375C523.678 39.4844 522.404 41.1172 521.514 43.2734C520.639 45.4297 520.201 48.0703 520.201 51.1953C520.201 54.3203 520.639 56.9609 521.514 59.1172C522.404 61.2734 523.678 62.9062 525.334 64.0156C526.99 65.125 528.967 65.6797 531.264 65.6797C533.576 65.6797 535.553 65.125 537.193 64.0156C538.85 62.9062 540.115 61.2734 540.99 59.1172C541.881 56.9609 542.326 54.3203 542.326 51.1953ZM601.811 27.1953V75.1953H591.967L572.865 47.4922H572.561V75.1953H560.959V27.1953H570.943L589.834 54.8516H590.232V27.1953H601.811Z"
    fill="black" />
  <path
    d="M22.901 138.984C21.6077 138.984 20.4277 138.684 19.361 138.084C18.2943 137.47 17.4477 136.624 16.821 135.544C16.2077 134.45 15.901 133.224 15.901 131.864C15.901 130.504 16.2077 129.284 16.821 128.204C17.4477 127.11 18.2943 126.264 19.361 125.664C20.4277 125.05 21.6077 124.744 22.901 124.744C24.2077 124.744 25.3943 125.05 26.461 125.664C27.5277 126.264 28.3677 127.104 28.981 128.184C29.5943 129.264 29.901 130.49 29.901 131.864C29.901 133.237 29.5943 134.464 28.981 135.544C28.3677 136.624 27.5277 137.47 26.461 138.084C25.3943 138.684 24.2077 138.984 22.901 138.984ZM22.901 137.404C23.8743 137.404 24.7477 137.177 25.521 136.724C26.3077 136.27 26.921 135.624 27.361 134.784C27.8143 133.944 28.041 132.97 28.041 131.864C28.041 130.744 27.8143 129.77 27.361 128.944C26.921 128.104 26.3143 127.457 25.541 127.004C24.7677 126.55 23.8877 126.324 22.901 126.324C21.9143 126.324 21.0343 126.55 20.261 127.004C19.4877 127.457 18.8743 128.104 18.421 128.944C17.981 129.77 17.761 130.744 17.761 131.864C17.761 132.97 17.981 133.944 18.421 134.784C18.8743 135.624 19.4877 136.27 20.261 136.724C21.0477 137.177 21.9277 137.404 22.901 137.404ZM42.0237 127.884V138.844H40.2037V137.224C39.857 137.784 39.3703 138.224 38.7437 138.544C38.1303 138.85 37.4503 139.004 36.7037 139.004C35.8503 139.004 35.0837 138.83 34.4037 138.484C33.7237 138.124 33.1837 137.59 32.7837 136.884C32.397 136.177 32.2037 135.317 32.2037 134.304V127.884H34.0037V134.064C34.0037 135.144 34.277 135.977 34.8237 136.564C35.3703 137.137 36.117 137.424 37.0637 137.424C38.037 137.424 38.8037 137.124 39.3637 136.524C39.9237 135.924 40.2037 135.05 40.2037 133.904V127.884H42.0237ZM46.9166 129.664C47.2366 129.037 47.69 128.55 48.2766 128.204C48.8766 127.857 49.6033 127.684 50.4566 127.684V129.564H49.9766C47.9366 129.564 46.9166 130.67 46.9166 132.884V138.844H45.0966V127.884H46.9166V129.664ZM59.7096 129.924C60.0829 129.27 60.6296 128.737 61.3496 128.324C62.0696 127.91 62.8896 127.704 63.8096 127.704C64.7963 127.704 65.6829 127.937 66.4696 128.404C67.2563 128.87 67.8763 129.53 68.3296 130.384C68.7829 131.224 69.0096 132.204 69.0096 133.324C69.0096 134.43 68.7829 135.417 68.3296 136.284C67.8763 137.15 67.2496 137.824 66.4496 138.304C65.6629 138.784 64.7829 139.024 63.8096 139.024C62.8629 139.024 62.0296 138.817 61.3096 138.404C60.6029 137.99 60.0696 137.464 59.7096 136.824V138.844H57.8896V124.044H59.7096V129.924ZM67.1496 133.324C67.1496 132.497 66.9829 131.777 66.6496 131.164C66.3163 130.55 65.8629 130.084 65.2896 129.764C64.7296 129.444 64.1096 129.284 63.4296 129.284C62.7629 129.284 62.1429 129.45 61.5696 129.784C61.0096 130.104 60.5563 130.577 60.2096 131.204C59.8763 131.817 59.7096 132.53 59.7096 133.344C59.7096 134.17 59.8763 134.897 60.2096 135.524C60.5563 136.137 61.0096 136.61 61.5696 136.944C62.1429 137.264 62.7629 137.424 63.4296 137.424C64.1096 137.424 64.7296 137.264 65.2896 136.944C65.8629 136.61 66.3163 136.137 66.6496 135.524C66.9829 134.897 67.1496 134.164 67.1496 133.324ZM73.2252 129.664C73.5452 129.037 73.9986 128.55 74.5852 128.204C75.1852 127.857 75.9119 127.684 76.7652 127.684V129.564H76.2852C74.2452 129.564 73.2252 130.67 73.2252 132.884V138.844H71.4052V127.884H73.2252V129.664ZM78.1862 133.324C78.1862 132.204 78.4128 131.224 78.8662 130.384C79.3195 129.53 79.9395 128.87 80.7262 128.404C81.5262 127.937 82.4128 127.704 83.3862 127.704C84.3462 127.704 85.1795 127.91 85.8862 128.324C86.5928 128.737 87.1195 129.257 87.4662 129.884V127.884H89.3062V138.844H87.4662V136.804C87.1062 137.444 86.5662 137.977 85.8462 138.404C85.1395 138.817 84.3128 139.024 83.3662 139.024C82.3928 139.024 81.5128 138.784 80.7262 138.304C79.9395 137.824 79.3195 137.15 78.8662 136.284C78.4128 135.417 78.1862 134.43 78.1862 133.324ZM87.4662 133.344C87.4662 132.517 87.2995 131.797 86.9662 131.184C86.6328 130.57 86.1795 130.104 85.6062 129.784C85.0462 129.45 84.4262 129.284 83.7462 129.284C83.0662 129.284 82.4462 129.444 81.8862 129.764C81.3262 130.084 80.8795 130.55 80.5462 131.164C80.2128 131.777 80.0462 132.497 80.0462 133.324C80.0462 134.164 80.2128 134.897 80.5462 135.524C80.8795 136.137 81.3262 136.61 81.8862 136.944C82.4462 137.264 83.0662 137.424 83.7462 137.424C84.4262 137.424 85.0462 137.264 85.6062 136.944C86.1795 136.61 86.6328 136.137 86.9662 135.524C87.2995 134.897 87.4662 134.17 87.4662 133.344ZM97.7218 127.684C99.0551 127.684 100.135 128.09 100.962 128.904C101.788 129.704 102.202 130.864 102.202 132.384V138.844H100.402V132.644C100.402 131.55 100.128 130.717 99.5818 130.144C99.0351 129.557 98.2885 129.264 97.3418 129.264C96.3818 129.264 95.6151 129.564 95.0418 130.164C94.4818 130.764 94.2018 131.637 94.2018 132.784V138.844H92.3818V127.884H94.2018V129.444C94.5618 128.884 95.0485 128.45 95.6618 128.144C96.2885 127.837 96.9751 127.684 97.7218 127.684ZM104.495 133.324C104.495 132.204 104.721 131.224 105.175 130.384C105.628 129.53 106.248 128.87 107.035 128.404C107.835 127.937 108.728 127.704 109.715 127.704C110.568 127.704 111.361 127.904 112.095 128.304C112.828 128.69 113.388 129.204 113.775 129.844V124.044H115.615V138.844H113.775V136.784C113.415 137.437 112.881 137.977 112.175 138.404C111.468 138.817 110.641 139.024 109.695 139.024C108.721 139.024 107.835 138.784 107.035 138.304C106.248 137.824 105.628 137.15 105.175 136.284C104.721 135.417 104.495 134.43 104.495 133.324ZM113.775 133.344C113.775 132.517 113.608 131.797 113.275 131.184C112.941 130.57 112.488 130.104 111.915 129.784C111.355 129.45 110.735 129.284 110.055 129.284C109.375 129.284 108.755 129.444 108.195 129.764C107.635 130.084 107.188 130.55 106.855 131.164C106.521 131.777 106.355 132.497 106.355 133.324C106.355 134.164 106.521 134.897 106.855 135.524C107.188 136.137 107.635 136.61 108.195 136.944C108.755 137.264 109.375 137.424 110.055 137.424C110.735 137.424 111.355 137.264 111.915 136.944C112.488 136.61 112.941 136.137 113.275 135.524C113.608 134.897 113.775 134.17 113.775 133.344ZM129.362 127.684C130.696 127.684 131.776 128.09 132.602 128.904C133.429 129.704 133.842 130.864 133.842 132.384V138.844H132.042V132.644C132.042 131.55 131.769 130.717 131.222 130.144C130.676 129.557 129.929 129.264 128.982 129.264C128.022 129.264 127.256 129.564 126.682 130.164C126.122 130.764 125.842 131.637 125.842 132.784V138.844H124.022V127.884H125.842V129.444C126.202 128.884 126.689 128.45 127.302 128.144C127.929 127.837 128.616 127.684 129.362 127.684ZM146.815 132.944C146.815 133.29 146.795 133.657 146.755 134.044H137.995C138.062 135.124 138.429 135.97 139.095 136.584C139.775 137.184 140.595 137.484 141.555 137.484C142.342 137.484 142.995 137.304 143.515 136.944C144.049 136.57 144.422 136.077 144.635 135.464H146.595C146.302 136.517 145.715 137.377 144.835 138.044C143.955 138.697 142.862 139.024 141.555 139.024C140.515 139.024 139.582 138.79 138.755 138.324C137.942 137.857 137.302 137.197 136.835 136.344C136.369 135.477 136.135 134.477 136.135 133.344C136.135 132.21 136.362 131.217 136.815 130.364C137.269 129.51 137.902 128.857 138.715 128.404C139.542 127.937 140.489 127.704 141.555 127.704C142.595 127.704 143.515 127.93 144.315 128.384C145.115 128.837 145.729 129.464 146.155 130.264C146.595 131.05 146.815 131.944 146.815 132.944ZM144.935 132.564C144.935 131.87 144.782 131.277 144.475 130.784C144.169 130.277 143.749 129.897 143.215 129.644C142.695 129.377 142.115 129.244 141.475 129.244C140.555 129.244 139.769 129.537 139.115 130.124C138.475 130.71 138.109 131.524 138.015 132.564H144.935ZM163.818 127.884L160.398 138.844H158.518L155.878 130.144L153.238 138.844H151.358L147.918 127.884H149.778L152.298 137.084L155.018 127.884H156.878L159.538 137.104L162.018 127.884H163.818ZM171.936 129.444H169.896L171.816 124.904H173.116L171.936 129.444ZM175.176 129.444H173.136L175.056 124.904H176.356L175.176 129.444ZM178.214 128.024C178.307 126.797 178.78 125.837 179.634 125.144C180.487 124.45 181.594 124.104 182.954 124.104C183.86 124.104 184.64 124.27 185.294 124.604C185.96 124.924 186.46 125.364 186.794 125.924C187.14 126.484 187.314 127.117 187.314 127.824C187.314 128.65 187.074 129.364 186.594 129.964C186.127 130.564 185.514 130.95 184.754 131.124V131.224C185.62 131.437 186.307 131.857 186.814 132.484C187.32 133.11 187.574 133.93 187.574 134.944C187.574 135.704 187.4 136.39 187.054 137.004C186.707 137.604 186.187 138.077 185.494 138.424C184.8 138.77 183.967 138.944 182.994 138.944C181.58 138.944 180.42 138.577 179.514 137.844C178.607 137.097 178.1 136.044 177.994 134.684H179.754C179.847 135.484 180.174 136.137 180.734 136.644C181.294 137.15 182.04 137.404 182.974 137.404C183.907 137.404 184.614 137.164 185.094 136.684C185.587 136.19 185.834 135.557 185.834 134.784C185.834 133.784 185.5 133.064 184.834 132.624C184.167 132.184 183.16 131.964 181.814 131.964H181.354V130.444H181.834C183.06 130.43 183.987 130.23 184.614 129.844C185.24 129.444 185.554 128.83 185.554 128.004C185.554 127.297 185.32 126.73 184.854 126.304C184.4 125.877 183.747 125.664 182.894 125.664C182.067 125.664 181.4 125.877 180.894 126.304C180.387 126.73 180.087 127.304 179.994 128.024H178.214ZM189.651 133.324C189.651 132.204 189.878 131.224 190.331 130.384C190.784 129.53 191.404 128.87 192.191 128.404C192.991 127.937 193.878 127.704 194.851 127.704C195.811 127.704 196.644 127.91 197.351 128.324C198.058 128.737 198.584 129.257 198.931 129.884V127.884H200.771V138.844H198.931V136.804C198.571 137.444 198.031 137.977 197.311 138.404C196.604 138.817 195.778 139.024 194.831 139.024C193.858 139.024 192.978 138.784 192.191 138.304C191.404 137.824 190.784 137.15 190.331 136.284C189.878 135.417 189.651 134.43 189.651 133.324ZM198.931 133.344C198.931 132.517 198.764 131.797 198.431 131.184C198.098 130.57 197.644 130.104 197.071 129.784C196.511 129.45 195.891 129.284 195.211 129.284C194.531 129.284 193.911 129.444 193.351 129.764C192.791 130.084 192.344 130.55 192.011 131.164C191.678 131.777 191.511 132.497 191.511 133.324C191.511 134.164 191.678 134.897 192.011 135.524C192.344 136.137 192.791 136.61 193.351 136.944C193.911 137.264 194.531 137.424 195.211 137.424C195.891 137.424 196.511 137.264 197.071 136.944C197.644 136.61 198.098 136.137 198.431 135.524C198.764 134.897 198.931 134.17 198.931 133.344ZM205.667 124.044V138.844H203.847V124.044H205.667ZM215.921 137.364H220.801V138.844H214.101V124.904H215.921V137.364ZM232.733 132.944C232.733 133.29 232.713 133.657 232.673 134.044H223.913C223.98 135.124 224.347 135.97 225.013 136.584C225.693 137.184 226.513 137.484 227.473 137.484C228.26 137.484 228.913 137.304 229.433 136.944C229.967 136.57 230.34 136.077 230.553 135.464H232.513C232.22 136.517 231.633 137.377 230.753 138.044C229.873 138.697 228.78 139.024 227.473 139.024C226.433 139.024 225.5 138.79 224.673 138.324C223.86 137.857 223.22 137.197 222.753 136.344C222.287 135.477 222.053 134.477 222.053 133.344C222.053 132.21 222.28 131.217 222.733 130.364C223.187 129.51 223.82 128.857 224.633 128.404C225.46 127.937 226.407 127.704 227.473 127.704C228.513 127.704 229.433 127.93 230.233 128.384C231.033 128.837 231.647 129.464 232.073 130.264C232.513 131.05 232.733 131.944 232.733 132.944ZM230.853 132.564C230.853 131.87 230.7 131.277 230.393 130.784C230.087 130.277 229.667 129.897 229.133 129.644C228.613 129.377 228.033 129.244 227.393 129.244C226.473 129.244 225.687 129.537 225.033 130.124C224.393 130.71 224.027 131.524 223.933 132.564H230.853ZM236.956 129.924C237.329 129.27 237.876 128.737 238.596 128.324C239.316 127.91 240.136 127.704 241.056 127.704C242.042 127.704 242.929 127.937 243.716 128.404C244.502 128.87 245.122 129.53 245.576 130.384C246.029 131.224 246.256 132.204 246.256 133.324C246.256 134.43 246.029 135.417 245.576 136.284C245.122 137.15 244.496 137.824 243.696 138.304C242.909 138.784 242.029 139.024 241.056 139.024C240.109 139.024 239.276 138.817 238.556 138.404C237.849 137.99 237.316 137.464 236.956 136.824V138.844H235.136V124.044H236.956V129.924ZM244.396 133.324C244.396 132.497 244.229 131.777 243.896 131.164C243.562 130.55 243.109 130.084 242.536 129.764C241.976 129.444 241.356 129.284 240.676 129.284C240.009 129.284 239.389 129.45 238.816 129.784C238.256 130.104 237.802 130.577 237.456 131.204C237.122 131.817 236.956 132.53 236.956 133.344C236.956 134.17 237.122 134.897 237.456 135.524C237.802 136.137 238.256 136.61 238.816 136.944C239.389 137.264 240.009 137.424 240.676 137.424C241.356 137.424 241.976 137.264 242.536 136.944C243.109 136.61 243.562 136.137 243.896 135.524C244.229 134.897 244.396 134.164 244.396 133.324ZM253.991 127.684C255.325 127.684 256.405 128.09 257.231 128.904C258.058 129.704 258.471 130.864 258.471 132.384V138.844H256.671V132.644C256.671 131.55 256.398 130.717 255.851 130.144C255.305 129.557 254.558 129.264 253.611 129.264C252.651 129.264 251.885 129.564 251.311 130.164C250.751 130.764 250.471 131.637 250.471 132.784V138.844H248.651V127.884H250.471V129.444C250.831 128.884 251.318 128.45 251.931 128.144C252.558 127.837 253.245 127.684 253.991 127.684ZM271.444 132.944C271.444 133.29 271.424 133.657 271.384 134.044H262.624C262.691 135.124 263.058 135.97 263.724 136.584C264.404 137.184 265.224 137.484 266.184 137.484C266.971 137.484 267.624 137.304 268.144 136.944C268.678 136.57 269.051 136.077 269.264 135.464H271.224C270.931 136.517 270.344 137.377 269.464 138.044C268.584 138.697 267.491 139.024 266.184 139.024C265.144 139.024 264.211 138.79 263.384 138.324C262.571 137.857 261.931 137.197 261.464 136.344C260.998 135.477 260.764 134.477 260.764 133.344C260.764 132.21 260.991 131.217 261.444 130.364C261.898 129.51 262.531 128.857 263.344 128.404C264.171 127.937 265.118 127.704 266.184 127.704C267.224 127.704 268.144 127.93 268.944 128.384C269.744 128.837 270.358 129.464 270.784 130.264C271.224 131.05 271.444 131.944 271.444 132.944ZM269.564 132.564C269.564 131.87 269.411 131.277 269.104 130.784C268.798 130.277 268.378 129.897 267.844 129.644C267.324 129.377 266.744 129.244 266.104 129.244C265.184 129.244 264.398 129.537 263.744 130.124C263.104 130.71 262.738 131.524 262.644 132.564H269.564ZM279.187 127.684C280.52 127.684 281.6 128.09 282.427 128.904C283.253 129.704 283.667 130.864 283.667 132.384V138.844H281.867V132.644C281.867 131.55 281.593 130.717 281.047 130.144C280.5 129.557 279.753 129.264 278.807 129.264C277.847 129.264 277.08 129.564 276.507 130.164C275.947 130.764 275.667 131.637 275.667 132.784V138.844H273.847V127.884H275.667V129.444C276.027 128.884 276.513 128.45 277.127 128.144C277.753 127.837 278.44 127.684 279.187 127.684ZM296.64 132.944C296.64 133.29 296.62 133.657 296.58 134.044H287.82C287.886 135.124 288.253 135.97 288.92 136.584C289.6 137.184 290.42 137.484 291.38 137.484C292.166 137.484 292.82 137.304 293.34 136.944C293.873 136.57 294.246 136.077 294.46 135.464H296.42C296.126 136.517 295.54 137.377 294.66 138.044C293.78 138.697 292.686 139.024 291.38 139.024C290.34 139.024 289.406 138.79 288.58 138.324C287.766 137.857 287.126 137.197 286.66 136.344C286.193 135.477 285.96 134.477 285.96 133.344C285.96 132.21 286.186 131.217 286.64 130.364C287.093 129.51 287.726 128.857 288.54 128.404C289.366 127.937 290.313 127.704 291.38 127.704C292.42 127.704 293.34 127.93 294.14 128.384C294.94 128.837 295.553 129.464 295.98 130.264C296.42 131.05 296.64 131.944 296.64 132.944ZM294.76 132.564C294.76 131.87 294.606 131.277 294.3 130.784C293.993 130.277 293.573 129.897 293.04 129.644C292.52 129.377 291.94 129.244 291.3 129.244C290.38 129.244 289.593 129.537 288.94 130.124C288.3 130.71 287.933 131.524 287.84 132.564H294.76ZM314.374 132.944C314.374 133.29 314.354 133.657 314.314 134.044H305.554C305.621 135.124 305.987 135.97 306.654 136.584C307.334 137.184 308.154 137.484 309.114 137.484C309.901 137.484 310.554 137.304 311.074 136.944C311.607 136.57 311.981 136.077 312.194 135.464H314.154C313.861 136.517 313.274 137.377 312.394 138.044C311.514 138.697 310.421 139.024 309.114 139.024C308.074 139.024 307.141 138.79 306.314 138.324C305.501 137.857 304.861 137.197 304.394 136.344C303.927 135.477 303.694 134.477 303.694 133.344C303.694 132.21 303.921 131.217 304.374 130.364C304.827 129.51 305.461 128.857 306.274 128.404C307.101 127.937 308.047 127.704 309.114 127.704C310.154 127.704 311.074 127.93 311.874 128.384C312.674 128.837 313.287 129.464 313.714 130.264C314.154 131.05 314.374 131.944 314.374 132.944ZM312.494 132.564C312.494 131.87 312.341 131.277 312.034 130.784C311.727 130.277 311.307 129.897 310.774 129.644C310.254 129.377 309.674 129.244 309.034 129.244C308.114 129.244 307.327 129.537 306.674 130.124C306.034 130.71 305.667 131.524 305.574 132.564H312.494ZM316.096 133.324C316.096 132.204 316.323 131.224 316.776 130.384C317.23 129.53 317.85 128.87 318.636 128.404C319.436 127.937 320.323 127.704 321.296 127.704C322.256 127.704 323.09 127.91 323.796 128.324C324.503 128.737 325.03 129.257 325.376 129.884V127.884H327.216V138.844H325.376V136.804C325.016 137.444 324.476 137.977 323.756 138.404C323.05 138.817 322.223 139.024 321.276 139.024C320.303 139.024 319.423 138.784 318.636 138.304C317.85 137.824 317.23 137.15 316.776 136.284C316.323 135.417 316.096 134.43 316.096 133.324ZM325.376 133.344C325.376 132.517 325.21 131.797 324.876 131.184C324.543 130.57 324.09 130.104 323.516 129.784C322.956 129.45 322.336 129.284 321.656 129.284C320.976 129.284 320.356 129.444 319.796 129.764C319.236 130.084 318.79 130.55 318.456 131.164C318.123 131.777 317.956 132.497 317.956 133.324C317.956 134.164 318.123 134.897 318.456 135.524C318.79 136.137 319.236 136.61 319.796 136.944C320.356 137.264 320.976 137.424 321.656 137.424C322.336 137.424 322.956 137.264 323.516 136.944C324.09 136.61 324.543 136.137 324.876 135.524C325.21 134.897 325.376 134.17 325.376 133.344ZM332.112 129.664C332.432 129.037 332.885 128.55 333.472 128.204C334.072 127.857 334.799 127.684 335.652 127.684V129.564H335.172C333.132 129.564 332.112 130.67 332.112 132.884V138.844H330.292V127.884H332.112V129.664ZM339.573 129.664C339.893 129.037 340.346 128.55 340.933 128.204C341.533 127.857 342.26 127.684 343.113 127.684V129.564H342.633C340.593 129.564 339.573 130.67 339.573 132.884V138.844H337.753V127.884H339.573V129.664ZM346.154 126.104C345.807 126.104 345.514 125.984 345.274 125.744C345.034 125.504 344.914 125.21 344.914 124.864C344.914 124.517 345.034 124.224 345.274 123.984C345.514 123.744 345.807 123.624 346.154 123.624C346.487 123.624 346.767 123.744 346.994 123.984C347.234 124.224 347.354 124.517 347.354 124.864C347.354 125.21 347.234 125.504 346.994 125.744C346.767 125.984 346.487 126.104 346.154 126.104ZM347.034 127.884V138.844H345.214V127.884H347.034ZM355.476 127.684C356.809 127.684 357.889 128.09 358.716 128.904C359.542 129.704 359.956 130.864 359.956 132.384V138.844H358.156V132.644C358.156 131.55 357.882 130.717 357.336 130.144C356.789 129.557 356.042 129.264 355.096 129.264C354.136 129.264 353.369 129.564 352.796 130.164C352.236 130.764 351.956 131.637 351.956 132.784V138.844H350.136V127.884H351.956V129.444C352.316 128.884 352.802 128.45 353.416 128.144C354.042 127.837 354.729 127.684 355.476 127.684ZM367.449 127.704C368.395 127.704 369.222 127.91 369.929 128.324C370.649 128.737 371.182 129.257 371.529 129.884V127.884H373.369V139.084C373.369 140.084 373.155 140.97 372.729 141.744C372.302 142.53 371.689 143.144 370.889 143.584C370.102 144.024 369.182 144.244 368.129 144.244C366.689 144.244 365.489 143.904 364.529 143.224C363.569 142.544 363.002 141.617 362.829 140.444H364.629C364.829 141.11 365.242 141.644 365.869 142.044C366.495 142.457 367.249 142.664 368.129 142.664C369.129 142.664 369.942 142.35 370.569 141.724C371.209 141.097 371.529 140.217 371.529 139.084V136.784C371.169 137.424 370.635 137.957 369.929 138.384C369.222 138.81 368.395 139.024 367.449 139.024C366.475 139.024 365.589 138.784 364.789 138.304C364.002 137.824 363.382 137.15 362.929 136.284C362.475 135.417 362.249 134.43 362.249 133.324C362.249 132.204 362.475 131.224 362.929 130.384C363.382 129.53 364.002 128.87 364.789 128.404C365.589 127.937 366.475 127.704 367.449 127.704ZM371.529 133.344C371.529 132.517 371.362 131.797 371.029 131.184C370.695 130.57 370.242 130.104 369.669 129.784C369.109 129.45 368.489 129.284 367.809 129.284C367.129 129.284 366.509 129.444 365.949 129.764C365.389 130.084 364.942 130.55 364.609 131.164C364.275 131.777 364.109 132.497 364.109 133.324C364.109 134.164 364.275 134.897 364.609 135.524C364.942 136.137 365.389 136.61 365.949 136.944C366.509 137.264 367.129 137.424 367.809 137.424C368.489 137.424 369.109 137.264 369.669 136.944C370.242 136.61 370.695 136.137 371.029 135.524C371.362 134.897 371.529 134.17 371.529 133.344ZM383.596 137.364H388.476V138.844H381.776V124.904H383.596V137.364ZM391.349 126.104C391.002 126.104 390.709 125.984 390.469 125.744C390.229 125.504 390.109 125.21 390.109 124.864C390.109 124.517 390.229 124.224 390.469 123.984C390.709 123.744 391.002 123.624 391.349 123.624C391.682 123.624 391.962 123.744 392.189 123.984C392.429 124.224 392.549 124.517 392.549 124.864C392.549 125.21 392.429 125.504 392.189 125.744C391.962 125.984 391.682 126.104 391.349 126.104ZM392.229 127.884V138.844H390.409V127.884H392.229ZM400.671 127.684C402.004 127.684 403.084 128.09 403.911 128.904C404.738 129.704 405.151 130.864 405.151 132.384V138.844H403.351V132.644C403.351 131.55 403.078 130.717 402.531 130.144C401.984 129.557 401.238 129.264 400.291 129.264C399.331 129.264 398.564 129.564 397.991 130.164C397.431 130.764 397.151 131.637 397.151 132.784V138.844H395.331V127.884H397.151V129.444C397.511 128.884 397.998 128.45 398.611 128.144C399.238 127.837 399.924 127.684 400.671 127.684ZM418.124 132.944C418.124 133.29 418.104 133.657 418.064 134.044H409.304C409.371 135.124 409.737 135.97 410.404 136.584C411.084 137.184 411.904 137.484 412.864 137.484C413.651 137.484 414.304 137.304 414.824 136.944C415.357 136.57 415.731 136.077 415.944 135.464H417.904C417.611 136.517 417.024 137.377 416.144 138.044C415.264 138.697 414.171 139.024 412.864 139.024C411.824 139.024 410.891 138.79 410.064 138.324C409.251 137.857 408.611 137.197 408.144 136.344C407.677 135.477 407.444 134.477 407.444 133.344C407.444 132.21 407.671 131.217 408.124 130.364C408.577 129.51 409.211 128.857 410.024 128.404C410.851 127.937 411.797 127.704 412.864 127.704C413.904 127.704 414.824 127.93 415.624 128.384C416.424 128.837 417.037 129.464 417.464 130.264C417.904 131.05 418.124 131.944 418.124 132.944ZM416.244 132.564C416.244 131.87 416.091 131.277 415.784 130.784C415.477 130.277 415.057 129.897 414.524 129.644C414.004 129.377 413.424 129.244 412.784 129.244C411.864 129.244 411.077 129.537 410.424 130.124C409.784 130.71 409.417 131.524 409.324 132.564H416.244ZM420.806 124.904H422.826L420.906 129.444H419.626L420.806 124.904ZM424.046 124.904H426.066L424.146 129.444H422.846L424.046 124.904ZM448.056 127.884L444.636 138.844H442.756L440.116 130.144L437.476 138.844H435.596L432.156 127.884H434.016L436.536 137.084L439.256 127.884H441.116L443.776 137.104L446.256 127.884H448.056ZM450.802 126.104C450.456 126.104 450.162 125.984 449.922 125.744C449.682 125.504 449.562 125.21 449.562 124.864C449.562 124.517 449.682 124.224 449.922 123.984C450.162 123.744 450.456 123.624 450.802 123.624C451.136 123.624 451.416 123.744 451.642 123.984C451.882 124.224 452.002 124.517 452.002 124.864C452.002 125.21 451.882 125.504 451.642 125.744C451.416 125.984 451.136 126.104 450.802 126.104ZM451.682 127.884V138.844H449.862V127.884H451.682ZM456.604 124.044V138.844H454.784V124.044H456.604ZM461.526 124.044V138.844H459.706V124.044H461.526ZM479.96 132.944C479.96 133.29 479.94 133.657 479.9 134.044H471.14C471.207 135.124 471.573 135.97 472.24 136.584C472.92 137.184 473.74 137.484 474.7 137.484C475.487 137.484 476.14 137.304 476.66 136.944C477.193 136.57 477.567 136.077 477.78 135.464H479.74C479.447 136.517 478.86 137.377 477.98 138.044C477.1 138.697 476.007 139.024 474.7 139.024C473.66 139.024 472.727 138.79 471.9 138.324C471.087 137.857 470.447 137.197 469.98 136.344C469.513 135.477 469.28 134.477 469.28 133.344C469.28 132.21 469.507 131.217 469.96 130.364C470.413 129.51 471.047 128.857 471.86 128.404C472.687 127.937 473.633 127.704 474.7 127.704C475.74 127.704 476.66 127.93 477.46 128.384C478.26 128.837 478.873 129.464 479.3 130.264C479.74 131.05 479.96 131.944 479.96 132.944ZM478.08 132.564C478.08 131.87 477.927 131.277 477.62 130.784C477.313 130.277 476.893 129.897 476.36 129.644C475.84 129.377 475.26 129.244 474.62 129.244C473.7 129.244 472.913 129.537 472.26 130.124C471.62 130.71 471.253 131.524 471.16 132.564H478.08ZM484.182 124.044V138.844H482.362V124.044H484.182ZM497.284 132.944C497.284 133.29 497.264 133.657 497.224 134.044H488.464C488.531 135.124 488.897 135.97 489.564 136.584C490.244 137.184 491.064 137.484 492.024 137.484C492.811 137.484 493.464 137.304 493.984 136.944C494.517 136.57 494.891 136.077 495.104 135.464H497.064C496.771 136.517 496.184 137.377 495.304 138.044C494.424 138.697 493.331 139.024 492.024 139.024C490.984 139.024 490.051 138.79 489.224 138.324C488.411 137.857 487.771 137.197 487.304 136.344C486.837 135.477 486.604 134.477 486.604 133.344C486.604 132.21 486.831 131.217 487.284 130.364C487.737 129.51 488.371 128.857 489.184 128.404C490.011 127.937 490.957 127.704 492.024 127.704C493.064 127.704 493.984 127.93 494.784 128.384C495.584 128.837 496.197 129.464 496.624 130.264C497.064 131.05 497.284 131.944 497.284 132.944ZM495.404 132.564C495.404 131.87 495.251 131.277 494.944 130.784C494.637 130.277 494.217 129.897 493.684 129.644C493.164 129.377 492.584 129.244 491.944 129.244C491.024 129.244 490.237 129.537 489.584 130.124C488.944 130.71 488.577 131.524 488.484 132.564H495.404ZM503.766 137.164L507.166 127.884H509.106L504.806 138.844H502.686L498.386 127.884H500.346L503.766 137.164ZM510.217 133.324C510.217 132.204 510.444 131.224 510.897 130.384C511.351 129.53 511.971 128.87 512.757 128.404C513.557 127.937 514.444 127.704 515.417 127.704C516.377 127.704 517.211 127.91 517.917 128.324C518.624 128.737 519.151 129.257 519.497 129.884V127.884H521.337V138.844H519.497V136.804C519.137 137.444 518.597 137.977 517.877 138.404C517.171 138.817 516.344 139.024 515.397 139.024C514.424 139.024 513.544 138.784 512.757 138.304C511.971 137.824 511.351 137.15 510.897 136.284C510.444 135.417 510.217 134.43 510.217 133.324ZM519.497 133.344C519.497 132.517 519.331 131.797 518.997 131.184C518.664 130.57 518.211 130.104 517.637 129.784C517.077 129.45 516.457 129.284 515.777 129.284C515.097 129.284 514.477 129.444 513.917 129.764C513.357 130.084 512.911 130.55 512.577 131.164C512.244 131.777 512.077 132.497 512.077 133.324C512.077 134.164 512.244 134.897 512.577 135.524C512.911 136.137 513.357 136.61 513.917 136.944C514.477 137.264 515.097 137.424 515.777 137.424C516.457 137.424 517.077 137.264 517.637 136.944C518.211 136.61 518.664 136.137 518.997 135.524C519.331 134.897 519.497 134.17 519.497 133.344ZM526.633 129.384V135.844C526.633 136.377 526.746 136.757 526.973 136.984C527.2 137.197 527.593 137.304 528.153 137.304H529.493V138.844H527.853C526.84 138.844 526.08 138.61 525.573 138.144C525.066 137.677 524.813 136.91 524.813 135.844V129.384H523.393V127.884H524.813V125.124H526.633V127.884H529.493V129.384H526.633ZM541.698 132.944C541.698 133.29 541.678 133.657 541.638 134.044H532.878C532.945 135.124 533.312 135.97 533.978 136.584C534.658 137.184 535.478 137.484 536.438 137.484C537.225 137.484 537.878 137.304 538.398 136.944C538.932 136.57 539.305 136.077 539.518 135.464H541.478C541.185 136.517 540.598 137.377 539.718 138.044C538.838 138.697 537.745 139.024 536.438 139.024C535.398 139.024 534.465 138.79 533.638 138.324C532.825 137.857 532.185 137.197 531.718 136.344C531.252 135.477 531.018 134.477 531.018 133.344C531.018 132.21 531.245 131.217 531.698 130.364C532.152 129.51 532.785 128.857 533.598 128.404C534.425 127.937 535.372 127.704 536.438 127.704C537.478 127.704 538.398 127.93 539.198 128.384C539.998 128.837 540.612 129.464 541.038 130.264C541.478 131.05 541.698 131.944 541.698 132.944ZM539.818 132.564C539.818 131.87 539.665 131.277 539.358 130.784C539.052 130.277 538.632 129.897 538.098 129.644C537.578 129.377 536.998 129.244 536.358 129.244C535.438 129.244 534.652 129.537 533.998 130.124C533.358 130.71 532.992 131.524 532.898 132.564H539.818ZM548.753 133.324C548.753 132.204 548.979 131.224 549.433 130.384C549.886 129.53 550.506 128.87 551.293 128.404C552.093 127.937 552.979 127.704 553.953 127.704C554.913 127.704 555.746 127.91 556.453 128.324C557.159 128.737 557.686 129.257 558.033 129.884V127.884H559.873V138.844H558.033V136.804C557.673 137.444 557.133 137.977 556.413 138.404C555.706 138.817 554.879 139.024 553.933 139.024C552.959 139.024 552.079 138.784 551.293 138.304C550.506 137.824 549.886 137.15 549.433 136.284C548.979 135.417 548.753 134.43 548.753 133.324ZM558.033 133.344C558.033 132.517 557.866 131.797 557.533 131.184C557.199 130.57 556.746 130.104 556.173 129.784C555.613 129.45 554.993 129.284 554.313 129.284C553.633 129.284 553.013 129.444 552.453 129.764C551.893 130.084 551.446 130.55 551.113 131.164C550.779 131.777 550.613 132.497 550.613 133.324C550.613 134.164 550.779 134.897 551.113 135.524C551.446 136.137 551.893 136.61 552.453 136.944C553.013 137.264 553.633 137.424 554.313 137.424C554.993 137.424 555.613 137.264 556.173 136.944C556.746 136.61 557.199 136.137 557.533 135.524C557.866 134.897 558.033 134.17 558.033 133.344ZM564.768 124.044V138.844H562.948V124.044H564.768ZM569.69 124.044V138.844H567.87V124.044H569.69ZM582.904 139.024C581.877 139.024 580.944 138.79 580.104 138.324C579.277 137.857 578.624 137.197 578.144 136.344C577.677 135.477 577.444 134.477 577.444 133.344C577.444 132.224 577.684 131.237 578.164 130.384C578.657 129.517 579.324 128.857 580.164 128.404C581.004 127.937 581.944 127.704 582.984 127.704C584.024 127.704 584.964 127.937 585.804 128.404C586.644 128.857 587.304 129.51 587.784 130.364C588.277 131.217 588.524 132.21 588.524 133.344C588.524 134.477 588.271 135.477 587.764 136.344C587.271 137.197 586.597 137.857 585.744 138.324C584.891 138.79 583.944 139.024 582.904 139.024ZM582.904 137.424C583.557 137.424 584.171 137.27 584.744 136.964C585.317 136.657 585.777 136.197 586.124 135.584C586.484 134.97 586.664 134.224 586.664 133.344C586.664 132.464 586.491 131.717 586.144 131.104C585.797 130.49 585.344 130.037 584.784 129.744C584.224 129.437 583.617 129.284 582.964 129.284C582.297 129.284 581.684 129.437 581.124 129.744C580.577 130.037 580.137 130.49 579.804 131.104C579.471 131.717 579.304 132.464 579.304 133.344C579.304 134.237 579.464 134.99 579.784 135.604C580.117 136.217 580.557 136.677 581.104 136.984C581.651 137.277 582.251 137.424 582.904 137.424ZM595.377 129.384H593.077V138.844H591.257V129.384H589.837V127.884H591.257V127.104C591.257 125.877 591.57 124.984 592.197 124.424C592.837 123.85 593.857 123.564 595.257 123.564V125.084C594.457 125.084 593.89 125.244 593.557 125.564C593.237 125.87 593.077 126.384 593.077 127.104V127.884H595.377V129.384ZM62.6128 157.884L56.0128 174.004H54.1328L56.2928 168.724L51.8728 157.884H53.8928L57.3328 166.764L60.7328 157.884H62.6128ZM69.2223 169.024C68.1957 169.024 67.2623 168.79 66.4223 168.324C65.5957 167.857 64.9423 167.197 64.4623 166.344C63.9957 165.477 63.7623 164.477 63.7623 163.344C63.7623 162.224 64.0023 161.237 64.4823 160.384C64.9757 159.517 65.6423 158.857 66.4823 158.404C67.3223 157.937 68.2623 157.704 69.3023 157.704C70.3423 157.704 71.2823 157.937 72.1223 158.404C72.9623 158.857 73.6223 159.51 74.1023 160.364C74.5957 161.217 74.8423 162.21 74.8423 163.344C74.8423 164.477 74.589 165.477 74.0823 166.344C73.589 167.197 72.9157 167.857 72.0623 168.324C71.209 168.79 70.2623 169.024 69.2223 169.024ZM69.2223 167.424C69.8757 167.424 70.489 167.27 71.0623 166.964C71.6357 166.657 72.0957 166.197 72.4423 165.584C72.8023 164.97 72.9823 164.224 72.9823 163.344C72.9823 162.464 72.809 161.717 72.4623 161.104C72.1157 160.49 71.6623 160.037 71.1023 159.744C70.5423 159.437 69.9357 159.284 69.2823 159.284C68.6157 159.284 68.0023 159.437 67.4423 159.744C66.8957 160.037 66.4557 160.49 66.1223 161.104C65.789 161.717 65.6223 162.464 65.6223 163.344C65.6223 164.237 65.7823 164.99 66.1023 165.604C66.4357 166.217 66.8757 166.677 67.4223 166.984C67.969 167.277 68.569 167.424 69.2223 167.424ZM86.9553 157.884V168.844H85.1353V167.224C84.7886 167.784 84.302 168.224 83.6753 168.544C83.062 168.85 82.382 169.004 81.6353 169.004C80.782 169.004 80.0153 168.83 79.3353 168.484C78.6553 168.124 78.1153 167.59 77.7153 166.884C77.3286 166.177 77.1353 165.317 77.1353 164.304V157.884H78.9353V164.064C78.9353 165.144 79.2086 165.977 79.7553 166.564C80.302 167.137 81.0486 167.424 81.9953 167.424C82.9686 167.424 83.7353 167.124 84.2953 166.524C84.8553 165.924 85.1353 165.05 85.1353 163.904V157.884H86.9553ZM91.8483 159.664C92.1683 159.037 92.6216 158.55 93.2083 158.204C93.8083 157.857 94.5349 157.684 95.3883 157.684V159.564H94.9083C92.8683 159.564 91.8483 160.67 91.8483 162.884V168.844H90.0283V157.884H91.8483V159.664ZM104.641 154.044V168.844H102.821V154.044H104.641ZM112.523 169.024C111.496 169.024 110.563 168.79 109.723 168.324C108.896 167.857 108.243 167.197 107.763 166.344C107.296 165.477 107.063 164.477 107.063 163.344C107.063 162.224 107.303 161.237 107.783 160.384C108.276 159.517 108.943 158.857 109.783 158.404C110.623 157.937 111.563 157.704 112.603 157.704C113.643 157.704 114.583 157.937 115.423 158.404C116.263 158.857 116.923 159.51 117.403 160.364C117.896 161.217 118.143 162.21 118.143 163.344C118.143 164.477 117.89 165.477 117.383 166.344C116.89 167.197 116.216 167.857 115.363 168.324C114.51 168.79 113.563 169.024 112.523 169.024ZM112.523 167.424C113.176 167.424 113.79 167.27 114.363 166.964C114.936 166.657 115.396 166.197 115.743 165.584C116.103 164.97 116.283 164.224 116.283 163.344C116.283 162.464 116.11 161.717 115.763 161.104C115.416 160.49 114.963 160.037 114.403 159.744C113.843 159.437 113.236 159.284 112.583 159.284C111.916 159.284 111.303 159.437 110.743 159.744C110.196 160.037 109.756 160.49 109.423 161.104C109.09 161.717 108.923 162.464 108.923 163.344C108.923 164.237 109.083 164.99 109.403 165.604C109.736 166.217 110.176 166.677 110.723 166.984C111.27 167.277 111.87 167.424 112.523 167.424ZM125.316 169.024C124.289 169.024 123.356 168.79 122.516 168.324C121.689 167.857 121.036 167.197 120.556 166.344C120.089 165.477 119.856 164.477 119.856 163.344C119.856 162.224 120.096 161.237 120.576 160.384C121.069 159.517 121.736 158.857 122.576 158.404C123.416 157.937 124.356 157.704 125.396 157.704C126.436 157.704 127.376 157.937 128.216 158.404C129.056 158.857 129.716 159.51 130.196 160.364C130.689 161.217 130.936 162.21 130.936 163.344C130.936 164.477 130.683 165.477 130.176 166.344C129.683 167.197 129.009 167.857 128.156 168.324C127.303 168.79 126.356 169.024 125.316 169.024ZM125.316 167.424C125.969 167.424 126.583 167.27 127.156 166.964C127.729 166.657 128.189 166.197 128.536 165.584C128.896 164.97 129.076 164.224 129.076 163.344C129.076 162.464 128.903 161.717 128.556 161.104C128.209 160.49 127.756 160.037 127.196 159.744C126.636 159.437 126.029 159.284 125.376 159.284C124.709 159.284 124.096 159.437 123.536 159.744C122.989 160.037 122.549 160.49 122.216 161.104C121.883 161.717 121.716 162.464 121.716 163.344C121.716 164.237 121.876 164.99 122.196 165.604C122.529 166.217 122.969 166.677 123.516 166.984C124.063 167.277 124.663 167.424 125.316 167.424ZM139.449 168.844L135.149 164.004V168.844H133.329V154.044H135.149V162.744L139.369 157.884H141.909L136.749 163.344L141.929 168.844H139.449ZM147.502 169.024C146.662 169.024 145.909 168.884 145.242 168.604C144.575 168.31 144.049 167.91 143.662 167.404C143.275 166.884 143.062 166.29 143.022 165.624H144.902C144.955 166.17 145.209 166.617 145.662 166.964C146.129 167.31 146.735 167.484 147.482 167.484C148.175 167.484 148.722 167.33 149.122 167.024C149.522 166.717 149.722 166.33 149.722 165.864C149.722 165.384 149.509 165.03 149.082 164.804C148.655 164.564 147.995 164.33 147.102 164.104C146.289 163.89 145.622 163.677 145.102 163.464C144.595 163.237 144.155 162.91 143.782 162.484C143.422 162.044 143.242 161.47 143.242 160.764C143.242 160.204 143.409 159.69 143.742 159.224C144.075 158.757 144.549 158.39 145.162 158.124C145.775 157.844 146.475 157.704 147.262 157.704C148.475 157.704 149.455 158.01 150.202 158.624C150.949 159.237 151.349 160.077 151.402 161.144H149.582C149.542 160.57 149.309 160.11 148.882 159.764C148.469 159.417 147.909 159.244 147.202 159.244C146.549 159.244 146.029 159.384 145.642 159.664C145.255 159.944 145.062 160.31 145.062 160.764C145.062 161.124 145.175 161.424 145.402 161.664C145.642 161.89 145.935 162.077 146.282 162.224C146.642 162.357 147.135 162.51 147.762 162.684C148.549 162.897 149.189 163.11 149.682 163.324C150.175 163.524 150.595 163.83 150.942 164.244C151.302 164.657 151.489 165.197 151.502 165.864C151.502 166.464 151.335 167.004 151.002 167.484C150.669 167.964 150.195 168.344 149.582 168.624C148.982 168.89 148.289 169.024 147.502 169.024ZM155.951 166.324L153.711 171.704H152.491L153.951 166.324H155.951ZM162.688 163.324C162.688 162.204 162.915 161.224 163.368 160.384C163.821 159.53 164.441 158.87 165.228 158.404C166.028 157.937 166.915 157.704 167.888 157.704C168.848 157.704 169.681 157.91 170.388 158.324C171.095 158.737 171.621 159.257 171.968 159.884V157.884H173.808V168.844H171.968V166.804C171.608 167.444 171.068 167.977 170.348 168.404C169.641 168.817 168.815 169.024 167.868 169.024C166.895 169.024 166.015 168.784 165.228 168.304C164.441 167.824 163.821 167.15 163.368 166.284C162.915 165.417 162.688 164.43 162.688 163.324ZM171.968 163.344C171.968 162.517 171.801 161.797 171.468 161.184C171.135 160.57 170.681 160.104 170.108 159.784C169.548 159.45 168.928 159.284 168.248 159.284C167.568 159.284 166.948 159.444 166.388 159.764C165.828 160.084 165.381 160.55 165.048 161.164C164.715 161.777 164.548 162.497 164.548 163.324C164.548 164.164 164.715 164.897 165.048 165.524C165.381 166.137 165.828 166.61 166.388 166.944C166.948 167.264 167.568 167.424 168.248 167.424C168.928 167.424 169.548 167.264 170.108 166.944C170.681 166.61 171.135 166.137 171.468 165.524C171.801 164.897 171.968 164.17 171.968 163.344ZM176.204 163.324C176.204 162.204 176.43 161.224 176.884 160.384C177.337 159.53 177.957 158.87 178.744 158.404C179.544 157.937 180.437 157.704 181.424 157.704C182.277 157.704 183.07 157.904 183.804 158.304C184.537 158.69 185.097 159.204 185.484 159.844V154.044H187.324V168.844H185.484V166.784C185.124 167.437 184.59 167.977 183.884 168.404C183.177 168.817 182.35 169.024 181.404 169.024C180.43 169.024 179.544 168.784 178.744 168.304C177.957 167.824 177.337 167.15 176.884 166.284C176.43 165.417 176.204 164.43 176.204 163.324ZM185.484 163.344C185.484 162.517 185.317 161.797 184.984 161.184C184.65 160.57 184.197 160.104 183.624 159.784C183.064 159.45 182.444 159.284 181.764 159.284C181.084 159.284 180.464 159.444 179.904 159.764C179.344 160.084 178.897 160.55 178.564 161.164C178.23 161.777 178.064 162.497 178.064 163.324C178.064 164.164 178.23 164.897 178.564 165.524C178.897 166.137 179.344 166.61 179.904 166.944C180.464 167.264 181.084 167.424 181.764 167.424C182.444 167.424 183.064 167.264 183.624 166.944C184.197 166.61 184.65 166.137 184.984 165.524C185.317 164.897 185.484 164.17 185.484 163.344ZM189.719 163.324C189.719 162.204 189.946 161.224 190.399 160.384C190.853 159.53 191.473 158.87 192.259 158.404C193.059 157.937 193.953 157.704 194.939 157.704C195.793 157.704 196.586 157.904 197.319 158.304C198.053 158.69 198.613 159.204 198.999 159.844V154.044H200.839V168.844H198.999V166.784C198.639 167.437 198.106 167.977 197.399 168.404C196.693 168.817 195.866 169.024 194.919 169.024C193.946 169.024 193.059 168.784 192.259 168.304C191.473 167.824 190.853 167.15 190.399 166.284C189.946 165.417 189.719 164.43 189.719 163.324ZM198.999 163.344C198.999 162.517 198.833 161.797 198.499 161.184C198.166 160.57 197.713 160.104 197.139 159.784C196.579 159.45 195.959 159.284 195.279 159.284C194.599 159.284 193.979 159.444 193.419 159.764C192.859 160.084 192.413 160.55 192.079 161.164C191.746 161.777 191.579 162.497 191.579 163.324C191.579 164.164 191.746 164.897 192.079 165.524C192.413 166.137 192.859 166.61 193.419 166.944C193.979 167.264 194.599 167.424 195.279 167.424C195.959 167.424 196.579 167.264 197.139 166.944C197.713 166.61 198.166 166.137 198.499 165.524C198.833 164.897 198.999 164.17 198.999 163.344ZM204.855 156.104C204.508 156.104 204.215 155.984 203.975 155.744C203.735 155.504 203.615 155.21 203.615 154.864C203.615 154.517 203.735 154.224 203.975 153.984C204.215 153.744 204.508 153.624 204.855 153.624C205.188 153.624 205.468 153.744 205.695 153.984C205.935 154.224 206.055 154.517 206.055 154.864C206.055 155.21 205.935 155.504 205.695 155.744C205.468 155.984 205.188 156.104 204.855 156.104ZM205.735 157.884V168.844H203.915V157.884H205.735ZM214.177 157.684C215.51 157.684 216.59 158.09 217.417 158.904C218.244 159.704 218.657 160.864 218.657 162.384V168.844H216.857V162.644C216.857 161.55 216.584 160.717 216.037 160.144C215.49 159.557 214.744 159.264 213.797 159.264C212.837 159.264 212.07 159.564 211.497 160.164C210.937 160.764 210.657 161.637 210.657 162.784V168.844H208.837V157.884H210.657V159.444C211.017 158.884 211.504 158.45 212.117 158.144C212.744 157.837 213.43 157.684 214.177 157.684ZM226.15 157.704C227.097 157.704 227.923 157.91 228.63 158.324C229.35 158.737 229.883 159.257 230.23 159.884V157.884H232.07V169.084C232.07 170.084 231.857 170.97 231.43 171.744C231.003 172.53 230.39 173.144 229.59 173.584C228.803 174.024 227.883 174.244 226.83 174.244C225.39 174.244 224.19 173.904 223.23 173.224C222.27 172.544 221.703 171.617 221.53 170.444H223.33C223.53 171.11 223.943 171.644 224.57 172.044C225.197 172.457 225.95 172.664 226.83 172.664C227.83 172.664 228.643 172.35 229.27 171.724C229.91 171.097 230.23 170.217 230.23 169.084V166.784C229.87 167.424 229.337 167.957 228.63 168.384C227.923 168.81 227.097 169.024 226.15 169.024C225.177 169.024 224.29 168.784 223.49 168.304C222.703 167.824 222.083 167.15 221.63 166.284C221.177 165.417 220.95 164.43 220.95 163.324C220.95 162.204 221.177 161.224 221.63 160.384C222.083 159.53 222.703 158.87 223.49 158.404C224.29 157.937 225.177 157.704 226.15 157.704ZM230.23 163.344C230.23 162.517 230.063 161.797 229.73 161.184C229.397 160.57 228.943 160.104 228.37 159.784C227.81 159.45 227.19 159.284 226.51 159.284C225.83 159.284 225.21 159.444 224.65 159.764C224.09 160.084 223.643 160.55 223.31 161.164C222.977 161.777 222.81 162.497 222.81 163.324C222.81 164.164 222.977 164.897 223.31 165.524C223.643 166.137 224.09 166.61 224.65 166.944C225.21 167.264 225.83 167.424 226.51 167.424C227.19 167.424 227.81 167.264 228.37 166.944C228.943 166.61 229.397 166.137 229.73 165.524C230.063 164.897 230.23 164.17 230.23 163.344ZM239.798 163.324C239.798 162.204 240.024 161.224 240.478 160.384C240.931 159.53 241.551 158.87 242.338 158.404C243.138 157.937 244.024 157.704 244.998 157.704C245.958 157.704 246.791 157.91 247.498 158.324C248.204 158.737 248.731 159.257 249.078 159.884V157.884H250.918V168.844H249.078V166.804C248.718 167.444 248.178 167.977 247.458 168.404C246.751 168.817 245.924 169.024 244.978 169.024C244.004 169.024 243.124 168.784 242.338 168.304C241.551 167.824 240.931 167.15 240.478 166.284C240.024 165.417 239.798 164.43 239.798 163.324ZM249.078 163.344C249.078 162.517 248.911 161.797 248.578 161.184C248.244 160.57 247.791 160.104 247.218 159.784C246.658 159.45 246.038 159.284 245.358 159.284C244.678 159.284 244.058 159.444 243.498 159.764C242.938 160.084 242.491 160.55 242.158 161.164C241.824 161.777 241.658 162.497 241.658 163.324C241.658 164.164 241.824 164.897 242.158 165.524C242.491 166.137 242.938 166.61 243.498 166.944C244.058 167.264 244.678 167.424 245.358 167.424C246.038 167.424 246.658 167.264 247.218 166.944C247.791 166.61 248.244 166.137 248.578 165.524C248.911 164.897 249.078 164.17 249.078 163.344ZM268.537 169.024C267.697 169.024 266.944 168.884 266.277 168.604C265.611 168.31 265.084 167.91 264.697 167.404C264.311 166.884 264.097 166.29 264.057 165.624H265.937C265.991 166.17 266.244 166.617 266.697 166.964C267.164 167.31 267.771 167.484 268.517 167.484C269.211 167.484 269.757 167.33 270.157 167.024C270.557 166.717 270.757 166.33 270.757 165.864C270.757 165.384 270.544 165.03 270.117 164.804C269.691 164.564 269.031 164.33 268.137 164.104C267.324 163.89 266.657 163.677 266.137 163.464C265.631 163.237 265.191 162.91 264.817 162.484C264.457 162.044 264.277 161.47 264.277 160.764C264.277 160.204 264.444 159.69 264.777 159.224C265.111 158.757 265.584 158.39 266.197 158.124C266.811 157.844 267.511 157.704 268.297 157.704C269.511 157.704 270.491 158.01 271.237 158.624C271.984 159.237 272.384 160.077 272.437 161.144H270.617C270.577 160.57 270.344 160.11 269.917 159.764C269.504 159.417 268.944 159.244 268.237 159.244C267.584 159.244 267.064 159.384 266.677 159.664C266.291 159.944 266.097 160.31 266.097 160.764C266.097 161.124 266.211 161.424 266.437 161.664C266.677 161.89 266.971 162.077 267.317 162.224C267.677 162.357 268.171 162.51 268.797 162.684C269.584 162.897 270.224 163.11 270.717 163.324C271.211 163.524 271.631 163.83 271.977 164.244C272.337 164.657 272.524 165.197 272.537 165.864C272.537 166.464 272.371 167.004 272.037 167.484C271.704 167.964 271.231 168.344 270.617 168.624C270.017 168.89 269.324 169.024 268.537 169.024ZM285.106 162.944C285.106 163.29 285.086 163.657 285.046 164.044H276.286C276.353 165.124 276.72 165.97 277.386 166.584C278.066 167.184 278.886 167.484 279.846 167.484C280.633 167.484 281.286 167.304 281.806 166.944C282.34 166.57 282.713 166.077 282.926 165.464H284.886C284.593 166.517 284.006 167.377 283.126 168.044C282.246 168.697 281.153 169.024 279.846 169.024C278.806 169.024 277.873 168.79 277.046 168.324C276.233 167.857 275.593 167.197 275.126 166.344C274.66 165.477 274.426 164.477 274.426 163.344C274.426 162.21 274.653 161.217 275.106 160.364C275.56 159.51 276.193 158.857 277.006 158.404C277.833 157.937 278.78 157.704 279.846 157.704C280.886 157.704 281.806 157.93 282.606 158.384C283.406 158.837 284.02 159.464 284.446 160.264C284.886 161.05 285.106 161.944 285.106 162.944ZM283.226 162.564C283.226 161.87 283.073 161.277 282.766 160.784C282.46 160.277 282.04 159.897 281.506 159.644C280.986 159.377 280.406 159.244 279.766 159.244C278.846 159.244 278.06 159.537 277.406 160.124C276.766 160.71 276.4 161.524 276.306 162.564H283.226ZM292.849 157.684C294.182 157.684 295.262 158.09 296.089 158.904C296.915 159.704 297.329 160.864 297.329 162.384V168.844H295.529V162.644C295.529 161.55 295.255 160.717 294.709 160.144C294.162 159.557 293.415 159.264 292.469 159.264C291.509 159.264 290.742 159.564 290.169 160.164C289.609 160.764 289.329 161.637 289.329 162.784V168.844H287.509V157.884H289.329V159.444C289.689 158.884 290.175 158.45 290.789 158.144C291.415 157.837 292.102 157.684 292.849 157.684ZM304.182 169.024C303.342 169.024 302.588 168.884 301.922 168.604C301.255 168.31 300.728 167.91 300.342 167.404C299.955 166.884 299.742 166.29 299.702 165.624H301.582C301.635 166.17 301.888 166.617 302.342 166.964C302.808 167.31 303.415 167.484 304.162 167.484C304.855 167.484 305.402 167.33 305.802 167.024C306.202 166.717 306.402 166.33 306.402 165.864C306.402 165.384 306.188 165.03 305.762 164.804C305.335 164.564 304.675 164.33 303.782 164.104C302.968 163.89 302.302 163.677 301.782 163.464C301.275 163.237 300.835 162.91 300.462 162.484C300.102 162.044 299.922 161.47 299.922 160.764C299.922 160.204 300.088 159.69 300.422 159.224C300.755 158.757 301.228 158.39 301.842 158.124C302.455 157.844 303.155 157.704 303.942 157.704C305.155 157.704 306.135 158.01 306.882 158.624C307.628 159.237 308.028 160.077 308.082 161.144H306.262C306.222 160.57 305.988 160.11 305.562 159.764C305.148 159.417 304.588 159.244 303.882 159.244C303.228 159.244 302.708 159.384 302.322 159.664C301.935 159.944 301.742 160.31 301.742 160.764C301.742 161.124 301.855 161.424 302.082 161.664C302.322 161.89 302.615 162.077 302.962 162.224C303.322 162.357 303.815 162.51 304.442 162.684C305.228 162.897 305.868 163.11 306.362 163.324C306.855 163.524 307.275 163.83 307.622 164.244C307.982 164.657 308.168 165.197 308.182 165.864C308.182 166.464 308.015 167.004 307.682 167.484C307.348 167.964 306.875 168.344 306.262 168.624C305.662 168.89 304.968 169.024 304.182 169.024ZM320.751 162.944C320.751 163.29 320.731 163.657 320.691 164.044H311.931C311.998 165.124 312.364 165.97 313.031 166.584C313.711 167.184 314.531 167.484 315.491 167.484C316.278 167.484 316.931 167.304 317.451 166.944C317.984 166.57 318.358 166.077 318.571 165.464H320.531C320.238 166.517 319.651 167.377 318.771 168.044C317.891 168.697 316.798 169.024 315.491 169.024C314.451 169.024 313.518 168.79 312.691 168.324C311.878 167.857 311.238 167.197 310.771 166.344C310.304 165.477 310.071 164.477 310.071 163.344C310.071 162.21 310.298 161.217 310.751 160.364C311.204 159.51 311.838 158.857 312.651 158.404C313.478 157.937 314.424 157.704 315.491 157.704C316.531 157.704 317.451 157.93 318.251 158.384C319.051 158.837 319.664 159.464 320.091 160.264C320.531 161.05 320.751 161.944 320.751 162.944ZM318.871 162.564C318.871 161.87 318.718 161.277 318.411 160.784C318.104 160.277 317.684 159.897 317.151 159.644C316.631 159.377 316.051 159.244 315.411 159.244C314.491 159.244 313.704 159.537 313.051 160.124C312.411 160.71 312.044 161.524 311.951 162.564H318.871ZM333.265 169.024C332.239 169.024 331.305 168.79 330.465 168.324C329.639 167.857 328.985 167.197 328.505 166.344C328.039 165.477 327.805 164.477 327.805 163.344C327.805 162.224 328.045 161.237 328.525 160.384C329.019 159.517 329.685 158.857 330.525 158.404C331.365 157.937 332.305 157.704 333.345 157.704C334.385 157.704 335.325 157.937 336.165 158.404C337.005 158.857 337.665 159.51 338.145 160.364C338.639 161.217 338.885 162.21 338.885 163.344C338.885 164.477 338.632 165.477 338.125 166.344C337.632 167.197 336.959 167.857 336.105 168.324C335.252 168.79 334.305 169.024 333.265 169.024ZM333.265 167.424C333.919 167.424 334.532 167.27 335.105 166.964C335.679 166.657 336.139 166.197 336.485 165.584C336.845 164.97 337.025 164.224 337.025 163.344C337.025 162.464 336.852 161.717 336.505 161.104C336.159 160.49 335.705 160.037 335.145 159.744C334.585 159.437 333.979 159.284 333.325 159.284C332.659 159.284 332.045 159.437 331.485 159.744C330.939 160.037 330.499 160.49 330.165 161.104C329.832 161.717 329.665 162.464 329.665 163.344C329.665 164.237 329.825 164.99 330.145 165.604C330.479 166.217 330.919 166.677 331.465 166.984C332.012 167.277 332.612 167.424 333.265 167.424ZM345.738 159.384H343.438V168.844H341.618V159.384H340.198V157.884H341.618V157.104C341.618 155.877 341.932 154.984 342.558 154.424C343.198 153.85 344.218 153.564 345.618 153.564V155.084C344.818 155.084 344.252 155.244 343.918 155.564C343.598 155.87 343.438 156.384 343.438 157.104V157.884H345.738V159.384ZM355.012 167.364H359.892V168.844H353.192V154.904H355.012V167.364ZM371.825 162.944C371.825 163.29 371.805 163.657 371.765 164.044H363.005C363.072 165.124 363.438 165.97 364.105 166.584C364.785 167.184 365.605 167.484 366.565 167.484C367.352 167.484 368.005 167.304 368.525 166.944C369.058 166.57 369.432 166.077 369.645 165.464H371.605C371.312 166.517 370.725 167.377 369.845 168.044C368.965 168.697 367.872 169.024 366.565 169.024C365.525 169.024 364.592 168.79 363.765 168.324C362.952 167.857 362.312 167.197 361.845 166.344C361.378 165.477 361.145 164.477 361.145 163.344C361.145 162.21 361.372 161.217 361.825 160.364C362.278 159.51 362.912 158.857 363.725 158.404C364.552 157.937 365.498 157.704 366.565 157.704C367.605 157.704 368.525 157.93 369.325 158.384C370.125 158.837 370.738 159.464 371.165 160.264C371.605 161.05 371.825 161.944 371.825 162.944ZM369.945 162.564C369.945 161.87 369.792 161.277 369.485 160.784C369.178 160.277 368.758 159.897 368.225 159.644C367.705 159.377 367.125 159.244 366.485 159.244C365.565 159.244 364.778 159.537 364.125 160.124C363.485 160.71 363.118 161.524 363.025 162.564H369.945ZM376.048 159.924C376.421 159.27 376.968 158.737 377.688 158.324C378.408 157.91 379.228 157.704 380.148 157.704C381.134 157.704 382.021 157.937 382.808 158.404C383.594 158.87 384.214 159.53 384.668 160.384C385.121 161.224 385.348 162.204 385.348 163.324C385.348 164.43 385.121 165.417 384.668 166.284C384.214 167.15 383.587 167.824 382.787 168.304C382.001 168.784 381.121 169.024 380.148 169.024C379.201 169.024 378.368 168.817 377.648 168.404C376.941 167.99 376.408 167.464 376.048 166.824V168.844H374.228V154.044H376.048V159.924ZM383.488 163.324C383.488 162.497 383.321 161.777 382.988 161.164C382.654 160.55 382.201 160.084 381.628 159.764C381.068 159.444 380.448 159.284 379.768 159.284C379.101 159.284 378.481 159.45 377.908 159.784C377.348 160.104 376.894 160.577 376.548 161.204C376.214 161.817 376.048 162.53 376.048 163.344C376.048 164.17 376.214 164.897 376.548 165.524C376.894 166.137 377.348 166.61 377.908 166.944C378.481 167.264 379.101 167.424 379.768 167.424C380.448 167.424 381.068 167.264 381.628 166.944C382.201 166.61 382.654 166.137 382.988 165.524C383.321 164.897 383.488 164.164 383.488 163.324ZM387.063 163.324C387.063 162.204 387.29 161.224 387.743 160.384C388.196 159.53 388.816 158.87 389.603 158.404C390.403 157.937 391.29 157.704 392.263 157.704C393.223 157.704 394.056 157.91 394.763 158.324C395.47 158.737 395.996 159.257 396.343 159.884V157.884H398.183V168.844H396.343V166.804C395.983 167.444 395.443 167.977 394.723 168.404C394.016 168.817 393.19 169.024 392.243 169.024C391.27 169.024 390.39 168.784 389.603 168.304C388.816 167.824 388.196 167.15 387.743 166.284C387.29 165.417 387.063 164.43 387.063 163.324ZM396.343 163.344C396.343 162.517 396.176 161.797 395.843 161.184C395.51 160.57 395.056 160.104 394.483 159.784C393.923 159.45 393.303 159.284 392.623 159.284C391.943 159.284 391.323 159.444 390.763 159.764C390.203 160.084 389.756 160.55 389.423 161.164C389.09 161.777 388.923 162.497 388.923 163.324C388.923 164.164 389.09 164.897 389.423 165.524C389.756 166.137 390.203 166.61 390.763 166.944C391.323 167.264 391.943 167.424 392.623 167.424C393.303 167.424 393.923 167.264 394.483 166.944C395.056 166.61 395.51 166.137 395.843 165.524C396.176 164.897 396.343 164.17 396.343 163.344ZM406.599 157.684C407.932 157.684 409.012 158.09 409.839 158.904C410.665 159.704 411.079 160.864 411.079 162.384V168.844H409.279V162.644C409.279 161.55 409.005 160.717 408.459 160.144C407.912 159.557 407.165 159.264 406.219 159.264C405.259 159.264 404.492 159.564 403.919 160.164C403.359 160.764 403.079 161.637 403.079 162.784V168.844H401.259V157.884H403.079V159.444C403.439 158.884 403.925 158.45 404.539 158.144C405.165 157.837 405.852 157.684 406.599 157.684ZM424.052 162.944C424.052 163.29 424.032 163.657 423.992 164.044H415.232C415.298 165.124 415.665 165.97 416.332 166.584C417.012 167.184 417.832 167.484 418.792 167.484C419.578 167.484 420.232 167.304 420.752 166.944C421.285 166.57 421.658 166.077 421.872 165.464H423.832C423.538 166.517 422.952 167.377 422.072 168.044C421.192 168.697 420.098 169.024 418.792 169.024C417.752 169.024 416.818 168.79 415.992 168.324C415.178 167.857 414.538 167.197 414.072 166.344C413.605 165.477 413.372 164.477 413.372 163.344C413.372 162.21 413.598 161.217 414.052 160.364C414.505 159.51 415.138 158.857 415.952 158.404C416.778 157.937 417.725 157.704 418.792 157.704C419.832 157.704 420.752 157.93 421.552 158.384C422.352 158.837 422.965 159.464 423.392 160.264C423.832 161.05 424.052 161.944 424.052 162.944ZM422.172 162.564C422.172 161.87 422.018 161.277 421.712 160.784C421.405 160.277 420.985 159.897 420.452 159.644C419.932 159.377 419.352 159.244 418.712 159.244C417.792 159.244 417.005 159.537 416.352 160.124C415.712 160.71 415.345 161.524 415.252 162.564H422.172ZM430.334 169.024C429.494 169.024 428.741 168.884 428.074 168.604C427.407 168.31 426.881 167.91 426.494 167.404C426.107 166.884 425.894 166.29 425.854 165.624H427.734C427.787 166.17 428.041 166.617 428.494 166.964C428.961 167.31 429.567 167.484 430.314 167.484C431.007 167.484 431.554 167.33 431.954 167.024C432.354 166.717 432.554 166.33 432.554 165.864C432.554 165.384 432.341 165.03 431.914 164.804C431.487 164.564 430.827 164.33 429.934 164.104C429.121 163.89 428.454 163.677 427.934 163.464C427.427 163.237 426.987 162.91 426.614 162.484C426.254 162.044 426.074 161.47 426.074 160.764C426.074 160.204 426.241 159.69 426.574 159.224C426.907 158.757 427.381 158.39 427.994 158.124C428.607 157.844 429.307 157.704 430.094 157.704C431.307 157.704 432.287 158.01 433.034 158.624C433.781 159.237 434.181 160.077 434.234 161.144H432.414C432.374 160.57 432.141 160.11 431.714 159.764C431.301 159.417 430.741 159.244 430.034 159.244C429.381 159.244 428.861 159.384 428.474 159.664C428.087 159.944 427.894 160.31 427.894 160.764C427.894 161.124 428.007 161.424 428.234 161.664C428.474 161.89 428.767 162.077 429.114 162.224C429.474 162.357 429.967 162.51 430.594 162.684C431.381 162.897 432.021 163.11 432.514 163.324C433.007 163.524 433.427 163.83 433.774 164.244C434.134 164.657 434.321 165.197 434.334 165.864C434.334 166.464 434.167 167.004 433.834 167.484C433.501 167.964 433.027 168.344 432.414 168.624C431.814 168.89 431.121 169.024 430.334 169.024ZM446.903 162.944C446.903 163.29 446.883 163.657 446.843 164.044H438.083C438.15 165.124 438.517 165.97 439.183 166.584C439.863 167.184 440.683 167.484 441.643 167.484C442.43 167.484 443.083 167.304 443.603 166.944C444.137 166.57 444.51 166.077 444.723 165.464H446.683C446.39 166.517 445.803 167.377 444.923 168.044C444.043 168.697 442.95 169.024 441.643 169.024C440.603 169.024 439.67 168.79 438.843 168.324C438.03 167.857 437.39 167.197 436.923 166.344C436.457 165.477 436.223 164.477 436.223 163.344C436.223 162.21 436.45 161.217 436.903 160.364C437.357 159.51 437.99 158.857 438.803 158.404C439.63 157.937 440.577 157.704 441.643 157.704C442.683 157.704 443.603 157.93 444.403 158.384C445.203 158.837 445.817 159.464 446.243 160.264C446.683 161.05 446.903 161.944 446.903 162.944ZM445.023 162.564C445.023 161.87 444.87 161.277 444.563 160.784C444.257 160.277 443.837 159.897 443.303 159.644C442.783 159.377 442.203 159.244 441.563 159.244C440.643 159.244 439.857 159.537 439.203 160.124C438.563 160.71 438.197 161.524 438.103 162.564H445.023ZM465.598 168.844H463.778L456.458 157.744V168.844H454.638V154.884H456.458L463.778 165.964V154.884H465.598V168.844ZM473.48 169.024C472.453 169.024 471.52 168.79 470.68 168.324C469.853 167.857 469.2 167.197 468.72 166.344C468.253 165.477 468.02 164.477 468.02 163.344C468.02 162.224 468.26 161.237 468.74 160.384C469.233 159.517 469.9 158.857 470.74 158.404C471.58 157.937 472.52 157.704 473.56 157.704C474.6 157.704 475.54 157.937 476.38 158.404C477.22 158.857 477.88 159.51 478.36 160.364C478.853 161.217 479.1 162.21 479.1 163.344C479.1 164.477 478.847 165.477 478.34 166.344C477.847 167.197 477.173 167.857 476.32 168.324C475.467 168.79 474.52 169.024 473.48 169.024ZM473.48 167.424C474.133 167.424 474.747 167.27 475.32 166.964C475.893 166.657 476.353 166.197 476.7 165.584C477.06 164.97 477.24 164.224 477.24 163.344C477.24 162.464 477.067 161.717 476.72 161.104C476.373 160.49 475.92 160.037 475.36 159.744C474.8 159.437 474.193 159.284 473.54 159.284C472.873 159.284 472.26 159.437 471.7 159.744C471.153 160.037 470.713 160.49 470.38 161.104C470.047 161.717 469.88 162.464 469.88 163.344C469.88 164.237 470.04 164.99 470.36 165.604C470.693 166.217 471.133 166.677 471.68 166.984C472.227 167.277 472.827 167.424 473.48 167.424ZM485.373 169.024C484.533 169.024 483.78 168.884 483.113 168.604C482.446 168.31 481.92 167.91 481.533 167.404C481.146 166.884 480.933 166.29 480.893 165.624H482.773C482.826 166.17 483.08 166.617 483.533 166.964C484 167.31 484.606 167.484 485.353 167.484C486.046 167.484 486.593 167.33 486.993 167.024C487.393 166.717 487.593 166.33 487.593 165.864C487.593 165.384 487.38 165.03 486.953 164.804C486.526 164.564 485.866 164.33 484.973 164.104C484.16 163.89 483.493 163.677 482.973 163.464C482.466 163.237 482.026 162.91 481.653 162.484C481.293 162.044 481.113 161.47 481.113 160.764C481.113 160.204 481.28 159.69 481.613 159.224C481.946 158.757 482.42 158.39 483.033 158.124C483.646 157.844 484.346 157.704 485.133 157.704C486.346 157.704 487.326 158.01 488.073 158.624C488.82 159.237 489.22 160.077 489.273 161.144H487.453C487.413 160.57 487.18 160.11 486.753 159.764C486.34 159.417 485.78 159.244 485.073 159.244C484.42 159.244 483.9 159.384 483.513 159.664C483.126 159.944 482.933 160.31 482.933 160.764C482.933 161.124 483.046 161.424 483.273 161.664C483.513 161.89 483.806 162.077 484.153 162.224C484.513 162.357 485.006 162.51 485.633 162.684C486.42 162.897 487.06 163.11 487.553 163.324C488.046 163.524 488.466 163.83 488.813 164.244C489.173 164.657 489.36 165.197 489.373 165.864C489.373 166.464 489.206 167.004 488.873 167.484C488.54 167.964 488.066 168.344 487.453 168.624C486.853 168.89 486.16 169.024 485.373 169.024ZM494.162 159.384V165.844C494.162 166.377 494.276 166.757 494.502 166.984C494.729 167.197 495.122 167.304 495.682 167.304H497.022V168.844H495.382C494.369 168.844 493.609 168.61 493.102 168.144C492.596 167.677 492.342 166.91 492.342 165.844V159.384H490.922V157.884H492.342V155.124H494.162V157.884H497.022V159.384H494.162ZM498.548 163.324C498.548 162.204 498.774 161.224 499.228 160.384C499.681 159.53 500.301 158.87 501.088 158.404C501.888 157.937 502.774 157.704 503.748 157.704C504.708 157.704 505.541 157.91 506.248 158.324C506.954 158.737 507.481 159.257 507.828 159.884V157.884H509.668V168.844H507.828V166.804C507.468 167.444 506.928 167.977 506.208 168.404C505.501 168.817 504.674 169.024 503.728 169.024C502.754 169.024 501.874 168.784 501.088 168.304C500.301 167.824 499.681 167.15 499.228 166.284C498.774 165.417 498.548 164.43 498.548 163.324ZM507.828 163.344C507.828 162.517 507.661 161.797 507.328 161.184C506.994 160.57 506.541 160.104 505.968 159.784C505.408 159.45 504.788 159.284 504.108 159.284C503.428 159.284 502.808 159.444 502.248 159.764C501.688 160.084 501.241 160.55 500.908 161.164C500.574 161.777 500.408 162.497 500.408 163.324C500.408 164.164 500.574 164.897 500.908 165.524C501.241 166.137 501.688 166.61 502.248 166.944C502.808 167.264 503.428 167.424 504.108 167.424C504.788 167.424 505.408 167.264 505.968 166.944C506.541 166.61 506.994 166.137 507.328 165.524C507.661 164.897 507.828 164.17 507.828 163.344ZM514.563 154.044V168.844H512.743V154.044H514.563ZM522.185 157.704C523.132 157.704 523.958 157.91 524.665 158.324C525.385 158.737 525.918 159.257 526.265 159.884V157.884H528.105V169.084C528.105 170.084 527.892 170.97 527.465 171.744C527.038 172.53 526.425 173.144 525.625 173.584C524.838 174.024 523.918 174.244 522.865 174.244C521.425 174.244 520.225 173.904 519.265 173.224C518.305 172.544 517.738 171.617 517.565 170.444H519.365C519.565 171.11 519.978 171.644 520.605 172.044C521.232 172.457 521.985 172.664 522.865 172.664C523.865 172.664 524.678 172.35 525.305 171.724C525.945 171.097 526.265 170.217 526.265 169.084V166.784C525.905 167.424 525.372 167.957 524.665 168.384C523.958 168.81 523.132 169.024 522.185 169.024C521.212 169.024 520.325 168.784 519.525 168.304C518.738 167.824 518.118 167.15 517.665 166.284C517.212 165.417 516.985 164.43 516.985 163.324C516.985 162.204 517.212 161.224 517.665 160.384C518.118 159.53 518.738 158.87 519.525 158.404C520.325 157.937 521.212 157.704 522.185 157.704ZM526.265 163.344C526.265 162.517 526.098 161.797 525.765 161.184C525.432 160.57 524.978 160.104 524.405 159.784C523.845 159.45 523.225 159.284 522.545 159.284C521.865 159.284 521.245 159.444 520.685 159.764C520.125 160.084 519.678 160.55 519.345 161.164C519.012 161.777 518.845 162.497 518.845 163.324C518.845 164.164 519.012 164.897 519.345 165.524C519.678 166.137 520.125 166.61 520.685 166.944C521.245 167.264 521.865 167.424 522.545 167.424C523.225 167.424 523.845 167.264 524.405 166.944C524.978 166.61 525.432 166.137 525.765 165.524C526.098 164.897 526.265 164.17 526.265 163.344ZM532.121 156.104C531.774 156.104 531.481 155.984 531.241 155.744C531.001 155.504 530.881 155.21 530.881 154.864C530.881 154.517 531.001 154.224 531.241 153.984C531.481 153.744 531.774 153.624 532.121 153.624C532.454 153.624 532.734 153.744 532.961 153.984C533.201 154.224 533.321 154.517 533.321 154.864C533.321 155.21 533.201 155.504 532.961 155.744C532.734 155.984 532.454 156.104 532.121 156.104ZM533.001 157.884V168.844H531.181V157.884H533.001ZM535.423 163.324C535.423 162.204 535.649 161.224 536.103 160.384C536.556 159.53 537.176 158.87 537.963 158.404C538.763 157.937 539.649 157.704 540.623 157.704C541.583 157.704 542.416 157.91 543.123 158.324C543.829 158.737 544.356 159.257 544.703 159.884V157.884H546.543V168.844H544.703V166.804C544.343 167.444 543.803 167.977 543.083 168.404C542.376 168.817 541.549 169.024 540.603 169.024C539.629 169.024 538.749 168.784 537.963 168.304C537.176 167.824 536.556 167.15 536.103 166.284C535.649 165.417 535.423 164.43 535.423 163.324ZM544.703 163.344C544.703 162.517 544.536 161.797 544.203 161.184C543.869 160.57 543.416 160.104 542.843 159.784C542.283 159.45 541.663 159.284 540.983 159.284C540.303 159.284 539.683 159.444 539.123 159.764C538.563 160.084 538.116 160.55 537.783 161.164C537.449 161.777 537.283 162.497 537.283 163.324C537.283 164.164 537.449 164.897 537.783 165.524C538.116 166.137 538.563 166.61 539.123 166.944C539.683 167.264 540.303 167.424 540.983 167.424C541.663 167.424 542.283 167.264 542.843 166.944C543.416 166.61 543.869 166.137 544.203 165.524C544.536 164.897 544.703 164.17 544.703 163.344ZM557.31 154.904L557.09 164.904H555.57L555.35 154.904H557.31ZM556.41 168.964C556.063 168.964 555.77 168.844 555.53 168.604C555.29 168.364 555.17 168.07 555.17 167.724C555.17 167.377 555.29 167.084 555.53 166.844C555.77 166.604 556.063 166.484 556.41 166.484C556.743 166.484 557.023 166.604 557.25 166.844C557.49 167.084 557.61 167.377 557.61 167.724C557.61 168.07 557.49 168.364 557.25 168.604C557.023 168.844 556.743 168.964 556.41 168.964Z"
    fill="black" />
</svg>