<svg width="477" height="122" viewBox="0 0 477 122" fill="none" xmlns="http://www.w3.org/2000/svg">
<path d="M463.891 81.2655L374.855 109.865L375.552 113.157L476.081 66.67C476.405 66.5373 476.677 66.2459 476.84 65.8571C477.003 65.4683 477.043 65.0126 476.953 64.5858C476.862 64.159 476.648 63.7945 476.355 63.5692C476.062 63.3438 475.714 63.2751 475.383 63.3776L362.287 98.5583L330.25 108.524L330.947 111.817L445.188 70.9815C445.512 70.8489 445.785 70.5574 445.947 70.1686C446.11 69.7798 446.151 69.324 446.06 68.8972C445.97 68.4704 445.755 68.1059 445.463 67.8806C445.17 67.6552 444.821 67.5865 444.49 67.689L306.126 106.534L267.984 117.242C266.309 117.712 267.046 120.879 268.681 120.534C320.318 109.651 367.06 79.1435 415.699 55.8112C429.529 49.0877 443.611 43.2753 457.891 38.3962L457.194 35.1038C405.982 58.6399 353.962 79.4571 301.515 97.8188C286.724 102.997 271.865 107.845 256.915 112.187C255.254 112.67 255.97 115.877 257.612 115.48C262.148 114.383 266.687 113.29 271.202 112.054C272.4 111.726 274.506 111.655 275.053 109.944C275.131 109.581 275.114 109.194 275.005 108.845C274.896 108.496 274.7 108.204 274.45 108.016C272.944 107.185 270.401 108.431 268.896 108.806C264.882 109.804 260.888 110.944 256.915 112.187C255.257 112.706 255.971 115.883 257.612 115.48C286.558 108.371 312.017 89.1231 338.709 73.9645C366.859 57.9775 395.992 45.1572 425.216 32.9537C436.902 28.0737 448.642 23.419 460.368 18.7042L459.67 15.4117C430.742 30.8015 401.355 44.3454 371.551 56.5604C337.215 70.6329 302.611 83.5441 267.84 95.6693C247.693 102.695 227.501 109.501 207.265 116.088L207.962 119.38C211.987 117.276 216.029 115.196 220.145 113.413C221.167 113.107 222.172 112.71 223.152 112.224C223.35 112.094 223.735 111.961 223.686 112.051C223.832 111.783 222.996 109.251 223.016 109.254C222.709 109.2 221.727 110.073 221.429 110.236C220.339 110.833 219.222 111.352 218.106 111.86C214.543 113.48 210.914 114.844 207.265 116.088L207.962 119.38C256.592 93.0944 305.637 68.138 354.509 42.6309C368.314 35.4259 382.101 28.1625 395.87 20.8408L395.172 17.5482C390.983 19.8432 386.792 22.129 382.597 24.4057C381.417 25.2133 380.18 25.8696 378.902 26.3652L380.178 29.2186C379.698 29.7711 381.134 28.7819 381.452 28.6051C382.644 27.9408 383.839 27.2843 385.037 26.6356C388.638 24.6742 392.249 22.7425 395.87 20.8408L395.172 17.5482C366.32 33.3468 337.133 48.0517 307.613 61.6626C277.809 75.4196 247.728 88.0961 217.369 99.6921C200.037 106.324 182.631 112.614 165.151 118.562C164.826 118.695 164.554 118.986 164.391 119.375C164.228 119.764 164.188 120.22 164.278 120.647C164.369 121.074 164.583 121.438 164.876 121.664C165.169 121.889 165.518 121.958 165.849 121.855C194.19 112.218 221.263 97.502 247.448 80.5586C275.182 62.6134 301.994 42.3572 329.788 24.5641C344.746 14.9882 361.797 15.2519 377.338 8.0013L376.327 4.88079C364.246 13.641 351.227 19.5665 338.052 24.8552C324.576 30.2647 311.139 35.5153 297.973 42.1306C270.632 55.8686 242.936 68.3853 215.081 80.2364C199.219 86.9851 183.31 93.5446 167.355 99.9147L168.366 103.035C171.975 100.737 175.6 98.4268 179.328 96.4724C180.156 96.1682 180.964 95.7822 181.746 95.3179C182.005 95.1115 182.129 95.1553 182.124 95.1688C182.314 94.5692 181.224 92.5514 181.196 92.5535C180.754 92.5866 179.933 93.4972 179.531 93.7619C178.612 94.3665 177.673 94.92 176.728 95.4508C173.663 97.1422 170.535 98.632 167.355 99.9147L168.366 103.035C213.328 74.3054 258.107 45.0168 303.272 16.8333C315.159 9.41579 328.876 10.5411 340.797 3.13657L339.472 0.188286C313.982 18.7772 285.17 27.329 258.569 42.6589C230.334 58.9302 201.58 73.5431 172.309 86.4975C155.669 93.8894 138.902 100.767 122.008 107.132L122.706 110.424L194.649 71.9182C218.161 59.3337 241.589 46.4303 265.198 34.1582C277.934 27.5381 292.114 29.8643 304.856 23.2552C306.402 22.4535 305.741 19.1623 304.159 19.9626C278.664 32.8596 251.014 35.3552 224.984 45.878C197.504 56.9866 169.86 67.4224 142.2 77.7411C126.597 83.5616 110.985 89.3402 95.3643 95.077C95.0396 95.2096 94.7672 95.5011 94.6044 95.8899C94.4416 96.2787 94.4012 96.7346 94.4917 97.1615C94.5821 97.5883 94.7964 97.9528 95.0893 98.1781C95.3822 98.4035 95.7309 98.4721 96.0619 98.3695C100.427 97.0894 104.793 95.808 109.136 94.4101C110.245 94.0533 112.221 93.8652 113.11 92.7609C113.35 92.4362 113.483 92.0036 113.483 91.5537C113.483 91.1037 113.35 90.6712 113.11 90.3464C112.158 88.9139 108.692 90.6878 107.633 91.0043C103.52 92.2336 99.4314 93.6097 95.3643 95.077C95.0396 95.2096 94.7672 95.5011 94.6044 95.8899C94.4416 96.2787 94.4012 96.7346 94.4917 97.1615C94.5821 97.5883 94.7964 97.9528 95.0893 98.1781C95.3822 98.4035 95.7309 98.4721 96.0619 98.3695C147.901 82.7439 195.311 51.7466 243.273 22.7635C246.644 20.7265 250.021 18.7038 253.402 16.6956C257.171 14.4598 260.722 12.3054 264.893 11.7467C272.168 10.772 279.331 12.498 286.494 9.82305L285.483 6.70271C281.448 9.2215 277.408 11.7334 273.331 14.1349C272.368 14.7015 271.407 15.277 270.43 15.8C270.144 15.8985 269.867 16.0416 269.607 16.2259C268.833 17.0396 269.24 13.992 270.617 17.1672V18.8906C270.322 19.6209 270.224 19.2584 270.716 19.0133C271.106 18.778 271.485 18.5162 271.853 18.2291C273.08 17.4095 274.326 16.6379 275.575 15.8788C279.161 13.7003 282.8 11.6693 286.494 9.82305L285.483 6.70271C256.026 24.9859 223.364 31.9345 192.626 45.5814C160.6 59.7588 128.022 71.7278 95.0268 81.4384C76.0328 87.0508 56.9261 91.9491 37.7065 96.1333C36.2328 96.4556 36.6012 99.519 38.0552 99.4867C61.9759 98.9548 85.4983 91.5158 107.801 80.5496C131.571 68.8618 154.672 54.6822 177.808 41.0544C191.041 33.2601 204.286 25.4998 217.632 18.0387C219.007 17.2703 218.024 14.3722 216.621 14.9182C210.192 17.4206 203.753 19.9117 197.386 22.6745C196.206 23.1864 192.207 24.073 192.218 26.4059C192.232 29.3592 195.665 27.6531 196.792 27.2678C199.882 26.211 202.941 24.9896 205.978 23.7017C209.934 22.0734 213.824 20.1833 217.632 18.0387C219.003 17.2483 218.025 14.3801 216.621 14.9182C171.562 32.194 126.591 49.8696 81.8385 68.4511C69.2522 73.6769 56.6843 78.9766 44.1348 84.3503C43.8104 84.4832 43.5382 84.7747 43.3756 85.1634C43.2131 85.5522 43.1727 86.0079 43.2631 86.4345C43.3535 86.8612 43.5676 87.2255 43.8603 87.4508C44.153 87.6762 44.5015 87.7451 44.8324 87.6429C48.9476 86.6859 53.1566 85.8523 57.1863 84.3682C58.336 83.9448 60.7709 82.1729 58.7204 80.5868C57.5431 79.6761 55.159 80.752 53.9614 81.0528C50.6397 81.9042 47.3587 83.0052 44.1348 84.3503C43.8104 84.4832 43.5382 84.7747 43.3756 85.1634C43.2131 85.5522 43.1727 86.0079 43.2631 86.4345C43.3535 86.8612 43.5676 87.2255 43.8603 87.4508C44.153 87.6762 44.5015 87.7451 44.8324 87.6429C88.4809 77.503 131.347 60.7471 171.494 36.1287C182.738 29.2335 193.729 21.6936 204.466 13.5094C204.66 13.3556 204.821 13.1392 204.933 12.881C205.045 12.6228 205.103 12.3315 205.103 12.0353C205.103 11.739 205.045 11.4479 204.933 11.1897C204.821 10.9315 204.66 10.7151 204.466 10.5613C199.97 7.04238 194.461 8.51227 189.696 10.2077C183.552 12.3936 177.511 15.0864 171.397 17.4175C164.724 19.9621 158.033 22.3349 151.457 25.2835C145.06 28.1514 138.676 31.0625 132.302 34.0167C107.003 45.6858 81.7516 57.6349 55.9168 67.1837C40.8848 72.7893 25.6453 77.4061 10.2562 81.0166L10.9539 84.3092C16.8504 82.4096 22.7485 80.5136 28.6659 78.7265C30.0088 78.3209 31.3523 77.9145 32.7018 77.5467C33.0938 77.4973 33.4809 77.3966 33.8573 77.2457C34.465 76.8736 33.493 78.027 32.9394 76.3815L33.1446 74.3126C33.5524 73.6863 33.4961 74.0363 32.8063 74.2888C32.222 74.5026 31.6386 74.7193 31.0525 74.9245C29.0672 75.6193 27.0716 76.2652 25.0735 76.8941C20.1657 78.4388 15.232 79.8904 10.2562 81.0166L10.9539 84.3092C54.2609 70.3474 97.8447 56.5003 139.439 35.188C151.021 29.2539 162.418 22.7131 173.52 15.3848C174.866 14.4963 173.922 11.7728 172.509 12.2645L38.2206 58.9859L0.920431 71.9632L1.61804 75.2558L108.752 34.3478L138.364 23.0408C139.719 22.5234 139.534 19.4279 138.015 19.6874C105.081 25.2579 72.428 33.3462 40.2247 43.9103C30.889 46.99 21.599 50.2907 12.3546 53.8125C12.0298 53.945 11.7572 54.2364 11.5943 54.6253C11.4314 55.0142 11.391 55.4702 11.4814 55.8972C11.5719 56.3242 11.7862 56.6887 12.0792 56.914C12.3723 57.1394 12.7211 57.2079 13.0522 57.1051C46.1052 44.5759 78.7779 30.5003 111.07 14.8782C111.395 14.7453 111.667 14.4538 111.829 14.0651C111.992 13.6764 112.032 13.2208 111.942 12.7942C111.851 12.3676 111.637 12.0032 111.345 11.7778C111.052 11.5524 110.703 11.4835 110.373 11.5856C92.0353 16.3745 73.6981 21.1727 55.4446 26.4817C53.7972 26.9609 54.4944 30.2536 56.1421 29.7743C74.3956 24.4652 92.7329 19.667 111.07 14.8782L110.373 11.5856C78.1145 27.237 45.4418 41.3126 12.3546 53.8125L13.0522 57.1051C44.649 45.1187 76.7715 35.6171 109.245 28.6518C118.811 26.5907 128.4 24.7408 138.015 23.1018L137.666 19.7482L31.2101 60.3975L0.920431 71.9632C0.595622 72.0956 0.323074 72.3871 0.16017 72.776C-0.00273311 73.1648 -0.0432417 73.6209 0.0472238 74.0479C0.137689 74.4748 0.352037 74.8394 0.645079 75.0647C0.938121 75.29 1.28695 75.3586 1.61804 75.2558L135.163 28.7928L173.207 15.5569L172.196 12.4366C132.794 38.4452 89.9801 54.5336 47.362 68.8775C35.0147 73.0332 22.6354 77.0257 10.2562 81.0166C8.59232 81.553 9.31781 84.6795 10.9539 84.3092C16.1488 83.1333 21.2993 81.6073 26.4208 79.9811C28.373 79.3612 30.3236 78.7275 32.2618 78.0367C33.0055 77.7715 34.4598 77.5569 35.0001 76.7271C35.1942 76.4519 35.3182 76.1053 35.3549 75.7349C35.3916 75.3645 35.3394 74.9885 35.2053 74.6582C34.5398 72.6797 30.4658 74.6894 29.4886 74.9788C23.0586 76.8831 16.6571 78.9546 10.2562 81.0166C8.59437 81.552 9.31649 84.6882 10.9539 84.3092C37.1577 78.2438 62.7575 68.7354 87.9801 57.7796C100.296 52.43 112.531 46.7725 124.765 41.1146C137.546 35.2035 150.286 28.8363 163.333 23.9973C170.613 21.2975 177.884 18.5531 185.096 15.5567C190.435 13.3383 197.866 9.37999 203.141 13.5094V10.5613C165.373 39.3974 124.091 60.0196 81.6778 73.8957C69.2626 77.9575 56.7483 81.4422 44.1348 84.3503L44.8324 87.6429C47.3836 86.5921 49.9652 85.6709 52.5772 84.912C53.9626 84.5095 56.1735 84.5835 57.4274 83.7733C57.5178 83.7149 57.8694 83.8326 57.9265 83.7467C57.9956 83.6425 57.0983 80.4496 57.4878 80.6725C57.4293 80.639 57.2816 80.8094 57.2143 80.7984C56.481 80.9205 55.7635 81.1685 55.0803 81.5358C51.4625 82.651 47.7934 83.4995 44.1348 84.3503L44.8324 87.6429C89.2692 68.6101 133.955 50.5801 178.768 33.1084C191.609 28.1019 204.459 23.136 217.319 18.2107L216.308 15.0904C210.628 18.2366 204.79 20.8751 198.835 22.9873C197.752 23.3932 196.666 23.7897 195.573 24.1518C194.878 24.2236 194.195 24.4252 193.544 24.7505C193.933 24.3155 193.867 27.4984 194.339 27.728C194.505 27.809 194.672 27.4816 194.876 27.4289C196.025 27.0049 197.153 26.4921 198.254 25.8932C204.566 23.1636 210.947 20.6908 217.319 18.2107L216.308 15.0904C193.117 28.0548 170.249 41.9589 147.174 55.2645C125.03 68.0337 102.746 81.0045 79.1839 88.7126C65.736 93.2057 51.9361 95.6752 38.0552 96.0725L38.404 99.4259C72.5669 91.99 106.414 82.275 139.81 70.3192C156.079 64.4764 172.221 58.0737 188.236 51.1112C203.967 44.2608 219.78 38.2251 235.786 32.5632C253.179 26.411 270.496 19.7754 286.808 9.651C288.133 8.82847 287.191 5.83403 285.797 6.53066C282.003 8.42635 278.262 10.5063 274.577 12.7332C272.84 13.7824 270.149 14.7919 268.758 16.5972C267.895 17.7175 268.075 19.6488 269.51 19.7534C270.268 19.6289 270.999 19.3052 271.658 18.8023C276.783 15.9833 281.793 12.7812 286.808 9.651C288.162 8.80592 287.205 6.0046 285.797 6.53066C279.136 9.01796 272.481 7.554 265.7 8.24004C259.177 8.89997 253.626 12.8099 247.776 16.3108C235.62 23.5849 223.54 31.0698 211.428 38.4673C187.717 52.9501 163.834 67.068 139.111 78.4126C124.778 85.0202 110.173 90.5836 95.3643 95.077L96.0619 98.3695C99.7838 97.0268 103.523 95.7642 107.283 94.614C108.471 94.2507 109.66 93.8925 110.854 93.571C111.224 93.5264 111.588 93.4325 111.942 93.2907C112.455 92.9745 111.939 93.7901 111.255 92.7609V90.3466C111.901 89.5445 111.331 90.1423 110.666 90.3788C109.66 90.7365 108.644 91.054 107.631 91.3755C103.553 92.6688 99.4587 93.8761 95.3643 95.077L96.0619 98.3695C123.72 88.1743 151.377 77.9707 178.96 67.4329C192.764 62.159 206.547 56.7878 220.307 51.3194C233.546 46.0843 246.982 41.7331 260.562 38.2827C275.556 34.4192 290.564 30.4852 304.856 23.2552L304.159 19.9626C292.817 25.8452 280.431 24.4175 268.842 28.8813C262.892 31.1733 257.169 34.79 251.436 37.8584L233.146 47.648L162.37 85.5289L122.008 107.132C120.495 107.942 121.035 111.055 122.706 110.424C152.839 99.041 182.574 86.0419 211.909 71.4264C225.97 64.3865 239.91 56.9546 253.729 49.1309C267.674 41.2312 281.731 34.2078 296.09 27.6875C311.389 20.7404 326.623 13.4729 340.797 3.13657C342.288 2.0488 340.978 -0.746763 339.472 0.188286C328.758 6.84391 316.588 6.22683 305.624 11.7935C300.017 14.6398 294.668 18.5369 289.269 21.9863L272.365 32.7878L205.37 75.5957L167.042 100.087C165.708 100.939 166.641 103.789 168.053 103.207C171.837 101.682 175.547 99.8624 179.164 97.7585C180.332 97.0673 183.144 95.9344 183.534 94.0138C184.189 90.786 180.891 92.0608 179.825 92.5733C175.469 94.7957 171.203 97.3034 167.042 100.087C165.704 100.939 166.641 103.774 168.053 103.207C196.63 91.735 225.115 79.8567 253.352 67.0344C267.406 60.6526 281.389 54.0112 295.3 47.11C308.429 40.5677 321.674 34.9145 335.122 29.5921C349.734 23.8094 364.26 17.5393 377.652 7.82908C378.921 6.90871 378.066 4.04368 376.641 4.70874C363.021 11.0629 348.241 11.3848 334.714 18.0389C327.761 21.4586 321.161 26.327 314.569 30.7589C307.699 35.3769 300.87 40.0956 294.053 44.8421C267.477 63.3454 240.999 82.2662 213.132 97.3374C197.533 105.844 181.502 112.936 165.151 118.562L165.849 121.855C196.676 111.348 227.276 99.7893 257.649 87.1786C287.643 74.694 317.357 61.1337 346.788 46.4977C363.255 38.2949 379.616 29.7425 395.87 20.8408C397.394 20.0058 396.75 16.7201 395.172 17.5482C391.335 19.5624 387.508 21.6117 383.693 23.6957C382.097 24.5666 379.65 25.277 378.323 26.8043C377.26 28.0274 378.419 29.946 379.599 29.6578C380.877 29.1621 382.115 28.5058 383.295 27.6983C387.492 25.4302 391.684 23.1444 395.87 20.8408C397.397 20.004 396.743 16.7113 395.172 17.5482C346.387 43.5418 297.268 68.4567 248.396 94.172C234.661 101.399 220.951 108.704 207.265 116.088C205.753 116.905 206.276 119.954 207.962 119.38C212.223 117.98 216.426 116.294 220.554 114.33C221.738 113.751 224.838 112.844 225.23 110.878C225.885 107.598 222.353 108.945 221.273 109.363C216.509 111.208 211.871 113.68 207.265 116.088C206.94 116.221 206.668 116.512 206.506 116.901C206.344 117.289 206.303 117.745 206.394 118.171C206.484 118.598 206.698 118.962 206.991 119.188C207.283 119.413 207.631 119.482 207.962 119.38C243.769 107.668 279.485 95.4605 314.982 82.2425C346.486 70.5115 377.922 58.1902 408.876 44.1756C426.223 36.3217 443.368 27.7484 460.368 18.7042C461.884 17.8978 461.328 14.7451 459.67 15.4117C436.341 24.7923 413.013 34.1701 389.941 44.5891C374.547 51.5407 359.271 58.9563 344.252 67.1875C330.871 74.5212 317.875 82.8716 304.708 90.8141C289.358 100.074 273.597 108.09 256.915 112.187L257.612 115.48C261.292 114.328 264.989 113.276 268.703 112.323C269.913 112.014 271.126 111.712 272.342 111.447C272.726 111.422 273.107 111.343 273.478 111.211C273.602 111.139 274.009 111.452 273.125 110.964L272.522 109.036C272.75 108.324 273.751 108.119 273.077 108.008C272.825 108.042 272.578 108.121 272.343 108.24C271.344 108.549 270.335 108.81 269.329 109.078C265.201 110.177 261.058 111.185 256.915 112.187L257.612 115.48C284.226 107.75 310.537 98.3946 336.718 88.5049C362.794 78.6551 388.812 68.552 414.618 57.5587C429.099 51.3898 443.523 45.0023 457.891 38.3962C458.216 38.2635 458.488 37.9721 458.651 37.5833C458.814 37.1945 458.854 36.7388 458.764 36.3121C458.673 35.8853 458.459 35.5208 458.166 35.2954C457.873 35.07 457.525 35.0014 457.194 35.1038C406.56 52.0991 360.183 84.6441 310.25 104.334C296.398 109.858 282.278 114.17 267.984 117.242L268.681 120.534L406.442 81.8592L445.188 70.9815L444.49 67.689L330.25 108.524C329.925 108.657 329.652 108.948 329.49 109.337C329.327 109.726 329.286 110.182 329.377 110.609C329.467 111.036 329.681 111.4 329.974 111.625C330.267 111.851 330.616 111.919 330.947 111.817L443.899 76.6807L476.081 66.67L475.383 63.3776L374.855 109.865C374.53 109.997 374.258 110.289 374.095 110.678C373.932 111.066 373.892 111.522 373.983 111.949C374.073 112.376 374.287 112.74 374.58 112.965C374.873 113.191 375.221 113.259 375.552 113.157L464.588 84.5581C464.913 84.4255 465.185 84.1342 465.348 83.7453C465.511 83.3565 465.551 82.9005 465.461 82.4736C465.371 82.0467 465.156 81.6821 464.863 81.4567C464.57 81.2314 464.222 81.1628 463.891 81.2655Z" fill="#FFC424"/>
</svg>
