<svg width="61" height="60" viewBox="0 0 61 60" fill="none" xmlns="http://www.w3.org/2000/svg">
<path d="M51.2397 27.1273V19.1422C40.8006 18.7016 40.4713 9.21641 40.4584 8.32578V8.25781H32.3983V39.3582C32.398 40.7029 31.9737 42.0132 31.1857 43.1028C30.3976 44.1924 29.286 45.0056 28.009 45.4269C26.732 45.8481 25.3547 45.8558 24.073 45.449C22.7913 45.0421 21.6707 44.2414 20.8704 43.1607C20.0702 42.0801 19.6312 40.7746 19.6159 39.43C19.6005 38.0854 20.0097 36.7702 20.7851 35.6716C21.5605 34.573 22.6626 33.7469 23.9347 33.311C25.2067 32.875 26.5839 32.8513 27.8701 33.2434V25.0062C24.9528 24.6272 21.9893 25.1463 19.3745 26.4943C16.7597 27.8423 14.6179 29.9552 13.2344 32.5514C11.8509 35.1476 11.2915 38.1038 11.6307 41.0259C11.97 43.9481 13.1917 46.6975 15.1332 48.9077C17.0747 51.1179 19.6436 52.6839 22.4977 53.397C25.3518 54.1101 28.3554 53.9365 31.1083 52.8992C33.8611 51.8619 36.2325 50.0103 37.9063 47.5911C39.5802 45.1719 40.4769 42.3 40.4772 39.3582C40.4772 39.1555 40.4713 38.9539 40.4631 38.7535V23.4395C44.1779 26.8379 51.2397 27.1273 51.2397 27.1273Z" fill="black"/>
<path d="M25.495 31.2645C23.9551 30.7973 22.2958 30.928 20.8481 31.6304C19.4003 32.3327 18.2707 33.5551 17.6845 35.0537C17.0983 36.5522 17.0987 38.2167 17.6856 39.7149C18.2725 41.2132 19.4028 42.4351 20.8508 43.1367C20.0574 42.0542 19.6249 40.7495 19.6146 39.4074C19.6043 38.0653 20.0167 36.754 20.7934 35.6595C21.5702 34.5649 22.6717 33.7427 23.942 33.3093C25.2122 32.8759 26.5866 32.8534 27.8704 33.2449V25.0078C27.252 24.929 26.6293 24.8899 26.0059 24.8906C25.8348 24.8906 25.6649 24.8906 25.495 24.9012V31.2645Z" fill="black"/>
</svg>
